G75*
%MOIN*%
%OFA0B0*%
%FSLAX25Y25*%
%IPPOS*%
%LPD*%
%AMOC8*
5,1,8,0,0,1.08239X$1,22.5*
%
%ADD10OC8,0.05600*%
%ADD11C,0.05600*%
%ADD12C,0.07400*%
%ADD13C,0.00600*%
%ADD14C,0.01600*%
%ADD15C,0.04165*%
D10*
X0068000Y0037500D03*
X0068000Y0047500D03*
X0133000Y0087500D03*
X0143000Y0087500D03*
X0151236Y0131713D03*
X0178000Y0132500D03*
X0178000Y0172500D03*
X0153000Y0187500D03*
X0143000Y0187500D03*
X0151236Y0171713D03*
X0138000Y0167500D03*
X0138000Y0157500D03*
X0063000Y0182500D03*
X0053000Y0182500D03*
X0058150Y0171713D03*
X0038000Y0172500D03*
X0038000Y0132500D03*
X0058150Y0131713D03*
D11*
X0085200Y0127500D02*
X0090800Y0127500D01*
X0090800Y0117500D02*
X0085200Y0117500D01*
X0085200Y0107500D02*
X0090800Y0107500D01*
X0090800Y0097500D02*
X0085200Y0097500D01*
X0085200Y0087500D02*
X0090800Y0087500D01*
X0090800Y0077500D02*
X0085200Y0077500D01*
X0085200Y0067500D02*
X0090800Y0067500D01*
X0090800Y0057500D02*
X0085200Y0057500D01*
X0085200Y0047500D02*
X0090800Y0047500D01*
X0090800Y0037500D02*
X0085200Y0037500D01*
X0115200Y0037500D02*
X0120800Y0037500D01*
X0120800Y0047500D02*
X0115200Y0047500D01*
X0115200Y0057500D02*
X0120800Y0057500D01*
X0120800Y0067500D02*
X0115200Y0067500D01*
X0115200Y0077500D02*
X0120800Y0077500D01*
X0120800Y0087500D02*
X0115200Y0087500D01*
X0115200Y0097500D02*
X0120800Y0097500D01*
X0120800Y0107500D02*
X0115200Y0107500D01*
X0115200Y0117500D02*
X0120800Y0117500D01*
X0120800Y0127500D02*
X0115200Y0127500D01*
X0115200Y0137500D02*
X0120800Y0137500D01*
X0120800Y0147500D02*
X0115200Y0147500D01*
X0115200Y0157500D02*
X0120800Y0157500D01*
X0120800Y0167500D02*
X0115200Y0167500D01*
X0090800Y0167500D02*
X0085200Y0167500D01*
X0085200Y0157500D02*
X0090800Y0157500D01*
X0090800Y0147500D02*
X0085200Y0147500D01*
X0085200Y0137500D02*
X0090800Y0137500D01*
D12*
X0088000Y0187500D03*
X0098000Y0187500D03*
X0108000Y0187500D03*
X0118000Y0187500D03*
X0128000Y0187500D03*
X0168000Y0187500D03*
X0188000Y0187500D03*
X0188000Y0147500D03*
X0188000Y0137500D03*
X0188000Y0127500D03*
X0188000Y0117500D03*
X0188000Y0107500D03*
X0188000Y0097500D03*
X0188000Y0087500D03*
X0188000Y0077500D03*
X0188000Y0067500D03*
X0188000Y0057500D03*
X0188000Y0042500D03*
X0188000Y0032500D03*
X0188000Y0022500D03*
X0188000Y0012500D03*
X0153000Y0012500D03*
X0143000Y0012500D03*
X0133000Y0012500D03*
X0123000Y0012500D03*
X0113000Y0012500D03*
X0103000Y0012500D03*
X0088000Y0012500D03*
X0088000Y0022500D03*
X0073000Y0022500D03*
X0073000Y0012500D03*
X0063000Y0012500D03*
X0063000Y0022500D03*
X0053000Y0022500D03*
X0053000Y0012500D03*
X0032000Y0010500D03*
X0032000Y0020500D03*
X0032000Y0030500D03*
X0032000Y0040500D03*
X0013000Y0057500D03*
X0013000Y0067500D03*
X0013000Y0077500D03*
X0013000Y0087500D03*
X0013000Y0097500D03*
X0013000Y0107500D03*
X0013000Y0117500D03*
X0013000Y0127500D03*
X0013000Y0137500D03*
X0013000Y0147500D03*
X0013000Y0187500D03*
X0033000Y0187500D03*
X0133000Y0067500D03*
X0133000Y0057500D03*
X0011000Y0030500D03*
X0011000Y0020500D03*
X0011000Y0010500D03*
D13*
X0004100Y0003600D02*
X0004100Y0198250D01*
X0198750Y0198250D01*
X0198750Y0003600D01*
X0004100Y0003600D01*
X0004100Y0003697D02*
X0198750Y0003697D01*
X0198750Y0004296D02*
X0004100Y0004296D01*
X0004100Y0004894D02*
X0198750Y0004894D01*
X0198750Y0005493D02*
X0004100Y0005493D01*
X0004100Y0006091D02*
X0008640Y0006091D01*
X0008379Y0006224D02*
X0009081Y0005866D01*
X0009829Y0005623D01*
X0010606Y0005500D01*
X0010700Y0005500D01*
X0010700Y0010200D01*
X0011300Y0010200D01*
X0011300Y0010800D01*
X0016000Y0010800D01*
X0016000Y0010894D01*
X0015877Y0011671D01*
X0015634Y0012419D01*
X0015276Y0013121D01*
X0014814Y0013757D01*
X0014257Y0014314D01*
X0013621Y0014776D01*
X0012919Y0015134D01*
X0012171Y0015377D01*
X0011394Y0015500D01*
X0011300Y0015500D01*
X0011300Y0010800D01*
X0010700Y0010800D01*
X0010700Y0015500D01*
X0010606Y0015500D01*
X0009829Y0015377D01*
X0009081Y0015134D01*
X0008379Y0014776D01*
X0007743Y0014314D01*
X0007186Y0013757D01*
X0006724Y0013121D01*
X0006366Y0012419D01*
X0006123Y0011671D01*
X0006000Y0010894D01*
X0006000Y0010800D01*
X0010700Y0010800D01*
X0010700Y0010200D01*
X0006000Y0010200D01*
X0006000Y0010106D01*
X0006123Y0009329D01*
X0006366Y0008581D01*
X0006724Y0007879D01*
X0007186Y0007243D01*
X0007743Y0006686D01*
X0008379Y0006224D01*
X0007739Y0006690D02*
X0004100Y0006690D01*
X0004100Y0007288D02*
X0007153Y0007288D01*
X0006720Y0007887D02*
X0004100Y0007887D01*
X0004100Y0008485D02*
X0006415Y0008485D01*
X0006203Y0009084D02*
X0004100Y0009084D01*
X0004100Y0009682D02*
X0006067Y0009682D01*
X0006000Y0010879D02*
X0004100Y0010879D01*
X0004100Y0010281D02*
X0010700Y0010281D01*
X0010700Y0010879D02*
X0011300Y0010879D01*
X0011300Y0010281D02*
X0027200Y0010281D01*
X0027200Y0010879D02*
X0016000Y0010879D01*
X0015907Y0011478D02*
X0027209Y0011478D01*
X0027200Y0011455D02*
X0027200Y0009545D01*
X0027931Y0007781D01*
X0029281Y0006431D01*
X0031045Y0005700D01*
X0032955Y0005700D01*
X0034719Y0006431D01*
X0036069Y0007781D01*
X0036800Y0009545D01*
X0036800Y0011455D01*
X0036069Y0013219D01*
X0034719Y0014569D01*
X0032955Y0015300D01*
X0031045Y0015300D01*
X0029281Y0014569D01*
X0027931Y0013219D01*
X0027200Y0011455D01*
X0027457Y0012076D02*
X0015745Y0012076D01*
X0015504Y0012675D02*
X0027705Y0012675D01*
X0027985Y0013273D02*
X0015165Y0013273D01*
X0014699Y0013872D02*
X0028584Y0013872D01*
X0029182Y0014470D02*
X0014042Y0014470D01*
X0013047Y0015069D02*
X0030487Y0015069D01*
X0030693Y0015667D02*
X0004100Y0015667D01*
X0004100Y0015069D02*
X0008953Y0015069D01*
X0007958Y0014470D02*
X0004100Y0014470D01*
X0004100Y0013872D02*
X0007301Y0013872D01*
X0006835Y0013273D02*
X0004100Y0013273D01*
X0004100Y0012675D02*
X0006496Y0012675D01*
X0006255Y0012076D02*
X0004100Y0012076D01*
X0004100Y0011478D02*
X0006093Y0011478D01*
X0010700Y0011478D02*
X0011300Y0011478D01*
X0011300Y0012076D02*
X0010700Y0012076D01*
X0010700Y0012675D02*
X0011300Y0012675D01*
X0011300Y0013273D02*
X0010700Y0013273D01*
X0010700Y0013872D02*
X0011300Y0013872D01*
X0011300Y0014470D02*
X0010700Y0014470D01*
X0010700Y0015069D02*
X0011300Y0015069D01*
X0011955Y0015700D02*
X0013719Y0016431D01*
X0015069Y0017781D01*
X0015800Y0019545D01*
X0015800Y0021455D01*
X0015069Y0023219D01*
X0013719Y0024569D01*
X0011955Y0025300D01*
X0010045Y0025300D01*
X0008281Y0024569D01*
X0006931Y0023219D01*
X0006200Y0021455D01*
X0006200Y0019545D01*
X0006931Y0017781D01*
X0008281Y0016431D01*
X0010045Y0015700D01*
X0011955Y0015700D01*
X0013321Y0016266D02*
X0029321Y0016266D01*
X0029379Y0016224D02*
X0030081Y0015866D01*
X0030829Y0015623D01*
X0031606Y0015500D01*
X0031700Y0015500D01*
X0031700Y0020200D01*
X0032300Y0020200D01*
X0032300Y0020800D01*
X0037000Y0020800D01*
X0037000Y0020894D01*
X0036877Y0021671D01*
X0036634Y0022419D01*
X0036276Y0023121D01*
X0035814Y0023757D01*
X0035257Y0024314D01*
X0034621Y0024776D01*
X0033919Y0025134D01*
X0033171Y0025377D01*
X0032394Y0025500D01*
X0032300Y0025500D01*
X0032300Y0020800D01*
X0031700Y0020800D01*
X0031700Y0025500D01*
X0031606Y0025500D01*
X0030829Y0025377D01*
X0030081Y0025134D01*
X0029379Y0024776D01*
X0028743Y0024314D01*
X0028186Y0023757D01*
X0027724Y0023121D01*
X0027366Y0022419D01*
X0027123Y0021671D01*
X0027000Y0020894D01*
X0027000Y0020800D01*
X0031700Y0020800D01*
X0031700Y0020200D01*
X0027000Y0020200D01*
X0027000Y0020106D01*
X0027123Y0019329D01*
X0027366Y0018581D01*
X0027724Y0017879D01*
X0028186Y0017243D01*
X0028743Y0016686D01*
X0029379Y0016224D01*
X0028565Y0016864D02*
X0014152Y0016864D01*
X0014751Y0017463D02*
X0028026Y0017463D01*
X0027631Y0018061D02*
X0015185Y0018061D01*
X0015433Y0018660D02*
X0027341Y0018660D01*
X0027146Y0019258D02*
X0015681Y0019258D01*
X0015800Y0019857D02*
X0027040Y0019857D01*
X0027025Y0021054D02*
X0015800Y0021054D01*
X0015800Y0020455D02*
X0031700Y0020455D01*
X0031700Y0019857D02*
X0032300Y0019857D01*
X0032300Y0020200D02*
X0032300Y0015500D01*
X0032394Y0015500D01*
X0033171Y0015623D01*
X0033919Y0015866D01*
X0034621Y0016224D01*
X0035257Y0016686D01*
X0035814Y0017243D01*
X0036276Y0017879D01*
X0036634Y0018581D01*
X0036877Y0019329D01*
X0037000Y0020106D01*
X0037000Y0020200D01*
X0032300Y0020200D01*
X0032300Y0020455D02*
X0048651Y0020455D01*
X0048899Y0019857D02*
X0036960Y0019857D01*
X0036854Y0019258D02*
X0049453Y0019258D01*
X0048931Y0019781D02*
X0050281Y0018431D01*
X0052045Y0017700D01*
X0053955Y0017700D01*
X0055719Y0018431D01*
X0057069Y0019781D01*
X0057800Y0021545D01*
X0057800Y0023455D01*
X0057069Y0025219D01*
X0055719Y0026569D01*
X0053955Y0027300D01*
X0052045Y0027300D01*
X0050281Y0026569D01*
X0048931Y0025219D01*
X0048200Y0023455D01*
X0048200Y0021545D01*
X0048931Y0019781D01*
X0048404Y0021054D02*
X0036975Y0021054D01*
X0036880Y0021652D02*
X0048200Y0021652D01*
X0048200Y0022251D02*
X0036688Y0022251D01*
X0036415Y0022849D02*
X0048200Y0022849D01*
X0048200Y0023448D02*
X0036039Y0023448D01*
X0035525Y0024046D02*
X0048445Y0024046D01*
X0048693Y0024645D02*
X0034802Y0024645D01*
X0033582Y0025243D02*
X0048955Y0025243D01*
X0049554Y0025842D02*
X0033297Y0025842D01*
X0032955Y0025700D02*
X0034719Y0026431D01*
X0036069Y0027781D01*
X0036800Y0029545D01*
X0036800Y0030600D01*
X0052213Y0030600D01*
X0058539Y0024274D01*
X0058200Y0023455D01*
X0058200Y0021545D01*
X0058931Y0019781D01*
X0060281Y0018431D01*
X0062045Y0017700D01*
X0063955Y0017700D01*
X0065719Y0018431D01*
X0067069Y0019781D01*
X0067800Y0021545D01*
X0067800Y0023455D01*
X0067461Y0024274D01*
X0073887Y0030700D01*
X0087113Y0030700D01*
X0096100Y0021713D01*
X0097213Y0020600D01*
X0148787Y0020600D01*
X0149900Y0021713D01*
X0149900Y0074899D01*
X0150698Y0075697D01*
X0151183Y0076867D01*
X0151183Y0078133D01*
X0150698Y0079303D01*
X0149803Y0080198D01*
X0148633Y0080683D01*
X0147367Y0080683D01*
X0146197Y0080198D01*
X0145302Y0079303D01*
X0144817Y0078133D01*
X0144817Y0076867D01*
X0145302Y0075697D01*
X0146100Y0074899D01*
X0146100Y0024400D01*
X0138833Y0024400D01*
X0139803Y0024802D01*
X0140698Y0025697D01*
X0141183Y0026867D01*
X0141183Y0028133D01*
X0140698Y0029303D01*
X0139803Y0030198D01*
X0138633Y0030683D01*
X0137367Y0030683D01*
X0136197Y0030198D01*
X0135399Y0029400D01*
X0099900Y0029400D01*
X0099900Y0043287D01*
X0098787Y0044400D01*
X0094551Y0048636D01*
X0094106Y0049709D01*
X0093009Y0050806D01*
X0091576Y0051400D01*
X0084424Y0051400D01*
X0082991Y0050806D01*
X0081894Y0049709D01*
X0081300Y0048276D01*
X0081300Y0046724D01*
X0081894Y0045291D01*
X0082785Y0044400D01*
X0070415Y0044400D01*
X0071900Y0045885D01*
X0071900Y0049115D01*
X0069615Y0051400D01*
X0066385Y0051400D01*
X0064100Y0049115D01*
X0064100Y0045885D01*
X0065585Y0044400D01*
X0054900Y0044400D01*
X0054900Y0078287D01*
X0053787Y0079400D01*
X0051183Y0082004D01*
X0051183Y0083133D01*
X0050698Y0084303D01*
X0049803Y0085198D01*
X0048633Y0085683D01*
X0047367Y0085683D01*
X0046197Y0085198D01*
X0045302Y0084303D01*
X0044817Y0083133D01*
X0044817Y0081867D01*
X0045302Y0080697D01*
X0046197Y0079802D01*
X0047367Y0079317D01*
X0048496Y0079317D01*
X0051100Y0076713D01*
X0051100Y0041713D01*
X0052213Y0040600D01*
X0065302Y0040600D01*
X0063900Y0039198D01*
X0063900Y0037800D01*
X0067700Y0037800D01*
X0067700Y0037200D01*
X0068300Y0037200D01*
X0068300Y0037800D01*
X0072100Y0037800D01*
X0072100Y0039198D01*
X0070698Y0040600D01*
X0082213Y0040600D01*
X0082499Y0040314D01*
X0081894Y0039709D01*
X0081300Y0038276D01*
X0081300Y0036724D01*
X0081894Y0035291D01*
X0082685Y0034500D01*
X0072313Y0034500D01*
X0064774Y0026961D01*
X0063955Y0027300D01*
X0062045Y0027300D01*
X0061226Y0026961D01*
X0054900Y0033287D01*
X0053787Y0034400D01*
X0034888Y0034400D01*
X0034719Y0034569D01*
X0032955Y0035300D01*
X0031045Y0035300D01*
X0029281Y0034569D01*
X0027931Y0033219D01*
X0027592Y0032400D01*
X0024900Y0032400D01*
X0024900Y0088287D01*
X0023787Y0089400D01*
X0017408Y0089400D01*
X0017069Y0090219D01*
X0015719Y0091569D01*
X0013955Y0092300D01*
X0012045Y0092300D01*
X0010281Y0091569D01*
X0008931Y0090219D01*
X0008200Y0088455D01*
X0008200Y0086545D01*
X0008931Y0084781D01*
X0010281Y0083431D01*
X0012045Y0082700D01*
X0013955Y0082700D01*
X0015719Y0083431D01*
X0017069Y0084781D01*
X0017408Y0085600D01*
X0021100Y0085600D01*
X0021100Y0032400D01*
X0015408Y0032400D01*
X0015069Y0033219D01*
X0013719Y0034569D01*
X0011955Y0035300D01*
X0010045Y0035300D01*
X0008281Y0034569D01*
X0006931Y0033219D01*
X0006200Y0031455D01*
X0006200Y0029545D01*
X0006931Y0027781D01*
X0008281Y0026431D01*
X0010045Y0025700D01*
X0011955Y0025700D01*
X0013719Y0026431D01*
X0015069Y0027781D01*
X0015408Y0028600D01*
X0027592Y0028600D01*
X0027931Y0027781D01*
X0029281Y0026431D01*
X0031045Y0025700D01*
X0032955Y0025700D01*
X0032300Y0025243D02*
X0031700Y0025243D01*
X0031700Y0024645D02*
X0032300Y0024645D01*
X0032300Y0024046D02*
X0031700Y0024046D01*
X0031700Y0023448D02*
X0032300Y0023448D01*
X0032300Y0022849D02*
X0031700Y0022849D01*
X0031700Y0022251D02*
X0032300Y0022251D01*
X0032300Y0021652D02*
X0031700Y0021652D01*
X0031700Y0021054D02*
X0032300Y0021054D01*
X0032300Y0019258D02*
X0031700Y0019258D01*
X0031700Y0018660D02*
X0032300Y0018660D01*
X0032300Y0018061D02*
X0031700Y0018061D01*
X0031700Y0017463D02*
X0032300Y0017463D01*
X0032300Y0016864D02*
X0031700Y0016864D01*
X0031700Y0016266D02*
X0032300Y0016266D01*
X0032300Y0015667D02*
X0031700Y0015667D01*
X0033307Y0015667D02*
X0049379Y0015667D01*
X0048931Y0015219D02*
X0048200Y0013455D01*
X0048200Y0011545D01*
X0048931Y0009781D01*
X0050281Y0008431D01*
X0052045Y0007700D01*
X0053955Y0007700D01*
X0055719Y0008431D01*
X0057069Y0009781D01*
X0057800Y0011545D01*
X0057800Y0013455D01*
X0057069Y0015219D01*
X0055719Y0016569D01*
X0053955Y0017300D01*
X0052045Y0017300D01*
X0050281Y0016569D01*
X0048931Y0015219D01*
X0048869Y0015069D02*
X0033513Y0015069D01*
X0034818Y0014470D02*
X0048621Y0014470D01*
X0048373Y0013872D02*
X0035416Y0013872D01*
X0036015Y0013273D02*
X0048200Y0013273D01*
X0048200Y0012675D02*
X0036295Y0012675D01*
X0036543Y0012076D02*
X0048200Y0012076D01*
X0048228Y0011478D02*
X0036791Y0011478D01*
X0036800Y0010879D02*
X0048476Y0010879D01*
X0048724Y0010281D02*
X0036800Y0010281D01*
X0036800Y0009682D02*
X0049030Y0009682D01*
X0049628Y0009084D02*
X0036609Y0009084D01*
X0036361Y0008485D02*
X0050227Y0008485D01*
X0051595Y0007887D02*
X0036113Y0007887D01*
X0035576Y0007288D02*
X0198750Y0007288D01*
X0198750Y0006690D02*
X0034978Y0006690D01*
X0033899Y0006091D02*
X0198750Y0006091D01*
X0198750Y0007887D02*
X0189959Y0007887D01*
X0189919Y0007866D02*
X0190621Y0008224D01*
X0191257Y0008686D01*
X0191814Y0009243D01*
X0192276Y0009879D01*
X0192634Y0010581D01*
X0192877Y0011329D01*
X0193000Y0012106D01*
X0193000Y0012200D01*
X0188300Y0012200D01*
X0188300Y0012800D01*
X0193000Y0012800D01*
X0193000Y0012894D01*
X0192877Y0013671D01*
X0192634Y0014419D01*
X0192276Y0015121D01*
X0191814Y0015757D01*
X0191257Y0016314D01*
X0190621Y0016776D01*
X0189919Y0017134D01*
X0189171Y0017377D01*
X0188394Y0017500D01*
X0188300Y0017500D01*
X0188300Y0012800D01*
X0187700Y0012800D01*
X0187700Y0017500D01*
X0187606Y0017500D01*
X0186829Y0017377D01*
X0186081Y0017134D01*
X0185379Y0016776D01*
X0184743Y0016314D01*
X0184186Y0015757D01*
X0183724Y0015121D01*
X0183366Y0014419D01*
X0183123Y0013671D01*
X0183000Y0012894D01*
X0183000Y0012800D01*
X0187700Y0012800D01*
X0187700Y0012200D01*
X0188300Y0012200D01*
X0188300Y0007500D01*
X0188394Y0007500D01*
X0189171Y0007623D01*
X0189919Y0007866D01*
X0190980Y0008485D02*
X0198750Y0008485D01*
X0198750Y0009084D02*
X0191655Y0009084D01*
X0192133Y0009682D02*
X0198750Y0009682D01*
X0198750Y0010281D02*
X0192481Y0010281D01*
X0192731Y0010879D02*
X0198750Y0010879D01*
X0198750Y0011478D02*
X0192900Y0011478D01*
X0192995Y0012076D02*
X0198750Y0012076D01*
X0198750Y0012675D02*
X0188300Y0012675D01*
X0188300Y0013273D02*
X0187700Y0013273D01*
X0187700Y0012675D02*
X0157800Y0012675D01*
X0157800Y0013273D02*
X0183060Y0013273D01*
X0183188Y0013872D02*
X0157627Y0013872D01*
X0157800Y0013455D02*
X0157069Y0015219D01*
X0155719Y0016569D01*
X0153955Y0017300D01*
X0152045Y0017300D01*
X0150281Y0016569D01*
X0148931Y0015219D01*
X0148200Y0013455D01*
X0148200Y0011545D01*
X0148931Y0009781D01*
X0150281Y0008431D01*
X0152045Y0007700D01*
X0153955Y0007700D01*
X0155719Y0008431D01*
X0157069Y0009781D01*
X0157800Y0011545D01*
X0157800Y0013455D01*
X0157379Y0014470D02*
X0183392Y0014470D01*
X0183697Y0015069D02*
X0157131Y0015069D01*
X0156621Y0015667D02*
X0184121Y0015667D01*
X0184695Y0016266D02*
X0156022Y0016266D01*
X0155007Y0016864D02*
X0185552Y0016864D01*
X0186173Y0018061D02*
X0089827Y0018061D01*
X0089919Y0017134D02*
X0089171Y0017377D01*
X0088394Y0017500D01*
X0088300Y0017500D01*
X0088300Y0012800D01*
X0093000Y0012800D01*
X0093000Y0012894D01*
X0092877Y0013671D01*
X0092634Y0014419D01*
X0092276Y0015121D01*
X0091814Y0015757D01*
X0091257Y0016314D01*
X0090621Y0016776D01*
X0089919Y0017134D01*
X0090448Y0016864D02*
X0100552Y0016864D01*
X0100379Y0016776D02*
X0099743Y0016314D01*
X0099186Y0015757D01*
X0098724Y0015121D01*
X0098366Y0014419D01*
X0098123Y0013671D01*
X0098000Y0012894D01*
X0098000Y0012800D01*
X0102700Y0012800D01*
X0102700Y0017500D01*
X0102606Y0017500D01*
X0101829Y0017377D01*
X0101081Y0017134D01*
X0100379Y0016776D01*
X0099695Y0016266D02*
X0091305Y0016266D01*
X0091879Y0015667D02*
X0099121Y0015667D01*
X0098697Y0015069D02*
X0092303Y0015069D01*
X0092608Y0014470D02*
X0098392Y0014470D01*
X0098188Y0013872D02*
X0092812Y0013872D01*
X0092940Y0013273D02*
X0098060Y0013273D01*
X0098000Y0012200D02*
X0098000Y0012106D01*
X0098123Y0011329D01*
X0098366Y0010581D01*
X0098724Y0009879D01*
X0099186Y0009243D01*
X0099743Y0008686D01*
X0100379Y0008224D01*
X0101081Y0007866D01*
X0101829Y0007623D01*
X0102606Y0007500D01*
X0102700Y0007500D01*
X0102700Y0012200D01*
X0098000Y0012200D01*
X0098005Y0012076D02*
X0092995Y0012076D01*
X0093000Y0012106D02*
X0093000Y0012200D01*
X0088300Y0012200D01*
X0088300Y0012800D01*
X0087700Y0012800D01*
X0087700Y0017500D01*
X0087606Y0017500D01*
X0086829Y0017377D01*
X0086081Y0017134D01*
X0085379Y0016776D01*
X0084743Y0016314D01*
X0084186Y0015757D01*
X0083724Y0015121D01*
X0083366Y0014419D01*
X0083123Y0013671D01*
X0083000Y0012894D01*
X0083000Y0012800D01*
X0087700Y0012800D01*
X0087700Y0012200D01*
X0088300Y0012200D01*
X0088300Y0007500D01*
X0088394Y0007500D01*
X0089171Y0007623D01*
X0089919Y0007866D01*
X0090621Y0008224D01*
X0091257Y0008686D01*
X0091814Y0009243D01*
X0092276Y0009879D01*
X0092634Y0010581D01*
X0092877Y0011329D01*
X0093000Y0012106D01*
X0092900Y0011478D02*
X0098100Y0011478D01*
X0098269Y0010879D02*
X0092731Y0010879D01*
X0092481Y0010281D02*
X0098519Y0010281D01*
X0098867Y0009682D02*
X0092133Y0009682D01*
X0091655Y0009084D02*
X0099345Y0009084D01*
X0100019Y0008485D02*
X0090980Y0008485D01*
X0089959Y0007887D02*
X0101041Y0007887D01*
X0102700Y0007887D02*
X0103300Y0007887D01*
X0103300Y0007500D02*
X0103394Y0007500D01*
X0104171Y0007623D01*
X0104919Y0007866D01*
X0105621Y0008224D01*
X0106257Y0008686D01*
X0106814Y0009243D01*
X0107276Y0009879D01*
X0107634Y0010581D01*
X0107877Y0011329D01*
X0108000Y0012106D01*
X0108000Y0012200D01*
X0103300Y0012200D01*
X0103300Y0012800D01*
X0102700Y0012800D01*
X0102700Y0012200D01*
X0103300Y0012200D01*
X0103300Y0007500D01*
X0103300Y0008485D02*
X0102700Y0008485D01*
X0102700Y0009084D02*
X0103300Y0009084D01*
X0103300Y0009682D02*
X0102700Y0009682D01*
X0102700Y0010281D02*
X0103300Y0010281D01*
X0103300Y0010879D02*
X0102700Y0010879D01*
X0102700Y0011478D02*
X0103300Y0011478D01*
X0103300Y0012076D02*
X0102700Y0012076D01*
X0102700Y0012675D02*
X0088300Y0012675D01*
X0088300Y0013273D02*
X0087700Y0013273D01*
X0087700Y0012675D02*
X0077800Y0012675D01*
X0077800Y0013273D02*
X0083060Y0013273D01*
X0083188Y0013872D02*
X0077627Y0013872D01*
X0077800Y0013455D02*
X0077069Y0015219D01*
X0075719Y0016569D01*
X0073955Y0017300D01*
X0072045Y0017300D01*
X0070281Y0016569D01*
X0068931Y0015219D01*
X0068200Y0013455D01*
X0068200Y0011545D01*
X0068931Y0009781D01*
X0070281Y0008431D01*
X0072045Y0007700D01*
X0073955Y0007700D01*
X0075719Y0008431D01*
X0077069Y0009781D01*
X0077800Y0011545D01*
X0077800Y0013455D01*
X0077379Y0014470D02*
X0083392Y0014470D01*
X0083697Y0015069D02*
X0077131Y0015069D01*
X0076621Y0015667D02*
X0084121Y0015667D01*
X0084695Y0016266D02*
X0076022Y0016266D01*
X0075007Y0016864D02*
X0085552Y0016864D01*
X0086173Y0018061D02*
X0074827Y0018061D01*
X0073955Y0017700D02*
X0075719Y0018431D01*
X0077069Y0019781D01*
X0077800Y0021545D01*
X0077800Y0023455D01*
X0077069Y0025219D01*
X0075719Y0026569D01*
X0073955Y0027300D01*
X0072045Y0027300D01*
X0070281Y0026569D01*
X0068931Y0025219D01*
X0068200Y0023455D01*
X0068200Y0021545D01*
X0068931Y0019781D01*
X0070281Y0018431D01*
X0072045Y0017700D01*
X0073955Y0017700D01*
X0075948Y0018660D02*
X0085052Y0018660D01*
X0085281Y0018431D02*
X0087045Y0017700D01*
X0088955Y0017700D01*
X0090719Y0018431D01*
X0092069Y0019781D01*
X0092800Y0021545D01*
X0092800Y0023455D01*
X0092069Y0025219D01*
X0090719Y0026569D01*
X0088955Y0027300D01*
X0087045Y0027300D01*
X0085281Y0026569D01*
X0083931Y0025219D01*
X0083200Y0023455D01*
X0083200Y0021545D01*
X0083931Y0019781D01*
X0085281Y0018431D01*
X0084453Y0019258D02*
X0076547Y0019258D01*
X0077101Y0019857D02*
X0083899Y0019857D01*
X0083651Y0020455D02*
X0077349Y0020455D01*
X0077596Y0021054D02*
X0083404Y0021054D01*
X0083200Y0021652D02*
X0077800Y0021652D01*
X0077800Y0022251D02*
X0083200Y0022251D01*
X0083200Y0022849D02*
X0077800Y0022849D01*
X0077800Y0023448D02*
X0083200Y0023448D01*
X0083445Y0024046D02*
X0077555Y0024046D01*
X0077307Y0024645D02*
X0083693Y0024645D01*
X0083955Y0025243D02*
X0077045Y0025243D01*
X0076446Y0025842D02*
X0084554Y0025842D01*
X0085152Y0026440D02*
X0075848Y0026440D01*
X0074585Y0027039D02*
X0086415Y0027039D01*
X0088380Y0029433D02*
X0072620Y0029433D01*
X0073219Y0030032D02*
X0087781Y0030032D01*
X0087183Y0030630D02*
X0073817Y0030630D01*
X0072021Y0028834D02*
X0088978Y0028834D01*
X0089577Y0028236D02*
X0071423Y0028236D01*
X0070824Y0027637D02*
X0090176Y0027637D01*
X0089585Y0027039D02*
X0090774Y0027039D01*
X0090848Y0026440D02*
X0091373Y0026440D01*
X0091446Y0025842D02*
X0091971Y0025842D01*
X0092045Y0025243D02*
X0092570Y0025243D01*
X0092307Y0024645D02*
X0093168Y0024645D01*
X0093767Y0024046D02*
X0092555Y0024046D01*
X0092800Y0023448D02*
X0094365Y0023448D01*
X0094964Y0022849D02*
X0092800Y0022849D01*
X0092800Y0022251D02*
X0095562Y0022251D01*
X0096161Y0021652D02*
X0092800Y0021652D01*
X0092596Y0021054D02*
X0096759Y0021054D01*
X0102372Y0017463D02*
X0088628Y0017463D01*
X0088300Y0017463D02*
X0087700Y0017463D01*
X0087372Y0017463D02*
X0035974Y0017463D01*
X0036369Y0018061D02*
X0051173Y0018061D01*
X0050993Y0016864D02*
X0035435Y0016864D01*
X0034679Y0016266D02*
X0049978Y0016266D01*
X0050052Y0018660D02*
X0036659Y0018660D01*
X0030418Y0025243D02*
X0012091Y0025243D01*
X0012297Y0025842D02*
X0030703Y0025842D01*
X0029271Y0026440D02*
X0013729Y0026440D01*
X0014327Y0027039D02*
X0028673Y0027039D01*
X0028074Y0027637D02*
X0014926Y0027637D01*
X0015258Y0028236D02*
X0027742Y0028236D01*
X0029198Y0024645D02*
X0013536Y0024645D01*
X0014242Y0024046D02*
X0028475Y0024046D01*
X0027961Y0023448D02*
X0014840Y0023448D01*
X0015222Y0022849D02*
X0027585Y0022849D01*
X0027312Y0022251D02*
X0015470Y0022251D01*
X0015718Y0021652D02*
X0027120Y0021652D01*
X0034729Y0026440D02*
X0050152Y0026440D01*
X0051415Y0027039D02*
X0035327Y0027039D01*
X0035926Y0027637D02*
X0055176Y0027637D01*
X0054585Y0027039D02*
X0055774Y0027039D01*
X0055848Y0026440D02*
X0056373Y0026440D01*
X0056446Y0025842D02*
X0056971Y0025842D01*
X0057045Y0025243D02*
X0057570Y0025243D01*
X0057307Y0024645D02*
X0058168Y0024645D01*
X0058445Y0024046D02*
X0057555Y0024046D01*
X0057800Y0023448D02*
X0058200Y0023448D01*
X0058200Y0022849D02*
X0057800Y0022849D01*
X0057800Y0022251D02*
X0058200Y0022251D01*
X0058200Y0021652D02*
X0057800Y0021652D01*
X0057596Y0021054D02*
X0058404Y0021054D01*
X0058651Y0020455D02*
X0057349Y0020455D01*
X0057101Y0019857D02*
X0058899Y0019857D01*
X0059453Y0019258D02*
X0056547Y0019258D01*
X0055948Y0018660D02*
X0060052Y0018660D01*
X0061173Y0018061D02*
X0054827Y0018061D01*
X0055007Y0016864D02*
X0060993Y0016864D01*
X0060281Y0016569D02*
X0062045Y0017300D01*
X0063955Y0017300D01*
X0065719Y0016569D01*
X0067069Y0015219D01*
X0067800Y0013455D01*
X0067800Y0011545D01*
X0067069Y0009781D01*
X0065719Y0008431D01*
X0063955Y0007700D01*
X0062045Y0007700D01*
X0060281Y0008431D01*
X0058931Y0009781D01*
X0058200Y0011545D01*
X0058200Y0013455D01*
X0058931Y0015219D01*
X0060281Y0016569D01*
X0059978Y0016266D02*
X0056022Y0016266D01*
X0056621Y0015667D02*
X0059379Y0015667D01*
X0058869Y0015069D02*
X0057131Y0015069D01*
X0057379Y0014470D02*
X0058621Y0014470D01*
X0058373Y0013872D02*
X0057627Y0013872D01*
X0057800Y0013273D02*
X0058200Y0013273D01*
X0058200Y0012675D02*
X0057800Y0012675D01*
X0057800Y0012076D02*
X0058200Y0012076D01*
X0058228Y0011478D02*
X0057772Y0011478D01*
X0057524Y0010879D02*
X0058476Y0010879D01*
X0058724Y0010281D02*
X0057276Y0010281D01*
X0056970Y0009682D02*
X0059030Y0009682D01*
X0059628Y0009084D02*
X0056372Y0009084D01*
X0055773Y0008485D02*
X0060227Y0008485D01*
X0061595Y0007887D02*
X0054405Y0007887D01*
X0064405Y0007887D02*
X0071595Y0007887D01*
X0070227Y0008485D02*
X0065773Y0008485D01*
X0066372Y0009084D02*
X0069628Y0009084D01*
X0069030Y0009682D02*
X0066970Y0009682D01*
X0067276Y0010281D02*
X0068724Y0010281D01*
X0068476Y0010879D02*
X0067524Y0010879D01*
X0067772Y0011478D02*
X0068228Y0011478D01*
X0068200Y0012076D02*
X0067800Y0012076D01*
X0067800Y0012675D02*
X0068200Y0012675D01*
X0068200Y0013273D02*
X0067800Y0013273D01*
X0067627Y0013872D02*
X0068373Y0013872D01*
X0068621Y0014470D02*
X0067379Y0014470D01*
X0067131Y0015069D02*
X0068869Y0015069D01*
X0069379Y0015667D02*
X0066621Y0015667D01*
X0066022Y0016266D02*
X0069978Y0016266D01*
X0070993Y0016864D02*
X0065007Y0016864D01*
X0064827Y0018061D02*
X0071173Y0018061D01*
X0070052Y0018660D02*
X0065948Y0018660D01*
X0066547Y0019258D02*
X0069453Y0019258D01*
X0068899Y0019857D02*
X0067101Y0019857D01*
X0067349Y0020455D02*
X0068651Y0020455D01*
X0068404Y0021054D02*
X0067596Y0021054D01*
X0067800Y0021652D02*
X0068200Y0021652D01*
X0068200Y0022251D02*
X0067800Y0022251D01*
X0067800Y0022849D02*
X0068200Y0022849D01*
X0068200Y0023448D02*
X0067800Y0023448D01*
X0067555Y0024046D02*
X0068445Y0024046D01*
X0068693Y0024645D02*
X0067832Y0024645D01*
X0068430Y0025243D02*
X0068955Y0025243D01*
X0069029Y0025842D02*
X0069554Y0025842D01*
X0069627Y0026440D02*
X0070152Y0026440D01*
X0070226Y0027039D02*
X0071415Y0027039D01*
X0067845Y0030032D02*
X0058155Y0030032D01*
X0057557Y0030630D02*
X0068443Y0030630D01*
X0069042Y0031229D02*
X0056958Y0031229D01*
X0056360Y0031827D02*
X0069640Y0031827D01*
X0070239Y0032426D02*
X0055761Y0032426D01*
X0055163Y0033024D02*
X0070837Y0033024D01*
X0071436Y0033623D02*
X0069921Y0033623D01*
X0069698Y0033400D02*
X0072100Y0035802D01*
X0072100Y0037200D01*
X0068300Y0037200D01*
X0068300Y0033400D01*
X0069698Y0033400D01*
X0070519Y0034221D02*
X0072034Y0034221D01*
X0071118Y0034820D02*
X0082365Y0034820D01*
X0081841Y0035418D02*
X0071716Y0035418D01*
X0072100Y0036017D02*
X0081593Y0036017D01*
X0081345Y0036615D02*
X0072100Y0036615D01*
X0072100Y0037812D02*
X0081300Y0037812D01*
X0081300Y0037214D02*
X0068300Y0037214D01*
X0068300Y0036615D02*
X0067700Y0036615D01*
X0067700Y0037200D02*
X0067700Y0033400D01*
X0066302Y0033400D01*
X0063900Y0035802D01*
X0063900Y0037200D01*
X0067700Y0037200D01*
X0067700Y0037214D02*
X0035502Y0037214D01*
X0036069Y0037781D02*
X0036800Y0039545D01*
X0036800Y0041455D01*
X0036069Y0043219D01*
X0034719Y0044569D01*
X0032955Y0045300D01*
X0031045Y0045300D01*
X0029281Y0044569D01*
X0027931Y0043219D01*
X0027200Y0041455D01*
X0027200Y0039545D01*
X0027931Y0037781D01*
X0029281Y0036431D01*
X0031045Y0035700D01*
X0032955Y0035700D01*
X0034719Y0036431D01*
X0036069Y0037781D01*
X0036082Y0037812D02*
X0063900Y0037812D01*
X0063900Y0038411D02*
X0036330Y0038411D01*
X0036578Y0039009D02*
X0063900Y0039009D01*
X0064309Y0039608D02*
X0036800Y0039608D01*
X0036800Y0040206D02*
X0064908Y0040206D01*
X0063900Y0036615D02*
X0034903Y0036615D01*
X0033719Y0036017D02*
X0063900Y0036017D01*
X0064284Y0035418D02*
X0024900Y0035418D01*
X0024900Y0034820D02*
X0029885Y0034820D01*
X0028933Y0034221D02*
X0024900Y0034221D01*
X0024900Y0033623D02*
X0028334Y0033623D01*
X0027850Y0033024D02*
X0024900Y0033024D01*
X0024900Y0032426D02*
X0027602Y0032426D01*
X0030281Y0036017D02*
X0024900Y0036017D01*
X0024900Y0036615D02*
X0029097Y0036615D01*
X0028498Y0037214D02*
X0024900Y0037214D01*
X0024900Y0037812D02*
X0027918Y0037812D01*
X0027670Y0038411D02*
X0024900Y0038411D01*
X0024900Y0039009D02*
X0027422Y0039009D01*
X0027200Y0039608D02*
X0024900Y0039608D01*
X0024900Y0040206D02*
X0027200Y0040206D01*
X0027200Y0040805D02*
X0024900Y0040805D01*
X0024900Y0041403D02*
X0027200Y0041403D01*
X0027427Y0042002D02*
X0024900Y0042002D01*
X0024900Y0042600D02*
X0027674Y0042600D01*
X0027922Y0043199D02*
X0024900Y0043199D01*
X0024900Y0043797D02*
X0028509Y0043797D01*
X0029108Y0044396D02*
X0024900Y0044396D01*
X0024900Y0044994D02*
X0030307Y0044994D01*
X0033693Y0044994D02*
X0051100Y0044994D01*
X0051100Y0044396D02*
X0034892Y0044396D01*
X0035491Y0043797D02*
X0051100Y0043797D01*
X0051100Y0043199D02*
X0036078Y0043199D01*
X0036326Y0042600D02*
X0051100Y0042600D01*
X0051100Y0042002D02*
X0036573Y0042002D01*
X0036800Y0041403D02*
X0051410Y0041403D01*
X0052008Y0040805D02*
X0036800Y0040805D01*
X0034115Y0034820D02*
X0064882Y0034820D01*
X0065481Y0034221D02*
X0053966Y0034221D01*
X0054564Y0033623D02*
X0066079Y0033623D01*
X0067700Y0033623D02*
X0068300Y0033623D01*
X0068300Y0034221D02*
X0067700Y0034221D01*
X0067700Y0034820D02*
X0068300Y0034820D01*
X0068300Y0035418D02*
X0067700Y0035418D01*
X0067700Y0036017D02*
X0068300Y0036017D01*
X0072100Y0038411D02*
X0081356Y0038411D01*
X0081604Y0039009D02*
X0072100Y0039009D01*
X0071691Y0039608D02*
X0081852Y0039608D01*
X0082391Y0040206D02*
X0071092Y0040206D01*
X0071010Y0044994D02*
X0082190Y0044994D01*
X0081769Y0045593D02*
X0071608Y0045593D01*
X0071900Y0046191D02*
X0081521Y0046191D01*
X0081300Y0046790D02*
X0071900Y0046790D01*
X0071900Y0047388D02*
X0081300Y0047388D01*
X0081300Y0047987D02*
X0071900Y0047987D01*
X0071900Y0048585D02*
X0081428Y0048585D01*
X0081676Y0049184D02*
X0071832Y0049184D01*
X0071233Y0049782D02*
X0081967Y0049782D01*
X0082565Y0050381D02*
X0070634Y0050381D01*
X0070036Y0050979D02*
X0083409Y0050979D01*
X0084424Y0053600D02*
X0091576Y0053600D01*
X0093009Y0054194D01*
X0094106Y0055291D01*
X0094700Y0056724D01*
X0094700Y0058276D01*
X0094106Y0059709D01*
X0093009Y0060806D01*
X0091576Y0061400D01*
X0084424Y0061400D01*
X0082991Y0060806D01*
X0081894Y0059709D01*
X0081766Y0059400D01*
X0074900Y0059400D01*
X0074900Y0071667D01*
X0075302Y0070697D01*
X0076197Y0069802D01*
X0077367Y0069317D01*
X0078633Y0069317D01*
X0079803Y0069802D01*
X0080601Y0070600D01*
X0082785Y0070600D01*
X0081894Y0069709D01*
X0081300Y0068276D01*
X0081300Y0066724D01*
X0081894Y0065291D01*
X0082991Y0064194D01*
X0084424Y0063600D01*
X0091576Y0063600D01*
X0093009Y0064194D01*
X0094106Y0065291D01*
X0094700Y0066724D01*
X0094700Y0068276D01*
X0094106Y0069709D01*
X0093215Y0070600D01*
X0100213Y0070600D01*
X0101100Y0069713D01*
X0101100Y0036713D01*
X0102213Y0035600D01*
X0111766Y0035600D01*
X0111894Y0035291D01*
X0112991Y0034194D01*
X0114424Y0033600D01*
X0121576Y0033600D01*
X0123009Y0034194D01*
X0124106Y0035291D01*
X0124700Y0036724D01*
X0124700Y0038276D01*
X0124106Y0039709D01*
X0123009Y0040806D01*
X0121576Y0041400D01*
X0114424Y0041400D01*
X0112991Y0040806D01*
X0111894Y0039709D01*
X0111766Y0039400D01*
X0104900Y0039400D01*
X0104900Y0071544D01*
X0103787Y0072657D01*
X0103044Y0073400D01*
X0102787Y0073400D01*
X0101787Y0074400D01*
X0093215Y0074400D01*
X0094106Y0075291D01*
X0094700Y0076724D01*
X0094700Y0078276D01*
X0094106Y0079709D01*
X0093009Y0080806D01*
X0091576Y0081400D01*
X0084424Y0081400D01*
X0082991Y0080806D01*
X0081894Y0079709D01*
X0081300Y0078276D01*
X0081300Y0076724D01*
X0081894Y0075291D01*
X0082785Y0074400D01*
X0080601Y0074400D01*
X0079803Y0075198D01*
X0078633Y0075683D01*
X0077367Y0075683D01*
X0076197Y0075198D01*
X0075302Y0074303D01*
X0074900Y0073333D01*
X0074900Y0173287D01*
X0073787Y0174400D01*
X0066900Y0181287D01*
X0066900Y0184115D01*
X0064615Y0186400D01*
X0061385Y0186400D01*
X0059100Y0184115D01*
X0059100Y0180885D01*
X0061385Y0178600D01*
X0064213Y0178600D01*
X0071100Y0171713D01*
X0071100Y0056713D01*
X0072213Y0055600D01*
X0081766Y0055600D01*
X0081894Y0055291D01*
X0082991Y0054194D01*
X0084424Y0053600D01*
X0083526Y0053972D02*
X0054900Y0053972D01*
X0054900Y0054570D02*
X0082614Y0054570D01*
X0082016Y0055169D02*
X0054900Y0055169D01*
X0054900Y0055768D02*
X0072045Y0055768D01*
X0071447Y0056366D02*
X0054900Y0056366D01*
X0054900Y0056965D02*
X0071100Y0056965D01*
X0071100Y0057563D02*
X0054900Y0057563D01*
X0054900Y0058162D02*
X0071100Y0058162D01*
X0071100Y0058760D02*
X0054900Y0058760D01*
X0054900Y0059359D02*
X0071100Y0059359D01*
X0071100Y0059957D02*
X0054900Y0059957D01*
X0054900Y0060556D02*
X0071100Y0060556D01*
X0071100Y0061154D02*
X0054900Y0061154D01*
X0054900Y0061753D02*
X0071100Y0061753D01*
X0071100Y0062351D02*
X0054900Y0062351D01*
X0054900Y0062950D02*
X0071100Y0062950D01*
X0071100Y0063548D02*
X0054900Y0063548D01*
X0054900Y0064147D02*
X0071100Y0064147D01*
X0071100Y0064745D02*
X0054900Y0064745D01*
X0054900Y0065344D02*
X0071100Y0065344D01*
X0071100Y0065942D02*
X0054900Y0065942D01*
X0054900Y0066541D02*
X0071100Y0066541D01*
X0071100Y0067139D02*
X0054900Y0067139D01*
X0054900Y0067738D02*
X0071100Y0067738D01*
X0071100Y0068336D02*
X0054900Y0068336D01*
X0054900Y0068935D02*
X0071100Y0068935D01*
X0071100Y0069533D02*
X0054900Y0069533D01*
X0054900Y0070132D02*
X0071100Y0070132D01*
X0071100Y0070730D02*
X0054900Y0070730D01*
X0054900Y0071329D02*
X0071100Y0071329D01*
X0071100Y0071927D02*
X0054900Y0071927D01*
X0054900Y0072526D02*
X0071100Y0072526D01*
X0071100Y0073124D02*
X0054900Y0073124D01*
X0054900Y0073723D02*
X0071100Y0073723D01*
X0071100Y0074321D02*
X0054900Y0074321D01*
X0054900Y0074920D02*
X0071100Y0074920D01*
X0071100Y0075518D02*
X0054900Y0075518D01*
X0054900Y0076117D02*
X0071100Y0076117D01*
X0071100Y0076715D02*
X0054900Y0076715D01*
X0054900Y0077314D02*
X0071100Y0077314D01*
X0071100Y0077912D02*
X0054900Y0077912D01*
X0054676Y0078511D02*
X0071100Y0078511D01*
X0071100Y0079109D02*
X0054078Y0079109D01*
X0053479Y0079708D02*
X0071100Y0079708D01*
X0071100Y0080306D02*
X0052881Y0080306D01*
X0052282Y0080905D02*
X0071100Y0080905D01*
X0071100Y0081503D02*
X0051683Y0081503D01*
X0051183Y0082102D02*
X0071100Y0082102D01*
X0071100Y0082701D02*
X0051183Y0082701D01*
X0051114Y0083299D02*
X0071100Y0083299D01*
X0071100Y0083898D02*
X0050866Y0083898D01*
X0050505Y0084496D02*
X0071100Y0084496D01*
X0071100Y0085095D02*
X0049906Y0085095D01*
X0046094Y0085095D02*
X0039900Y0085095D01*
X0039900Y0085693D02*
X0071100Y0085693D01*
X0071100Y0086292D02*
X0039900Y0086292D01*
X0039900Y0086890D02*
X0071100Y0086890D01*
X0071100Y0087489D02*
X0039900Y0087489D01*
X0039900Y0088087D02*
X0071100Y0088087D01*
X0071100Y0088686D02*
X0039900Y0088686D01*
X0039900Y0089284D02*
X0071100Y0089284D01*
X0071100Y0089883D02*
X0039900Y0089883D01*
X0039900Y0090481D02*
X0071100Y0090481D01*
X0071100Y0091080D02*
X0039900Y0091080D01*
X0039900Y0091678D02*
X0071100Y0091678D01*
X0071100Y0092277D02*
X0039900Y0092277D01*
X0039900Y0092875D02*
X0071100Y0092875D01*
X0071100Y0093474D02*
X0039900Y0093474D01*
X0039900Y0094072D02*
X0071100Y0094072D01*
X0071100Y0094671D02*
X0039900Y0094671D01*
X0039900Y0095269D02*
X0071100Y0095269D01*
X0071100Y0095868D02*
X0039900Y0095868D01*
X0039900Y0096466D02*
X0071100Y0096466D01*
X0071100Y0097065D02*
X0039900Y0097065D01*
X0039900Y0097663D02*
X0071100Y0097663D01*
X0071100Y0098262D02*
X0039900Y0098262D01*
X0039900Y0098860D02*
X0071100Y0098860D01*
X0071100Y0099459D02*
X0039900Y0099459D01*
X0039900Y0100057D02*
X0071100Y0100057D01*
X0071100Y0100656D02*
X0039900Y0100656D01*
X0039900Y0101254D02*
X0071100Y0101254D01*
X0071100Y0101853D02*
X0039900Y0101853D01*
X0039900Y0102451D02*
X0071100Y0102451D01*
X0071100Y0103050D02*
X0039900Y0103050D01*
X0039900Y0103648D02*
X0071100Y0103648D01*
X0071100Y0104247D02*
X0039900Y0104247D01*
X0039900Y0104845D02*
X0071100Y0104845D01*
X0071100Y0105444D02*
X0039900Y0105444D01*
X0039900Y0106042D02*
X0071100Y0106042D01*
X0071100Y0106641D02*
X0039900Y0106641D01*
X0039900Y0107239D02*
X0071100Y0107239D01*
X0071100Y0107838D02*
X0039900Y0107838D01*
X0039900Y0108437D02*
X0071100Y0108437D01*
X0071100Y0109035D02*
X0039900Y0109035D01*
X0039900Y0109634D02*
X0071100Y0109634D01*
X0071100Y0110232D02*
X0039900Y0110232D01*
X0039900Y0110831D02*
X0071100Y0110831D01*
X0071100Y0111429D02*
X0039900Y0111429D01*
X0039900Y0112028D02*
X0071100Y0112028D01*
X0071100Y0112626D02*
X0039900Y0112626D01*
X0039900Y0113225D02*
X0071100Y0113225D01*
X0071100Y0113823D02*
X0039900Y0113823D01*
X0039900Y0114422D02*
X0071100Y0114422D01*
X0071100Y0115020D02*
X0039900Y0115020D01*
X0039900Y0115619D02*
X0071100Y0115619D01*
X0071100Y0116217D02*
X0039900Y0116217D01*
X0039900Y0116816D02*
X0071100Y0116816D01*
X0071100Y0117414D02*
X0039900Y0117414D01*
X0039900Y0118013D02*
X0071100Y0118013D01*
X0071100Y0118611D02*
X0039900Y0118611D01*
X0039900Y0119210D02*
X0071100Y0119210D01*
X0071100Y0119808D02*
X0039900Y0119808D01*
X0039900Y0120407D02*
X0071100Y0120407D01*
X0071100Y0121005D02*
X0039900Y0121005D01*
X0039900Y0121604D02*
X0071100Y0121604D01*
X0071100Y0122202D02*
X0039900Y0122202D01*
X0039900Y0122801D02*
X0071100Y0122801D01*
X0071100Y0123399D02*
X0039900Y0123399D01*
X0039900Y0123998D02*
X0071100Y0123998D01*
X0071100Y0124596D02*
X0039900Y0124596D01*
X0039900Y0125195D02*
X0071100Y0125195D01*
X0071100Y0125793D02*
X0039900Y0125793D01*
X0039900Y0126392D02*
X0071100Y0126392D01*
X0071100Y0126990D02*
X0039900Y0126990D01*
X0039900Y0127589D02*
X0071100Y0127589D01*
X0071100Y0128187D02*
X0060423Y0128187D01*
X0059848Y0127613D02*
X0062250Y0130014D01*
X0062250Y0131413D01*
X0058450Y0131413D01*
X0058450Y0132013D01*
X0057850Y0132013D01*
X0057850Y0135813D01*
X0056451Y0135813D01*
X0054050Y0133411D01*
X0054050Y0132013D01*
X0057850Y0132013D01*
X0057850Y0131413D01*
X0054050Y0131413D01*
X0054050Y0130014D01*
X0056451Y0127613D01*
X0057850Y0127613D01*
X0057850Y0131413D01*
X0058450Y0131413D01*
X0058450Y0127613D01*
X0059848Y0127613D01*
X0058450Y0128187D02*
X0057850Y0128187D01*
X0057850Y0128786D02*
X0058450Y0128786D01*
X0058450Y0129384D02*
X0057850Y0129384D01*
X0057850Y0129983D02*
X0058450Y0129983D01*
X0058450Y0130581D02*
X0057850Y0130581D01*
X0057850Y0131180D02*
X0058450Y0131180D01*
X0058450Y0131778D02*
X0071100Y0131778D01*
X0071100Y0131180D02*
X0062250Y0131180D01*
X0062250Y0130581D02*
X0071100Y0130581D01*
X0071100Y0129983D02*
X0062218Y0129983D01*
X0061620Y0129384D02*
X0071100Y0129384D01*
X0071100Y0128786D02*
X0061021Y0128786D01*
X0062250Y0132013D02*
X0058450Y0132013D01*
X0058450Y0135813D01*
X0059848Y0135813D01*
X0062250Y0133411D01*
X0062250Y0132013D01*
X0062250Y0132377D02*
X0071100Y0132377D01*
X0071100Y0132975D02*
X0062250Y0132975D01*
X0062086Y0133574D02*
X0071100Y0133574D01*
X0071100Y0134172D02*
X0061488Y0134172D01*
X0060889Y0134771D02*
X0071100Y0134771D01*
X0071100Y0135370D02*
X0060291Y0135370D01*
X0058450Y0135370D02*
X0057850Y0135370D01*
X0057850Y0134771D02*
X0058450Y0134771D01*
X0058450Y0134172D02*
X0057850Y0134172D01*
X0057850Y0133574D02*
X0058450Y0133574D01*
X0058450Y0132975D02*
X0057850Y0132975D01*
X0057850Y0132377D02*
X0058450Y0132377D01*
X0057850Y0131778D02*
X0041900Y0131778D01*
X0041900Y0131180D02*
X0054050Y0131180D01*
X0054050Y0130581D02*
X0041597Y0130581D01*
X0041900Y0130885D02*
X0039900Y0128885D01*
X0039900Y0070101D01*
X0040698Y0069303D01*
X0041183Y0068133D01*
X0041183Y0066867D01*
X0040698Y0065697D01*
X0039803Y0064802D01*
X0038633Y0064317D01*
X0037367Y0064317D01*
X0036197Y0064802D01*
X0035302Y0065697D01*
X0034817Y0066867D01*
X0034817Y0068133D01*
X0035302Y0069303D01*
X0036100Y0070101D01*
X0036100Y0128885D01*
X0034385Y0130600D01*
X0032213Y0130600D01*
X0031100Y0131713D01*
X0026100Y0136713D01*
X0026100Y0171713D01*
X0014774Y0183039D01*
X0013955Y0182700D01*
X0012045Y0182700D01*
X0010281Y0183431D01*
X0008931Y0184781D01*
X0008200Y0186545D01*
X0008200Y0188455D01*
X0008931Y0190219D01*
X0010281Y0191569D01*
X0012045Y0192300D01*
X0013955Y0192300D01*
X0015719Y0191569D01*
X0017069Y0190219D01*
X0017800Y0188455D01*
X0017800Y0186545D01*
X0017461Y0185726D01*
X0028787Y0174400D01*
X0029900Y0173287D01*
X0029900Y0138287D01*
X0033787Y0134400D01*
X0034385Y0134400D01*
X0036385Y0136400D01*
X0039615Y0136400D01*
X0041900Y0134115D01*
X0041900Y0130885D01*
X0040998Y0129983D02*
X0054081Y0129983D01*
X0054680Y0129384D02*
X0040400Y0129384D01*
X0039900Y0128786D02*
X0055278Y0128786D01*
X0055877Y0128187D02*
X0039900Y0128187D01*
X0036100Y0128187D02*
X0017800Y0128187D01*
X0017800Y0128455D02*
X0017800Y0126545D01*
X0017069Y0124781D01*
X0015719Y0123431D01*
X0013955Y0122700D01*
X0012045Y0122700D01*
X0010281Y0123431D01*
X0008931Y0124781D01*
X0008200Y0126545D01*
X0008200Y0128455D01*
X0008931Y0130219D01*
X0010281Y0131569D01*
X0012045Y0132300D01*
X0013955Y0132300D01*
X0015719Y0131569D01*
X0017069Y0130219D01*
X0017800Y0128455D01*
X0017663Y0128786D02*
X0036100Y0128786D01*
X0035600Y0129384D02*
X0017415Y0129384D01*
X0017167Y0129983D02*
X0035002Y0129983D01*
X0034403Y0130581D02*
X0016707Y0130581D01*
X0016108Y0131180D02*
X0031633Y0131180D01*
X0031035Y0131778D02*
X0015214Y0131778D01*
X0014620Y0132975D02*
X0029838Y0132975D01*
X0030436Y0132377D02*
X0004100Y0132377D01*
X0004100Y0132975D02*
X0011380Y0132975D01*
X0012045Y0132700D02*
X0013955Y0132700D01*
X0015719Y0133431D01*
X0017069Y0134781D01*
X0017800Y0136545D01*
X0017800Y0138455D01*
X0017069Y0140219D01*
X0015719Y0141569D01*
X0013955Y0142300D01*
X0012045Y0142300D01*
X0010281Y0141569D01*
X0008931Y0140219D01*
X0008200Y0138455D01*
X0008200Y0136545D01*
X0008931Y0134781D01*
X0010281Y0133431D01*
X0012045Y0132700D01*
X0010786Y0131778D02*
X0004100Y0131778D01*
X0004100Y0131180D02*
X0009892Y0131180D01*
X0009293Y0130581D02*
X0004100Y0130581D01*
X0004100Y0129983D02*
X0008833Y0129983D01*
X0008585Y0129384D02*
X0004100Y0129384D01*
X0004100Y0128786D02*
X0008337Y0128786D01*
X0008200Y0128187D02*
X0004100Y0128187D01*
X0004100Y0127589D02*
X0008200Y0127589D01*
X0008200Y0126990D02*
X0004100Y0126990D01*
X0004100Y0126392D02*
X0008264Y0126392D01*
X0008511Y0125793D02*
X0004100Y0125793D01*
X0004100Y0125195D02*
X0008759Y0125195D01*
X0009115Y0124596D02*
X0004100Y0124596D01*
X0004100Y0123998D02*
X0009714Y0123998D01*
X0010357Y0123399D02*
X0004100Y0123399D01*
X0004100Y0122801D02*
X0011802Y0122801D01*
X0012045Y0122300D02*
X0010281Y0121569D01*
X0008931Y0120219D01*
X0008200Y0118455D01*
X0008200Y0116545D01*
X0008931Y0114781D01*
X0010281Y0113431D01*
X0012045Y0112700D01*
X0013955Y0112700D01*
X0015719Y0113431D01*
X0017069Y0114781D01*
X0017800Y0116545D01*
X0017800Y0118455D01*
X0017069Y0120219D01*
X0015719Y0121569D01*
X0013955Y0122300D01*
X0012045Y0122300D01*
X0011809Y0122202D02*
X0004100Y0122202D01*
X0004100Y0121604D02*
X0010364Y0121604D01*
X0009717Y0121005D02*
X0004100Y0121005D01*
X0004100Y0120407D02*
X0009119Y0120407D01*
X0008761Y0119808D02*
X0004100Y0119808D01*
X0004100Y0119210D02*
X0008513Y0119210D01*
X0008265Y0118611D02*
X0004100Y0118611D01*
X0004100Y0118013D02*
X0008200Y0118013D01*
X0008200Y0117414D02*
X0004100Y0117414D01*
X0004100Y0116816D02*
X0008200Y0116816D01*
X0008336Y0116217D02*
X0004100Y0116217D01*
X0004100Y0115619D02*
X0008584Y0115619D01*
X0008832Y0115020D02*
X0004100Y0115020D01*
X0004100Y0114422D02*
X0009290Y0114422D01*
X0009889Y0113823D02*
X0004100Y0113823D01*
X0004100Y0113225D02*
X0010779Y0113225D01*
X0011388Y0112028D02*
X0004100Y0112028D01*
X0004100Y0112626D02*
X0036100Y0112626D01*
X0036100Y0112028D02*
X0014612Y0112028D01*
X0013955Y0112300D02*
X0015719Y0111569D01*
X0017069Y0110219D01*
X0017800Y0108455D01*
X0017800Y0106545D01*
X0017069Y0104781D01*
X0015719Y0103431D01*
X0013955Y0102700D01*
X0012045Y0102700D01*
X0010281Y0103431D01*
X0008931Y0104781D01*
X0008200Y0106545D01*
X0008200Y0108455D01*
X0008931Y0110219D01*
X0010281Y0111569D01*
X0012045Y0112300D01*
X0013955Y0112300D01*
X0015221Y0113225D02*
X0036100Y0113225D01*
X0036100Y0113823D02*
X0016111Y0113823D01*
X0016710Y0114422D02*
X0036100Y0114422D01*
X0036100Y0115020D02*
X0017168Y0115020D01*
X0017416Y0115619D02*
X0036100Y0115619D01*
X0036100Y0116217D02*
X0017664Y0116217D01*
X0017800Y0116816D02*
X0036100Y0116816D01*
X0036100Y0117414D02*
X0017800Y0117414D01*
X0017800Y0118013D02*
X0036100Y0118013D01*
X0036100Y0118611D02*
X0017735Y0118611D01*
X0017487Y0119210D02*
X0036100Y0119210D01*
X0036100Y0119808D02*
X0017239Y0119808D01*
X0016881Y0120407D02*
X0036100Y0120407D01*
X0036100Y0121005D02*
X0016283Y0121005D01*
X0015636Y0121604D02*
X0036100Y0121604D01*
X0036100Y0122202D02*
X0014191Y0122202D01*
X0014198Y0122801D02*
X0036100Y0122801D01*
X0036100Y0123399D02*
X0015643Y0123399D01*
X0016286Y0123998D02*
X0036100Y0123998D01*
X0036100Y0124596D02*
X0016885Y0124596D01*
X0017241Y0125195D02*
X0036100Y0125195D01*
X0036100Y0125793D02*
X0017489Y0125793D01*
X0017736Y0126392D02*
X0036100Y0126392D01*
X0036100Y0126990D02*
X0017800Y0126990D01*
X0017800Y0127589D02*
X0036100Y0127589D01*
X0041900Y0132377D02*
X0054050Y0132377D01*
X0054050Y0132975D02*
X0041900Y0132975D01*
X0041900Y0133574D02*
X0054213Y0133574D01*
X0054811Y0134172D02*
X0041843Y0134172D01*
X0041244Y0134771D02*
X0055410Y0134771D01*
X0056008Y0135370D02*
X0040646Y0135370D01*
X0040047Y0135968D02*
X0071100Y0135968D01*
X0071100Y0136567D02*
X0031620Y0136567D01*
X0031022Y0137165D02*
X0071100Y0137165D01*
X0071100Y0137764D02*
X0030423Y0137764D01*
X0029900Y0138362D02*
X0071100Y0138362D01*
X0071100Y0138961D02*
X0029900Y0138961D01*
X0029900Y0139559D02*
X0071100Y0139559D01*
X0071100Y0140158D02*
X0029900Y0140158D01*
X0029900Y0140756D02*
X0071100Y0140756D01*
X0071100Y0141355D02*
X0029900Y0141355D01*
X0029900Y0141953D02*
X0071100Y0141953D01*
X0071100Y0142552D02*
X0029900Y0142552D01*
X0029900Y0143150D02*
X0071100Y0143150D01*
X0071100Y0143749D02*
X0029900Y0143749D01*
X0029900Y0144347D02*
X0071100Y0144347D01*
X0071100Y0144946D02*
X0029900Y0144946D01*
X0029900Y0145544D02*
X0071100Y0145544D01*
X0071100Y0146143D02*
X0029900Y0146143D01*
X0029900Y0146741D02*
X0071100Y0146741D01*
X0071100Y0147340D02*
X0029900Y0147340D01*
X0029900Y0147938D02*
X0071100Y0147938D01*
X0071100Y0148537D02*
X0029900Y0148537D01*
X0029900Y0149135D02*
X0071100Y0149135D01*
X0071100Y0149734D02*
X0029900Y0149734D01*
X0029900Y0150332D02*
X0071100Y0150332D01*
X0071100Y0150931D02*
X0029900Y0150931D01*
X0029900Y0151529D02*
X0071100Y0151529D01*
X0071100Y0152128D02*
X0029900Y0152128D01*
X0029900Y0152726D02*
X0071100Y0152726D01*
X0071100Y0153325D02*
X0029900Y0153325D01*
X0029900Y0153923D02*
X0071100Y0153923D01*
X0071100Y0154522D02*
X0029900Y0154522D01*
X0029900Y0155120D02*
X0071100Y0155120D01*
X0071100Y0155719D02*
X0029900Y0155719D01*
X0029900Y0156317D02*
X0071100Y0156317D01*
X0071100Y0156916D02*
X0029900Y0156916D01*
X0029900Y0157514D02*
X0071100Y0157514D01*
X0071100Y0158113D02*
X0029900Y0158113D01*
X0029900Y0158711D02*
X0071100Y0158711D01*
X0071100Y0159310D02*
X0029900Y0159310D01*
X0029900Y0159908D02*
X0071100Y0159908D01*
X0071100Y0160507D02*
X0029900Y0160507D01*
X0029900Y0161105D02*
X0071100Y0161105D01*
X0071100Y0161704D02*
X0029900Y0161704D01*
X0029900Y0162303D02*
X0071100Y0162303D01*
X0071100Y0162901D02*
X0029900Y0162901D01*
X0029900Y0163500D02*
X0071100Y0163500D01*
X0071100Y0164098D02*
X0029900Y0164098D01*
X0029900Y0164697D02*
X0071100Y0164697D01*
X0071100Y0165295D02*
X0029900Y0165295D01*
X0029900Y0165894D02*
X0071100Y0165894D01*
X0071100Y0166492D02*
X0029900Y0166492D01*
X0029900Y0167091D02*
X0071100Y0167091D01*
X0071100Y0167689D02*
X0029900Y0167689D01*
X0029900Y0168288D02*
X0056059Y0168288D01*
X0056534Y0167813D02*
X0054250Y0170097D01*
X0054250Y0173328D01*
X0056250Y0175328D01*
X0056250Y0176563D01*
X0054213Y0178600D01*
X0051385Y0178600D01*
X0049100Y0180885D01*
X0049100Y0184115D01*
X0051385Y0186400D01*
X0054615Y0186400D01*
X0056900Y0184115D01*
X0056900Y0181287D01*
X0058937Y0179250D01*
X0060050Y0178137D01*
X0060050Y0175328D01*
X0062050Y0173328D01*
X0062050Y0170097D01*
X0059765Y0167813D01*
X0056534Y0167813D01*
X0055461Y0168886D02*
X0039902Y0168886D01*
X0039615Y0168600D02*
X0041900Y0170885D01*
X0041900Y0174115D01*
X0039615Y0176400D01*
X0036385Y0176400D01*
X0034100Y0174115D01*
X0034100Y0170885D01*
X0036385Y0168600D01*
X0039615Y0168600D01*
X0040500Y0169485D02*
X0054862Y0169485D01*
X0054264Y0170083D02*
X0041099Y0170083D01*
X0041697Y0170682D02*
X0054250Y0170682D01*
X0054250Y0171280D02*
X0041900Y0171280D01*
X0041900Y0171879D02*
X0054250Y0171879D01*
X0054250Y0172477D02*
X0041900Y0172477D01*
X0041900Y0173076D02*
X0054250Y0173076D01*
X0054596Y0173674D02*
X0041900Y0173674D01*
X0041743Y0174273D02*
X0055194Y0174273D01*
X0055793Y0174871D02*
X0041144Y0174871D01*
X0040546Y0175470D02*
X0056250Y0175470D01*
X0056250Y0176068D02*
X0039947Y0176068D01*
X0036053Y0176068D02*
X0027119Y0176068D01*
X0027717Y0175470D02*
X0035454Y0175470D01*
X0034856Y0174871D02*
X0028316Y0174871D01*
X0028914Y0174273D02*
X0034257Y0174273D01*
X0034100Y0173674D02*
X0029513Y0173674D01*
X0029900Y0173076D02*
X0034100Y0173076D01*
X0034100Y0172477D02*
X0029900Y0172477D01*
X0029900Y0171879D02*
X0034100Y0171879D01*
X0034100Y0171280D02*
X0029900Y0171280D01*
X0029900Y0170682D02*
X0034303Y0170682D01*
X0034901Y0170083D02*
X0029900Y0170083D01*
X0029900Y0169485D02*
X0035500Y0169485D01*
X0036098Y0168886D02*
X0029900Y0168886D01*
X0026100Y0168886D02*
X0004100Y0168886D01*
X0004100Y0168288D02*
X0026100Y0168288D01*
X0026100Y0167689D02*
X0004100Y0167689D01*
X0004100Y0167091D02*
X0026100Y0167091D01*
X0026100Y0166492D02*
X0004100Y0166492D01*
X0004100Y0165894D02*
X0026100Y0165894D01*
X0026100Y0165295D02*
X0004100Y0165295D01*
X0004100Y0164697D02*
X0026100Y0164697D01*
X0026100Y0164098D02*
X0004100Y0164098D01*
X0004100Y0163500D02*
X0026100Y0163500D01*
X0026100Y0162901D02*
X0004100Y0162901D01*
X0004100Y0162303D02*
X0026100Y0162303D01*
X0026100Y0161704D02*
X0004100Y0161704D01*
X0004100Y0161105D02*
X0026100Y0161105D01*
X0026100Y0160507D02*
X0004100Y0160507D01*
X0004100Y0159908D02*
X0026100Y0159908D01*
X0026100Y0159310D02*
X0004100Y0159310D01*
X0004100Y0158711D02*
X0026100Y0158711D01*
X0026100Y0158113D02*
X0004100Y0158113D01*
X0004100Y0157514D02*
X0026100Y0157514D01*
X0026100Y0156916D02*
X0004100Y0156916D01*
X0004100Y0156317D02*
X0026100Y0156317D01*
X0026100Y0155719D02*
X0004100Y0155719D01*
X0004100Y0155120D02*
X0026100Y0155120D01*
X0026100Y0154522D02*
X0004100Y0154522D01*
X0004100Y0153923D02*
X0026100Y0153923D01*
X0026100Y0153325D02*
X0004100Y0153325D01*
X0004100Y0152726D02*
X0026100Y0152726D01*
X0026100Y0152128D02*
X0014370Y0152128D01*
X0013955Y0152300D02*
X0015719Y0151569D01*
X0017069Y0150219D01*
X0017800Y0148455D01*
X0017800Y0146545D01*
X0017069Y0144781D01*
X0015719Y0143431D01*
X0013955Y0142700D01*
X0012045Y0142700D01*
X0010281Y0143431D01*
X0008931Y0144781D01*
X0008200Y0146545D01*
X0008200Y0148455D01*
X0008931Y0150219D01*
X0010281Y0151569D01*
X0012045Y0152300D01*
X0013955Y0152300D01*
X0015759Y0151529D02*
X0026100Y0151529D01*
X0026100Y0150931D02*
X0016357Y0150931D01*
X0016956Y0150332D02*
X0026100Y0150332D01*
X0026100Y0149734D02*
X0017270Y0149734D01*
X0017518Y0149135D02*
X0026100Y0149135D01*
X0026100Y0148537D02*
X0017766Y0148537D01*
X0017800Y0147938D02*
X0026100Y0147938D01*
X0026100Y0147340D02*
X0017800Y0147340D01*
X0017800Y0146741D02*
X0026100Y0146741D01*
X0026100Y0146143D02*
X0017633Y0146143D01*
X0017385Y0145544D02*
X0026100Y0145544D01*
X0026100Y0144946D02*
X0017137Y0144946D01*
X0016635Y0144347D02*
X0026100Y0144347D01*
X0026100Y0143749D02*
X0016037Y0143749D01*
X0015042Y0143150D02*
X0026100Y0143150D01*
X0026100Y0142552D02*
X0004100Y0142552D01*
X0004100Y0143150D02*
X0010958Y0143150D01*
X0009963Y0143749D02*
X0004100Y0143749D01*
X0004100Y0144347D02*
X0009365Y0144347D01*
X0008863Y0144946D02*
X0004100Y0144946D01*
X0004100Y0145544D02*
X0008615Y0145544D01*
X0008367Y0146143D02*
X0004100Y0146143D01*
X0004100Y0146741D02*
X0008200Y0146741D01*
X0008200Y0147340D02*
X0004100Y0147340D01*
X0004100Y0147938D02*
X0008200Y0147938D01*
X0008234Y0148537D02*
X0004100Y0148537D01*
X0004100Y0149135D02*
X0008482Y0149135D01*
X0008730Y0149734D02*
X0004100Y0149734D01*
X0004100Y0150332D02*
X0009044Y0150332D01*
X0009643Y0150931D02*
X0004100Y0150931D01*
X0004100Y0151529D02*
X0010241Y0151529D01*
X0011630Y0152128D02*
X0004100Y0152128D01*
X0004100Y0141953D02*
X0011208Y0141953D01*
X0010066Y0141355D02*
X0004100Y0141355D01*
X0004100Y0140756D02*
X0009468Y0140756D01*
X0008905Y0140158D02*
X0004100Y0140158D01*
X0004100Y0139559D02*
X0008657Y0139559D01*
X0008410Y0138961D02*
X0004100Y0138961D01*
X0004100Y0138362D02*
X0008200Y0138362D01*
X0008200Y0137764D02*
X0004100Y0137764D01*
X0004100Y0137165D02*
X0008200Y0137165D01*
X0008200Y0136567D02*
X0004100Y0136567D01*
X0004100Y0135968D02*
X0008439Y0135968D01*
X0008687Y0135370D02*
X0004100Y0135370D01*
X0004100Y0134771D02*
X0008941Y0134771D01*
X0009539Y0134172D02*
X0004100Y0134172D01*
X0004100Y0133574D02*
X0010138Y0133574D01*
X0015862Y0133574D02*
X0029239Y0133574D01*
X0028641Y0134172D02*
X0016461Y0134172D01*
X0017059Y0134771D02*
X0028042Y0134771D01*
X0027443Y0135370D02*
X0017313Y0135370D01*
X0017561Y0135968D02*
X0026845Y0135968D01*
X0026246Y0136567D02*
X0017800Y0136567D01*
X0017800Y0137165D02*
X0026100Y0137165D01*
X0026100Y0137764D02*
X0017800Y0137764D01*
X0017800Y0138362D02*
X0026100Y0138362D01*
X0026100Y0138961D02*
X0017590Y0138961D01*
X0017343Y0139559D02*
X0026100Y0139559D01*
X0026100Y0140158D02*
X0017095Y0140158D01*
X0016532Y0140756D02*
X0026100Y0140756D01*
X0026100Y0141355D02*
X0015934Y0141355D01*
X0014792Y0141953D02*
X0026100Y0141953D01*
X0032219Y0135968D02*
X0035953Y0135968D01*
X0035354Y0135370D02*
X0032817Y0135370D01*
X0033416Y0134771D02*
X0034756Y0134771D01*
X0036100Y0111429D02*
X0015859Y0111429D01*
X0016458Y0110831D02*
X0036100Y0110831D01*
X0036100Y0110232D02*
X0017056Y0110232D01*
X0017312Y0109634D02*
X0036100Y0109634D01*
X0036100Y0109035D02*
X0017560Y0109035D01*
X0017800Y0108437D02*
X0036100Y0108437D01*
X0036100Y0107838D02*
X0017800Y0107838D01*
X0017800Y0107239D02*
X0036100Y0107239D01*
X0036100Y0106641D02*
X0017800Y0106641D01*
X0017592Y0106042D02*
X0036100Y0106042D01*
X0036100Y0105444D02*
X0017344Y0105444D01*
X0017096Y0104845D02*
X0036100Y0104845D01*
X0036100Y0104247D02*
X0016535Y0104247D01*
X0015937Y0103648D02*
X0036100Y0103648D01*
X0036100Y0103050D02*
X0014799Y0103050D01*
X0013955Y0102300D02*
X0012045Y0102300D01*
X0010281Y0101569D01*
X0008931Y0100219D01*
X0008200Y0098455D01*
X0008200Y0096545D01*
X0008931Y0094781D01*
X0010281Y0093431D01*
X0012045Y0092700D01*
X0013955Y0092700D01*
X0015719Y0093431D01*
X0017069Y0094781D01*
X0017800Y0096545D01*
X0017800Y0098455D01*
X0017069Y0100219D01*
X0015719Y0101569D01*
X0013955Y0102300D01*
X0015034Y0101853D02*
X0036100Y0101853D01*
X0036100Y0102451D02*
X0004100Y0102451D01*
X0004100Y0101853D02*
X0010966Y0101853D01*
X0009966Y0101254D02*
X0004100Y0101254D01*
X0004100Y0100656D02*
X0009368Y0100656D01*
X0008864Y0100057D02*
X0004100Y0100057D01*
X0004100Y0099459D02*
X0008616Y0099459D01*
X0008368Y0098860D02*
X0004100Y0098860D01*
X0004100Y0098262D02*
X0008200Y0098262D01*
X0008200Y0097663D02*
X0004100Y0097663D01*
X0004100Y0097065D02*
X0008200Y0097065D01*
X0008233Y0096466D02*
X0004100Y0096466D01*
X0004100Y0095868D02*
X0008481Y0095868D01*
X0008729Y0095269D02*
X0004100Y0095269D01*
X0004100Y0094671D02*
X0009041Y0094671D01*
X0009640Y0094072D02*
X0004100Y0094072D01*
X0004100Y0093474D02*
X0010238Y0093474D01*
X0011622Y0092875D02*
X0004100Y0092875D01*
X0004100Y0092277D02*
X0011989Y0092277D01*
X0010544Y0091678D02*
X0004100Y0091678D01*
X0004100Y0091080D02*
X0009791Y0091080D01*
X0009193Y0090481D02*
X0004100Y0090481D01*
X0004100Y0089883D02*
X0008791Y0089883D01*
X0008544Y0089284D02*
X0004100Y0089284D01*
X0004100Y0088686D02*
X0008296Y0088686D01*
X0008200Y0088087D02*
X0004100Y0088087D01*
X0004100Y0087489D02*
X0008200Y0087489D01*
X0008200Y0086890D02*
X0004100Y0086890D01*
X0004100Y0086292D02*
X0008305Y0086292D01*
X0008553Y0085693D02*
X0004100Y0085693D01*
X0004100Y0085095D02*
X0008801Y0085095D01*
X0009216Y0084496D02*
X0004100Y0084496D01*
X0004100Y0083898D02*
X0009814Y0083898D01*
X0010599Y0083299D02*
X0004100Y0083299D01*
X0004100Y0082701D02*
X0012044Y0082701D01*
X0012045Y0082300D02*
X0010281Y0081569D01*
X0008931Y0080219D01*
X0008200Y0078455D01*
X0008200Y0076545D01*
X0008931Y0074781D01*
X0010281Y0073431D01*
X0012045Y0072700D01*
X0013955Y0072700D01*
X0015719Y0073431D01*
X0017069Y0074781D01*
X0017800Y0076545D01*
X0017800Y0078455D01*
X0017069Y0080219D01*
X0015719Y0081569D01*
X0013955Y0082300D01*
X0012045Y0082300D01*
X0011567Y0082102D02*
X0004100Y0082102D01*
X0004100Y0081503D02*
X0010215Y0081503D01*
X0009617Y0080905D02*
X0004100Y0080905D01*
X0004100Y0080306D02*
X0009018Y0080306D01*
X0008719Y0079708D02*
X0004100Y0079708D01*
X0004100Y0079109D02*
X0008471Y0079109D01*
X0008223Y0078511D02*
X0004100Y0078511D01*
X0004100Y0077912D02*
X0008200Y0077912D01*
X0008200Y0077314D02*
X0004100Y0077314D01*
X0004100Y0076715D02*
X0008200Y0076715D01*
X0008377Y0076117D02*
X0004100Y0076117D01*
X0004100Y0075518D02*
X0008625Y0075518D01*
X0008873Y0074920D02*
X0004100Y0074920D01*
X0004100Y0074321D02*
X0009390Y0074321D01*
X0009989Y0073723D02*
X0004100Y0073723D01*
X0004100Y0073124D02*
X0011021Y0073124D01*
X0011081Y0072134D02*
X0011829Y0072377D01*
X0012606Y0072500D01*
X0012700Y0072500D01*
X0012700Y0067800D01*
X0013300Y0067800D01*
X0018000Y0067800D01*
X0018000Y0067894D01*
X0017877Y0068671D01*
X0017634Y0069419D01*
X0017276Y0070121D01*
X0016814Y0070757D01*
X0016257Y0071314D01*
X0015621Y0071776D01*
X0014919Y0072134D01*
X0014171Y0072377D01*
X0013394Y0072500D01*
X0013300Y0072500D01*
X0013300Y0067800D01*
X0013300Y0067200D01*
X0018000Y0067200D01*
X0018000Y0067106D01*
X0017877Y0066329D01*
X0017634Y0065581D01*
X0017276Y0064879D01*
X0016814Y0064243D01*
X0016257Y0063686D01*
X0015621Y0063224D01*
X0014919Y0062866D01*
X0014171Y0062623D01*
X0013394Y0062500D01*
X0013300Y0062500D01*
X0013300Y0057800D01*
X0018000Y0057800D01*
X0018000Y0057894D01*
X0017877Y0058671D01*
X0017634Y0059419D01*
X0017276Y0060121D01*
X0016814Y0060757D01*
X0016257Y0061314D01*
X0015621Y0061776D01*
X0014919Y0062134D01*
X0014171Y0062377D01*
X0013394Y0062500D01*
X0013300Y0062500D01*
X0013300Y0067200D01*
X0012700Y0067200D01*
X0012700Y0062500D01*
X0012606Y0062500D01*
X0011829Y0062377D01*
X0011081Y0062134D01*
X0010379Y0061776D01*
X0009743Y0061314D01*
X0009186Y0060757D01*
X0008724Y0060121D01*
X0008366Y0059419D01*
X0008123Y0058671D01*
X0008000Y0057894D01*
X0008000Y0057800D01*
X0012700Y0057800D01*
X0012700Y0062500D01*
X0012606Y0062500D01*
X0011829Y0062623D01*
X0011081Y0062866D01*
X0010379Y0063224D01*
X0009743Y0063686D01*
X0009186Y0064243D01*
X0008724Y0064879D01*
X0008366Y0065581D01*
X0008123Y0066329D01*
X0008000Y0067106D01*
X0008000Y0067200D01*
X0012700Y0067200D01*
X0012700Y0067800D01*
X0008000Y0067800D01*
X0008000Y0067894D01*
X0008123Y0068671D01*
X0008366Y0069419D01*
X0008724Y0070121D01*
X0009186Y0070757D01*
X0009743Y0071314D01*
X0010379Y0071776D01*
X0011081Y0072134D01*
X0010676Y0071927D02*
X0004100Y0071927D01*
X0004100Y0071329D02*
X0009763Y0071329D01*
X0009167Y0070730D02*
X0004100Y0070730D01*
X0004100Y0070132D02*
X0008732Y0070132D01*
X0008424Y0069533D02*
X0004100Y0069533D01*
X0004100Y0068935D02*
X0008209Y0068935D01*
X0008070Y0068336D02*
X0004100Y0068336D01*
X0004100Y0067738D02*
X0012700Y0067738D01*
X0012700Y0068336D02*
X0013300Y0068336D01*
X0013300Y0067738D02*
X0021100Y0067738D01*
X0021100Y0068336D02*
X0017930Y0068336D01*
X0017791Y0068935D02*
X0021100Y0068935D01*
X0021100Y0069533D02*
X0017576Y0069533D01*
X0017268Y0070132D02*
X0021100Y0070132D01*
X0021100Y0070730D02*
X0016833Y0070730D01*
X0016237Y0071329D02*
X0021100Y0071329D01*
X0021100Y0071927D02*
X0015324Y0071927D01*
X0014979Y0073124D02*
X0021100Y0073124D01*
X0021100Y0072526D02*
X0004100Y0072526D01*
X0004100Y0067139D02*
X0008000Y0067139D01*
X0008090Y0066541D02*
X0004100Y0066541D01*
X0004100Y0065942D02*
X0008249Y0065942D01*
X0008487Y0065344D02*
X0004100Y0065344D01*
X0004100Y0064745D02*
X0008821Y0064745D01*
X0009282Y0064147D02*
X0004100Y0064147D01*
X0004100Y0063548D02*
X0009933Y0063548D01*
X0010917Y0062950D02*
X0004100Y0062950D01*
X0004100Y0062351D02*
X0011750Y0062351D01*
X0012700Y0062351D02*
X0013300Y0062351D01*
X0013300Y0061753D02*
X0012700Y0061753D01*
X0012700Y0061154D02*
X0013300Y0061154D01*
X0013300Y0060556D02*
X0012700Y0060556D01*
X0012700Y0059957D02*
X0013300Y0059957D01*
X0013300Y0059359D02*
X0012700Y0059359D01*
X0012700Y0058760D02*
X0013300Y0058760D01*
X0013300Y0058162D02*
X0012700Y0058162D01*
X0012700Y0057800D02*
X0013300Y0057800D01*
X0013300Y0057200D01*
X0018000Y0057200D01*
X0018000Y0057106D01*
X0017877Y0056329D01*
X0017634Y0055581D01*
X0017276Y0054879D01*
X0016814Y0054243D01*
X0016257Y0053686D01*
X0015621Y0053224D01*
X0014919Y0052866D01*
X0014171Y0052623D01*
X0013394Y0052500D01*
X0013300Y0052500D01*
X0013300Y0057200D01*
X0012700Y0057200D01*
X0012700Y0052500D01*
X0012606Y0052500D01*
X0011829Y0052623D01*
X0011081Y0052866D01*
X0010379Y0053224D01*
X0009743Y0053686D01*
X0009186Y0054243D01*
X0008724Y0054879D01*
X0008366Y0055581D01*
X0008123Y0056329D01*
X0008000Y0057106D01*
X0008000Y0057200D01*
X0012700Y0057200D01*
X0012700Y0057800D01*
X0012700Y0057563D02*
X0004100Y0057563D01*
X0004100Y0056965D02*
X0008022Y0056965D01*
X0008117Y0056366D02*
X0004100Y0056366D01*
X0004100Y0055768D02*
X0008306Y0055768D01*
X0008576Y0055169D02*
X0004100Y0055169D01*
X0004100Y0054570D02*
X0008948Y0054570D01*
X0009457Y0053972D02*
X0004100Y0053972D01*
X0004100Y0053373D02*
X0010173Y0053373D01*
X0011362Y0052775D02*
X0004100Y0052775D01*
X0004100Y0052176D02*
X0021100Y0052176D01*
X0021100Y0051578D02*
X0004100Y0051578D01*
X0004100Y0050979D02*
X0021100Y0050979D01*
X0021100Y0050381D02*
X0004100Y0050381D01*
X0004100Y0049782D02*
X0021100Y0049782D01*
X0021100Y0049184D02*
X0004100Y0049184D01*
X0004100Y0048585D02*
X0021100Y0048585D01*
X0021100Y0047987D02*
X0004100Y0047987D01*
X0004100Y0047388D02*
X0021100Y0047388D01*
X0021100Y0046790D02*
X0004100Y0046790D01*
X0004100Y0046191D02*
X0021100Y0046191D01*
X0021100Y0045593D02*
X0004100Y0045593D01*
X0004100Y0044994D02*
X0021100Y0044994D01*
X0021100Y0044396D02*
X0004100Y0044396D01*
X0004100Y0043797D02*
X0021100Y0043797D01*
X0021100Y0043199D02*
X0004100Y0043199D01*
X0004100Y0042600D02*
X0021100Y0042600D01*
X0021100Y0042002D02*
X0004100Y0042002D01*
X0004100Y0041403D02*
X0021100Y0041403D01*
X0021100Y0040805D02*
X0004100Y0040805D01*
X0004100Y0040206D02*
X0021100Y0040206D01*
X0021100Y0039608D02*
X0004100Y0039608D01*
X0004100Y0039009D02*
X0021100Y0039009D01*
X0021100Y0038411D02*
X0004100Y0038411D01*
X0004100Y0037812D02*
X0021100Y0037812D01*
X0021100Y0037214D02*
X0004100Y0037214D01*
X0004100Y0036615D02*
X0021100Y0036615D01*
X0021100Y0036017D02*
X0004100Y0036017D01*
X0004100Y0035418D02*
X0021100Y0035418D01*
X0021100Y0034820D02*
X0013115Y0034820D01*
X0014067Y0034221D02*
X0021100Y0034221D01*
X0021100Y0033623D02*
X0014666Y0033623D01*
X0015150Y0033024D02*
X0021100Y0033024D01*
X0021100Y0032426D02*
X0015398Y0032426D01*
X0008885Y0034820D02*
X0004100Y0034820D01*
X0004100Y0034221D02*
X0007933Y0034221D01*
X0007334Y0033623D02*
X0004100Y0033623D01*
X0004100Y0033024D02*
X0006850Y0033024D01*
X0006602Y0032426D02*
X0004100Y0032426D01*
X0004100Y0031827D02*
X0006354Y0031827D01*
X0006200Y0031229D02*
X0004100Y0031229D01*
X0004100Y0030630D02*
X0006200Y0030630D01*
X0006200Y0030032D02*
X0004100Y0030032D01*
X0004100Y0029433D02*
X0006246Y0029433D01*
X0006494Y0028834D02*
X0004100Y0028834D01*
X0004100Y0028236D02*
X0006742Y0028236D01*
X0007074Y0027637D02*
X0004100Y0027637D01*
X0004100Y0027039D02*
X0007673Y0027039D01*
X0008271Y0026440D02*
X0004100Y0026440D01*
X0004100Y0025842D02*
X0009703Y0025842D01*
X0009909Y0025243D02*
X0004100Y0025243D01*
X0004100Y0024645D02*
X0008464Y0024645D01*
X0007758Y0024046D02*
X0004100Y0024046D01*
X0004100Y0023448D02*
X0007160Y0023448D01*
X0006778Y0022849D02*
X0004100Y0022849D01*
X0004100Y0022251D02*
X0006530Y0022251D01*
X0006282Y0021652D02*
X0004100Y0021652D01*
X0004100Y0021054D02*
X0006200Y0021054D01*
X0006200Y0020455D02*
X0004100Y0020455D01*
X0004100Y0019857D02*
X0006200Y0019857D01*
X0006319Y0019258D02*
X0004100Y0019258D01*
X0004100Y0018660D02*
X0006567Y0018660D01*
X0006815Y0018061D02*
X0004100Y0018061D01*
X0004100Y0017463D02*
X0007249Y0017463D01*
X0007848Y0016864D02*
X0004100Y0016864D01*
X0004100Y0016266D02*
X0008679Y0016266D01*
X0011300Y0010200D02*
X0016000Y0010200D01*
X0016000Y0010106D01*
X0015877Y0009329D01*
X0015634Y0008581D01*
X0015276Y0007879D01*
X0014814Y0007243D01*
X0014257Y0006686D01*
X0013621Y0006224D01*
X0012919Y0005866D01*
X0012171Y0005623D01*
X0011394Y0005500D01*
X0011300Y0005500D01*
X0011300Y0010200D01*
X0011300Y0009682D02*
X0010700Y0009682D01*
X0010700Y0009084D02*
X0011300Y0009084D01*
X0011300Y0008485D02*
X0010700Y0008485D01*
X0010700Y0007887D02*
X0011300Y0007887D01*
X0011300Y0007288D02*
X0010700Y0007288D01*
X0010700Y0006690D02*
X0011300Y0006690D01*
X0011300Y0006091D02*
X0010700Y0006091D01*
X0013360Y0006091D02*
X0030101Y0006091D01*
X0029022Y0006690D02*
X0014261Y0006690D01*
X0014847Y0007288D02*
X0028424Y0007288D01*
X0027887Y0007887D02*
X0015280Y0007887D01*
X0015585Y0008485D02*
X0027639Y0008485D01*
X0027391Y0009084D02*
X0015797Y0009084D01*
X0015933Y0009682D02*
X0027200Y0009682D01*
X0036258Y0028236D02*
X0054577Y0028236D01*
X0053978Y0028834D02*
X0036506Y0028834D01*
X0036754Y0029433D02*
X0053380Y0029433D01*
X0052781Y0030032D02*
X0036800Y0030032D01*
X0024900Y0045593D02*
X0051100Y0045593D01*
X0051100Y0046191D02*
X0024900Y0046191D01*
X0024900Y0046790D02*
X0051100Y0046790D01*
X0051100Y0047388D02*
X0024900Y0047388D01*
X0024900Y0047987D02*
X0051100Y0047987D01*
X0051100Y0048585D02*
X0024900Y0048585D01*
X0024900Y0049184D02*
X0051100Y0049184D01*
X0051100Y0049782D02*
X0024900Y0049782D01*
X0024900Y0050381D02*
X0051100Y0050381D01*
X0051100Y0050979D02*
X0024900Y0050979D01*
X0024900Y0051578D02*
X0051100Y0051578D01*
X0051100Y0052176D02*
X0024900Y0052176D01*
X0024900Y0052775D02*
X0051100Y0052775D01*
X0051100Y0053373D02*
X0024900Y0053373D01*
X0024900Y0053972D02*
X0051100Y0053972D01*
X0051100Y0054570D02*
X0024900Y0054570D01*
X0024900Y0055169D02*
X0051100Y0055169D01*
X0051100Y0055768D02*
X0024900Y0055768D01*
X0024900Y0056366D02*
X0051100Y0056366D01*
X0051100Y0056965D02*
X0024900Y0056965D01*
X0024900Y0057563D02*
X0051100Y0057563D01*
X0051100Y0058162D02*
X0024900Y0058162D01*
X0024900Y0058760D02*
X0051100Y0058760D01*
X0051100Y0059359D02*
X0024900Y0059359D01*
X0024900Y0059957D02*
X0051100Y0059957D01*
X0051100Y0060556D02*
X0024900Y0060556D01*
X0024900Y0061154D02*
X0051100Y0061154D01*
X0051100Y0061753D02*
X0024900Y0061753D01*
X0024900Y0062351D02*
X0051100Y0062351D01*
X0051100Y0062950D02*
X0024900Y0062950D01*
X0024900Y0063548D02*
X0051100Y0063548D01*
X0051100Y0064147D02*
X0024900Y0064147D01*
X0024900Y0064745D02*
X0036334Y0064745D01*
X0035655Y0065344D02*
X0024900Y0065344D01*
X0024900Y0065942D02*
X0035200Y0065942D01*
X0034952Y0066541D02*
X0024900Y0066541D01*
X0024900Y0067139D02*
X0034817Y0067139D01*
X0034817Y0067738D02*
X0024900Y0067738D01*
X0024900Y0068336D02*
X0034901Y0068336D01*
X0035149Y0068935D02*
X0024900Y0068935D01*
X0024900Y0069533D02*
X0035532Y0069533D01*
X0036100Y0070132D02*
X0024900Y0070132D01*
X0024900Y0070730D02*
X0036100Y0070730D01*
X0036100Y0071329D02*
X0024900Y0071329D01*
X0024900Y0071927D02*
X0036100Y0071927D01*
X0036100Y0072526D02*
X0024900Y0072526D01*
X0024900Y0073124D02*
X0036100Y0073124D01*
X0036100Y0073723D02*
X0024900Y0073723D01*
X0024900Y0074321D02*
X0036100Y0074321D01*
X0036100Y0074920D02*
X0024900Y0074920D01*
X0024900Y0075518D02*
X0036100Y0075518D01*
X0036100Y0076117D02*
X0024900Y0076117D01*
X0024900Y0076715D02*
X0036100Y0076715D01*
X0036100Y0077314D02*
X0024900Y0077314D01*
X0024900Y0077912D02*
X0036100Y0077912D01*
X0036100Y0078511D02*
X0024900Y0078511D01*
X0024900Y0079109D02*
X0036100Y0079109D01*
X0036100Y0079708D02*
X0024900Y0079708D01*
X0024900Y0080306D02*
X0036100Y0080306D01*
X0036100Y0080905D02*
X0024900Y0080905D01*
X0024900Y0081503D02*
X0036100Y0081503D01*
X0036100Y0082102D02*
X0024900Y0082102D01*
X0024900Y0082701D02*
X0036100Y0082701D01*
X0036100Y0083299D02*
X0024900Y0083299D01*
X0024900Y0083898D02*
X0036100Y0083898D01*
X0036100Y0084496D02*
X0024900Y0084496D01*
X0024900Y0085095D02*
X0036100Y0085095D01*
X0036100Y0085693D02*
X0024900Y0085693D01*
X0024900Y0086292D02*
X0036100Y0086292D01*
X0036100Y0086890D02*
X0024900Y0086890D01*
X0024900Y0087489D02*
X0036100Y0087489D01*
X0036100Y0088087D02*
X0024900Y0088087D01*
X0024501Y0088686D02*
X0036100Y0088686D01*
X0036100Y0089284D02*
X0023903Y0089284D01*
X0021100Y0085095D02*
X0017199Y0085095D01*
X0016784Y0084496D02*
X0021100Y0084496D01*
X0021100Y0083898D02*
X0016186Y0083898D01*
X0015401Y0083299D02*
X0021100Y0083299D01*
X0021100Y0082701D02*
X0013956Y0082701D01*
X0014433Y0082102D02*
X0021100Y0082102D01*
X0021100Y0081503D02*
X0015785Y0081503D01*
X0016383Y0080905D02*
X0021100Y0080905D01*
X0021100Y0080306D02*
X0016982Y0080306D01*
X0017281Y0079708D02*
X0021100Y0079708D01*
X0021100Y0079109D02*
X0017529Y0079109D01*
X0017777Y0078511D02*
X0021100Y0078511D01*
X0021100Y0077912D02*
X0017800Y0077912D01*
X0017800Y0077314D02*
X0021100Y0077314D01*
X0021100Y0076715D02*
X0017800Y0076715D01*
X0017623Y0076117D02*
X0021100Y0076117D01*
X0021100Y0075518D02*
X0017375Y0075518D01*
X0017127Y0074920D02*
X0021100Y0074920D01*
X0021100Y0074321D02*
X0016610Y0074321D01*
X0016011Y0073723D02*
X0021100Y0073723D01*
X0021100Y0067139D02*
X0018000Y0067139D01*
X0017910Y0066541D02*
X0021100Y0066541D01*
X0021100Y0065942D02*
X0017751Y0065942D01*
X0017513Y0065344D02*
X0021100Y0065344D01*
X0021100Y0064745D02*
X0017179Y0064745D01*
X0016718Y0064147D02*
X0021100Y0064147D01*
X0021100Y0063548D02*
X0016067Y0063548D01*
X0015083Y0062950D02*
X0021100Y0062950D01*
X0021100Y0062351D02*
X0014250Y0062351D01*
X0013300Y0062950D02*
X0012700Y0062950D01*
X0012700Y0063548D02*
X0013300Y0063548D01*
X0013300Y0064147D02*
X0012700Y0064147D01*
X0012700Y0064745D02*
X0013300Y0064745D01*
X0013300Y0065344D02*
X0012700Y0065344D01*
X0012700Y0065942D02*
X0013300Y0065942D01*
X0013300Y0066541D02*
X0012700Y0066541D01*
X0012700Y0067139D02*
X0013300Y0067139D01*
X0013300Y0068935D02*
X0012700Y0068935D01*
X0012700Y0069533D02*
X0013300Y0069533D01*
X0013300Y0070132D02*
X0012700Y0070132D01*
X0012700Y0070730D02*
X0013300Y0070730D01*
X0013300Y0071329D02*
X0012700Y0071329D01*
X0012700Y0071927D02*
X0013300Y0071927D01*
X0015653Y0061753D02*
X0021100Y0061753D01*
X0021100Y0061154D02*
X0016417Y0061154D01*
X0016960Y0060556D02*
X0021100Y0060556D01*
X0021100Y0059957D02*
X0017360Y0059957D01*
X0017653Y0059359D02*
X0021100Y0059359D01*
X0021100Y0058760D02*
X0017848Y0058760D01*
X0017958Y0058162D02*
X0021100Y0058162D01*
X0021100Y0057563D02*
X0013300Y0057563D01*
X0013300Y0056965D02*
X0012700Y0056965D01*
X0012700Y0056366D02*
X0013300Y0056366D01*
X0013300Y0055768D02*
X0012700Y0055768D01*
X0012700Y0055169D02*
X0013300Y0055169D01*
X0013300Y0054570D02*
X0012700Y0054570D01*
X0012700Y0053972D02*
X0013300Y0053972D01*
X0013300Y0053373D02*
X0012700Y0053373D01*
X0012700Y0052775D02*
X0013300Y0052775D01*
X0014638Y0052775D02*
X0021100Y0052775D01*
X0021100Y0053373D02*
X0015827Y0053373D01*
X0016543Y0053972D02*
X0021100Y0053972D01*
X0021100Y0054570D02*
X0017052Y0054570D01*
X0017424Y0055169D02*
X0021100Y0055169D01*
X0021100Y0055768D02*
X0017694Y0055768D01*
X0017883Y0056366D02*
X0021100Y0056366D01*
X0021100Y0056965D02*
X0017977Y0056965D01*
X0010347Y0061753D02*
X0004100Y0061753D01*
X0004100Y0061154D02*
X0009583Y0061154D01*
X0009040Y0060556D02*
X0004100Y0060556D01*
X0004100Y0059957D02*
X0008640Y0059957D01*
X0008347Y0059359D02*
X0004100Y0059359D01*
X0004100Y0058760D02*
X0008152Y0058760D01*
X0008042Y0058162D02*
X0004100Y0058162D01*
X0017209Y0089883D02*
X0036100Y0089883D01*
X0036100Y0090481D02*
X0016807Y0090481D01*
X0016209Y0091080D02*
X0036100Y0091080D01*
X0036100Y0091678D02*
X0015456Y0091678D01*
X0014011Y0092277D02*
X0036100Y0092277D01*
X0036100Y0092875D02*
X0014378Y0092875D01*
X0015762Y0093474D02*
X0036100Y0093474D01*
X0036100Y0094072D02*
X0016360Y0094072D01*
X0016959Y0094671D02*
X0036100Y0094671D01*
X0036100Y0095269D02*
X0017271Y0095269D01*
X0017519Y0095868D02*
X0036100Y0095868D01*
X0036100Y0096466D02*
X0017767Y0096466D01*
X0017800Y0097065D02*
X0036100Y0097065D01*
X0036100Y0097663D02*
X0017800Y0097663D01*
X0017800Y0098262D02*
X0036100Y0098262D01*
X0036100Y0098860D02*
X0017632Y0098860D01*
X0017384Y0099459D02*
X0036100Y0099459D01*
X0036100Y0100057D02*
X0017136Y0100057D01*
X0016632Y0100656D02*
X0036100Y0100656D01*
X0036100Y0101254D02*
X0016034Y0101254D01*
X0011200Y0103050D02*
X0004100Y0103050D01*
X0004100Y0103648D02*
X0010063Y0103648D01*
X0009465Y0104247D02*
X0004100Y0104247D01*
X0004100Y0104845D02*
X0008904Y0104845D01*
X0008656Y0105444D02*
X0004100Y0105444D01*
X0004100Y0106042D02*
X0008408Y0106042D01*
X0008200Y0106641D02*
X0004100Y0106641D01*
X0004100Y0107239D02*
X0008200Y0107239D01*
X0008200Y0107838D02*
X0004100Y0107838D01*
X0004100Y0108437D02*
X0008200Y0108437D01*
X0008440Y0109035D02*
X0004100Y0109035D01*
X0004100Y0109634D02*
X0008688Y0109634D01*
X0008944Y0110232D02*
X0004100Y0110232D01*
X0004100Y0110831D02*
X0009542Y0110831D01*
X0010141Y0111429D02*
X0004100Y0111429D01*
X0039900Y0084496D02*
X0045495Y0084496D01*
X0045134Y0083898D02*
X0039900Y0083898D01*
X0039900Y0083299D02*
X0044886Y0083299D01*
X0044817Y0082701D02*
X0039900Y0082701D01*
X0039900Y0082102D02*
X0044817Y0082102D01*
X0044968Y0081503D02*
X0039900Y0081503D01*
X0039900Y0080905D02*
X0045216Y0080905D01*
X0045693Y0080306D02*
X0039900Y0080306D01*
X0039900Y0079708D02*
X0046424Y0079708D01*
X0048704Y0079109D02*
X0039900Y0079109D01*
X0039900Y0078511D02*
X0049302Y0078511D01*
X0049901Y0077912D02*
X0039900Y0077912D01*
X0039900Y0077314D02*
X0050499Y0077314D01*
X0051098Y0076715D02*
X0039900Y0076715D01*
X0039900Y0076117D02*
X0051100Y0076117D01*
X0051100Y0075518D02*
X0039900Y0075518D01*
X0039900Y0074920D02*
X0051100Y0074920D01*
X0051100Y0074321D02*
X0039900Y0074321D01*
X0039900Y0073723D02*
X0051100Y0073723D01*
X0051100Y0073124D02*
X0039900Y0073124D01*
X0039900Y0072526D02*
X0051100Y0072526D01*
X0051100Y0071927D02*
X0039900Y0071927D01*
X0039900Y0071329D02*
X0051100Y0071329D01*
X0051100Y0070730D02*
X0039900Y0070730D01*
X0039900Y0070132D02*
X0051100Y0070132D01*
X0051100Y0069533D02*
X0040468Y0069533D01*
X0040851Y0068935D02*
X0051100Y0068935D01*
X0051100Y0068336D02*
X0041099Y0068336D01*
X0041183Y0067738D02*
X0051100Y0067738D01*
X0051100Y0067139D02*
X0041183Y0067139D01*
X0041048Y0066541D02*
X0051100Y0066541D01*
X0051100Y0065942D02*
X0040800Y0065942D01*
X0040345Y0065344D02*
X0051100Y0065344D01*
X0051100Y0064745D02*
X0039666Y0064745D01*
X0054900Y0053373D02*
X0101100Y0053373D01*
X0101100Y0052775D02*
X0054900Y0052775D01*
X0054900Y0052176D02*
X0101100Y0052176D01*
X0101100Y0051578D02*
X0054900Y0051578D01*
X0054900Y0050979D02*
X0065964Y0050979D01*
X0065365Y0050381D02*
X0054900Y0050381D01*
X0054900Y0049782D02*
X0064767Y0049782D01*
X0064168Y0049184D02*
X0054900Y0049184D01*
X0054900Y0048585D02*
X0064100Y0048585D01*
X0064100Y0047987D02*
X0054900Y0047987D01*
X0054900Y0047388D02*
X0064100Y0047388D01*
X0064100Y0046790D02*
X0054900Y0046790D01*
X0054900Y0046191D02*
X0064100Y0046191D01*
X0064392Y0045593D02*
X0054900Y0045593D01*
X0054900Y0044994D02*
X0064990Y0044994D01*
X0074900Y0059957D02*
X0082142Y0059957D01*
X0082740Y0060556D02*
X0074900Y0060556D01*
X0074900Y0061154D02*
X0083831Y0061154D01*
X0083104Y0064147D02*
X0074900Y0064147D01*
X0074900Y0064745D02*
X0082439Y0064745D01*
X0081872Y0065344D02*
X0074900Y0065344D01*
X0074900Y0065942D02*
X0081624Y0065942D01*
X0081376Y0066541D02*
X0074900Y0066541D01*
X0074900Y0067139D02*
X0081300Y0067139D01*
X0081300Y0067738D02*
X0074900Y0067738D01*
X0074900Y0068336D02*
X0081325Y0068336D01*
X0081573Y0068935D02*
X0074900Y0068935D01*
X0074900Y0069533D02*
X0076846Y0069533D01*
X0075867Y0070132D02*
X0074900Y0070132D01*
X0074900Y0070730D02*
X0075288Y0070730D01*
X0075040Y0071329D02*
X0074900Y0071329D01*
X0074900Y0073723D02*
X0075062Y0073723D01*
X0074900Y0074321D02*
X0075320Y0074321D01*
X0074900Y0074920D02*
X0075919Y0074920D01*
X0074900Y0075518D02*
X0076970Y0075518D01*
X0079030Y0075518D02*
X0081799Y0075518D01*
X0081552Y0076117D02*
X0074900Y0076117D01*
X0074900Y0076715D02*
X0081304Y0076715D01*
X0081300Y0077314D02*
X0074900Y0077314D01*
X0074900Y0077912D02*
X0081300Y0077912D01*
X0081397Y0078511D02*
X0074900Y0078511D01*
X0074900Y0079109D02*
X0081645Y0079109D01*
X0081893Y0079708D02*
X0074900Y0079708D01*
X0074900Y0080306D02*
X0082491Y0080306D01*
X0083229Y0080905D02*
X0074900Y0080905D01*
X0074900Y0081503D02*
X0114268Y0081503D01*
X0114240Y0081499D02*
X0113626Y0081300D01*
X0113051Y0081007D01*
X0112529Y0080627D01*
X0112073Y0080171D01*
X0111693Y0079649D01*
X0111400Y0079074D01*
X0111201Y0078460D01*
X0111100Y0077823D01*
X0111100Y0077800D01*
X0117700Y0077800D01*
X0117700Y0081600D01*
X0114877Y0081600D01*
X0114240Y0081499D01*
X0112911Y0080905D02*
X0092771Y0080905D01*
X0093509Y0080306D02*
X0112208Y0080306D01*
X0111736Y0079708D02*
X0094107Y0079708D01*
X0094355Y0079109D02*
X0111419Y0079109D01*
X0111217Y0078511D02*
X0094603Y0078511D01*
X0094700Y0077912D02*
X0111114Y0077912D01*
X0111100Y0077200D02*
X0111100Y0077177D01*
X0111201Y0076540D01*
X0111400Y0075926D01*
X0111693Y0075351D01*
X0112073Y0074829D01*
X0112529Y0074373D01*
X0113051Y0073993D01*
X0113626Y0073700D01*
X0114240Y0073501D01*
X0114877Y0073400D01*
X0117700Y0073400D01*
X0117700Y0077200D01*
X0118300Y0077200D01*
X0118300Y0077800D01*
X0117700Y0077800D01*
X0117700Y0077200D01*
X0111100Y0077200D01*
X0111173Y0076715D02*
X0094696Y0076715D01*
X0094700Y0077314D02*
X0117700Y0077314D01*
X0117700Y0077912D02*
X0118300Y0077912D01*
X0118300Y0077800D02*
X0118300Y0081600D01*
X0121123Y0081600D01*
X0121760Y0081499D01*
X0122374Y0081300D01*
X0122949Y0081007D01*
X0123471Y0080627D01*
X0123927Y0080171D01*
X0124307Y0079649D01*
X0124600Y0079074D01*
X0124799Y0078460D01*
X0124900Y0077823D01*
X0124900Y0077800D01*
X0118300Y0077800D01*
X0118300Y0077314D02*
X0144817Y0077314D01*
X0144817Y0077912D02*
X0124886Y0077912D01*
X0124783Y0078511D02*
X0144974Y0078511D01*
X0145222Y0079109D02*
X0124581Y0079109D01*
X0124264Y0079708D02*
X0145707Y0079708D01*
X0146459Y0080306D02*
X0123792Y0080306D01*
X0123089Y0080905D02*
X0156100Y0080905D01*
X0156100Y0081503D02*
X0121732Y0081503D01*
X0121576Y0083600D02*
X0123009Y0084194D01*
X0124106Y0085291D01*
X0124700Y0086724D01*
X0124700Y0088276D01*
X0124106Y0089709D01*
X0123009Y0090806D01*
X0121576Y0091400D01*
X0114424Y0091400D01*
X0112991Y0090806D01*
X0111894Y0089709D01*
X0111300Y0088276D01*
X0111300Y0086724D01*
X0111894Y0085291D01*
X0112991Y0084194D01*
X0114424Y0083600D01*
X0121576Y0083600D01*
X0122294Y0083898D02*
X0131087Y0083898D01*
X0131385Y0083600D02*
X0134615Y0083600D01*
X0136900Y0085885D01*
X0136900Y0089115D01*
X0134615Y0091400D01*
X0131385Y0091400D01*
X0129100Y0089115D01*
X0129100Y0085885D01*
X0131385Y0083600D01*
X0130489Y0084496D02*
X0123311Y0084496D01*
X0123910Y0085095D02*
X0129890Y0085095D01*
X0129291Y0085693D02*
X0124273Y0085693D01*
X0124521Y0086292D02*
X0129100Y0086292D01*
X0129100Y0086890D02*
X0124700Y0086890D01*
X0124700Y0087489D02*
X0129100Y0087489D01*
X0129100Y0088087D02*
X0124700Y0088087D01*
X0124530Y0088686D02*
X0129100Y0088686D01*
X0129269Y0089284D02*
X0124282Y0089284D01*
X0123933Y0089883D02*
X0129867Y0089883D01*
X0130466Y0090481D02*
X0123334Y0090481D01*
X0122349Y0091080D02*
X0131064Y0091080D01*
X0134936Y0091080D02*
X0140781Y0091080D01*
X0141302Y0091600D02*
X0138900Y0089198D01*
X0138900Y0087800D01*
X0142700Y0087800D01*
X0142700Y0091600D01*
X0141302Y0091600D01*
X0142700Y0091080D02*
X0143300Y0091080D01*
X0143300Y0091600D02*
X0144698Y0091600D01*
X0147100Y0089198D01*
X0147100Y0087800D01*
X0143300Y0087800D01*
X0143300Y0087200D01*
X0147100Y0087200D01*
X0147100Y0085802D01*
X0144698Y0083400D01*
X0143300Y0083400D01*
X0143300Y0087200D01*
X0142700Y0087200D01*
X0142700Y0083400D01*
X0141302Y0083400D01*
X0138900Y0085802D01*
X0138900Y0087200D01*
X0142700Y0087200D01*
X0142700Y0087800D01*
X0143300Y0087800D01*
X0143300Y0091600D01*
X0143300Y0090481D02*
X0142700Y0090481D01*
X0142700Y0089883D02*
X0143300Y0089883D01*
X0143300Y0089284D02*
X0142700Y0089284D01*
X0142700Y0088686D02*
X0143300Y0088686D01*
X0143300Y0088087D02*
X0142700Y0088087D01*
X0142700Y0087489D02*
X0136900Y0087489D01*
X0136900Y0088087D02*
X0138900Y0088087D01*
X0138900Y0088686D02*
X0136900Y0088686D01*
X0136731Y0089284D02*
X0138986Y0089284D01*
X0139584Y0089883D02*
X0136133Y0089883D01*
X0135534Y0090481D02*
X0140183Y0090481D01*
X0138900Y0086890D02*
X0136900Y0086890D01*
X0136900Y0086292D02*
X0138900Y0086292D01*
X0139009Y0085693D02*
X0136708Y0085693D01*
X0136110Y0085095D02*
X0139607Y0085095D01*
X0140206Y0084496D02*
X0135511Y0084496D01*
X0134913Y0083898D02*
X0140804Y0083898D01*
X0142700Y0083898D02*
X0143300Y0083898D01*
X0143300Y0084496D02*
X0142700Y0084496D01*
X0142700Y0085095D02*
X0143300Y0085095D01*
X0143300Y0085693D02*
X0142700Y0085693D01*
X0142700Y0086292D02*
X0143300Y0086292D01*
X0143300Y0086890D02*
X0142700Y0086890D01*
X0143300Y0087489D02*
X0154817Y0087489D01*
X0154817Y0088087D02*
X0147100Y0088087D01*
X0147100Y0088686D02*
X0155046Y0088686D01*
X0154817Y0088133D02*
X0155302Y0089303D01*
X0156197Y0090198D01*
X0157367Y0090683D01*
X0158633Y0090683D01*
X0159803Y0090198D01*
X0160698Y0089303D01*
X0161183Y0088133D01*
X0161183Y0086867D01*
X0160698Y0085697D01*
X0159900Y0084899D01*
X0159900Y0050101D01*
X0160698Y0049303D01*
X0161183Y0048133D01*
X0161183Y0046867D01*
X0160698Y0045697D01*
X0159803Y0044802D01*
X0158633Y0044317D01*
X0157367Y0044317D01*
X0156197Y0044802D01*
X0155302Y0045697D01*
X0154817Y0046867D01*
X0154817Y0048133D01*
X0155302Y0049303D01*
X0156100Y0050101D01*
X0156100Y0084899D01*
X0155302Y0085697D01*
X0154817Y0086867D01*
X0154817Y0088133D01*
X0154817Y0086890D02*
X0147100Y0086890D01*
X0147100Y0086292D02*
X0155056Y0086292D01*
X0155306Y0085693D02*
X0146991Y0085693D01*
X0146393Y0085095D02*
X0155904Y0085095D01*
X0156100Y0084496D02*
X0145794Y0084496D01*
X0145196Y0083898D02*
X0156100Y0083898D01*
X0156100Y0083299D02*
X0074900Y0083299D01*
X0074900Y0082701D02*
X0156100Y0082701D01*
X0156100Y0082102D02*
X0074900Y0082102D01*
X0074900Y0083898D02*
X0083706Y0083898D01*
X0082991Y0084194D02*
X0084424Y0083600D01*
X0091576Y0083600D01*
X0093009Y0084194D01*
X0094106Y0085291D01*
X0094700Y0086724D01*
X0094700Y0088276D01*
X0094106Y0089709D01*
X0093009Y0090806D01*
X0091576Y0091400D01*
X0084424Y0091400D01*
X0082991Y0090806D01*
X0081894Y0089709D01*
X0081300Y0088276D01*
X0081300Y0086724D01*
X0081894Y0085291D01*
X0082991Y0084194D01*
X0082689Y0084496D02*
X0074900Y0084496D01*
X0074900Y0085095D02*
X0082090Y0085095D01*
X0081727Y0085693D02*
X0074900Y0085693D01*
X0074900Y0086292D02*
X0081479Y0086292D01*
X0081300Y0086890D02*
X0074900Y0086890D01*
X0074900Y0087489D02*
X0081300Y0087489D01*
X0081300Y0088087D02*
X0074900Y0088087D01*
X0074900Y0088686D02*
X0081470Y0088686D01*
X0081718Y0089284D02*
X0074900Y0089284D01*
X0074900Y0089883D02*
X0082067Y0089883D01*
X0082666Y0090481D02*
X0074900Y0090481D01*
X0074900Y0091080D02*
X0083651Y0091080D01*
X0084240Y0093501D02*
X0084877Y0093400D01*
X0087700Y0093400D01*
X0087700Y0097200D01*
X0088300Y0097200D01*
X0088300Y0097800D01*
X0087700Y0097800D01*
X0087700Y0101600D01*
X0084877Y0101600D01*
X0084240Y0101499D01*
X0083626Y0101300D01*
X0083051Y0101007D01*
X0082529Y0100627D01*
X0082073Y0100171D01*
X0081693Y0099649D01*
X0081400Y0099074D01*
X0081201Y0098460D01*
X0081100Y0097823D01*
X0081100Y0097800D01*
X0087700Y0097800D01*
X0087700Y0097200D01*
X0081100Y0097200D01*
X0081100Y0097177D01*
X0081201Y0096540D01*
X0081400Y0095926D01*
X0081693Y0095351D01*
X0082073Y0094829D01*
X0082529Y0094373D01*
X0083051Y0093993D01*
X0083626Y0093700D01*
X0084240Y0093501D01*
X0084412Y0093474D02*
X0074900Y0093474D01*
X0074900Y0094072D02*
X0082943Y0094072D01*
X0082231Y0094671D02*
X0074900Y0094671D01*
X0074900Y0095269D02*
X0081753Y0095269D01*
X0081430Y0095868D02*
X0074900Y0095868D01*
X0074900Y0096466D02*
X0081225Y0096466D01*
X0081118Y0097065D02*
X0074900Y0097065D01*
X0074900Y0097663D02*
X0087700Y0097663D01*
X0087700Y0097065D02*
X0088300Y0097065D01*
X0088300Y0097200D02*
X0088300Y0093400D01*
X0091123Y0093400D01*
X0091760Y0093501D01*
X0092374Y0093700D01*
X0092949Y0093993D01*
X0093471Y0094373D01*
X0093927Y0094829D01*
X0094307Y0095351D01*
X0094600Y0095926D01*
X0094799Y0096540D01*
X0094900Y0097177D01*
X0094900Y0097200D01*
X0088300Y0097200D01*
X0088300Y0097663D02*
X0111300Y0097663D01*
X0111300Y0097065D02*
X0094882Y0097065D01*
X0094775Y0096466D02*
X0111407Y0096466D01*
X0111300Y0096724D02*
X0111894Y0095291D01*
X0112991Y0094194D01*
X0114424Y0093600D01*
X0121576Y0093600D01*
X0123009Y0094194D01*
X0124106Y0095291D01*
X0124700Y0096724D01*
X0124700Y0098276D01*
X0124106Y0099709D01*
X0123009Y0100806D01*
X0121576Y0101400D01*
X0114424Y0101400D01*
X0112991Y0100806D01*
X0111894Y0099709D01*
X0111300Y0098276D01*
X0111300Y0096724D01*
X0111655Y0095868D02*
X0094570Y0095868D01*
X0094247Y0095269D02*
X0111915Y0095269D01*
X0112514Y0094671D02*
X0093769Y0094671D01*
X0093057Y0094072D02*
X0113284Y0094072D01*
X0113651Y0091080D02*
X0092349Y0091080D01*
X0093334Y0090481D02*
X0112666Y0090481D01*
X0112067Y0089883D02*
X0093933Y0089883D01*
X0094282Y0089284D02*
X0111718Y0089284D01*
X0111470Y0088686D02*
X0094530Y0088686D01*
X0094700Y0088087D02*
X0111300Y0088087D01*
X0111300Y0087489D02*
X0094700Y0087489D01*
X0094700Y0086890D02*
X0111300Y0086890D01*
X0111479Y0086292D02*
X0094521Y0086292D01*
X0094273Y0085693D02*
X0111727Y0085693D01*
X0112090Y0085095D02*
X0093910Y0085095D01*
X0093311Y0084496D02*
X0112689Y0084496D01*
X0113706Y0083898D02*
X0092294Y0083898D01*
X0094448Y0076117D02*
X0111338Y0076117D01*
X0111608Y0075518D02*
X0094201Y0075518D01*
X0093735Y0074920D02*
X0112007Y0074920D01*
X0112600Y0074321D02*
X0101866Y0074321D01*
X0102464Y0073723D02*
X0113582Y0073723D01*
X0114424Y0071400D02*
X0112991Y0070806D01*
X0111894Y0069709D01*
X0111300Y0068276D01*
X0111300Y0066724D01*
X0111894Y0065291D01*
X0112991Y0064194D01*
X0114424Y0063600D01*
X0121576Y0063600D01*
X0123009Y0064194D01*
X0124106Y0065291D01*
X0124700Y0066724D01*
X0124700Y0068276D01*
X0124106Y0069709D01*
X0123009Y0070806D01*
X0121576Y0071400D01*
X0114424Y0071400D01*
X0114252Y0071329D02*
X0104900Y0071329D01*
X0104900Y0070730D02*
X0112915Y0070730D01*
X0112316Y0070132D02*
X0104900Y0070132D01*
X0104900Y0069533D02*
X0111821Y0069533D01*
X0111573Y0068935D02*
X0104900Y0068935D01*
X0104900Y0068336D02*
X0111325Y0068336D01*
X0111300Y0067738D02*
X0104900Y0067738D01*
X0104900Y0067139D02*
X0111300Y0067139D01*
X0111376Y0066541D02*
X0104900Y0066541D01*
X0104900Y0065942D02*
X0111624Y0065942D01*
X0111872Y0065344D02*
X0104900Y0065344D01*
X0104900Y0064745D02*
X0112439Y0064745D01*
X0113104Y0064147D02*
X0104900Y0064147D01*
X0104900Y0063548D02*
X0130164Y0063548D01*
X0130281Y0063431D02*
X0132045Y0062700D01*
X0133955Y0062700D01*
X0135719Y0063431D01*
X0137069Y0064781D01*
X0137800Y0066545D01*
X0137800Y0068455D01*
X0137069Y0070219D01*
X0135719Y0071569D01*
X0133955Y0072300D01*
X0132045Y0072300D01*
X0130281Y0071569D01*
X0128931Y0070219D01*
X0128200Y0068455D01*
X0128200Y0066545D01*
X0128931Y0064781D01*
X0130281Y0063431D01*
X0129565Y0064147D02*
X0122896Y0064147D01*
X0123561Y0064745D02*
X0128967Y0064745D01*
X0128698Y0065344D02*
X0124128Y0065344D01*
X0124376Y0065942D02*
X0128450Y0065942D01*
X0128202Y0066541D02*
X0124624Y0066541D01*
X0124700Y0067139D02*
X0128200Y0067139D01*
X0128200Y0067738D02*
X0124700Y0067738D01*
X0124675Y0068336D02*
X0128200Y0068336D01*
X0128399Y0068935D02*
X0124427Y0068935D01*
X0124179Y0069533D02*
X0128647Y0069533D01*
X0128895Y0070132D02*
X0123684Y0070132D01*
X0123085Y0070730D02*
X0129442Y0070730D01*
X0130041Y0071329D02*
X0121748Y0071329D01*
X0121123Y0073400D02*
X0121760Y0073501D01*
X0122374Y0073700D01*
X0122949Y0073993D01*
X0123471Y0074373D01*
X0123927Y0074829D01*
X0124307Y0075351D01*
X0124600Y0075926D01*
X0124799Y0076540D01*
X0124900Y0077177D01*
X0124900Y0077200D01*
X0118300Y0077200D01*
X0118300Y0073400D01*
X0121123Y0073400D01*
X0122418Y0073723D02*
X0146100Y0073723D01*
X0146100Y0074321D02*
X0123400Y0074321D01*
X0123993Y0074920D02*
X0146079Y0074920D01*
X0145481Y0075518D02*
X0124392Y0075518D01*
X0124662Y0076117D02*
X0145128Y0076117D01*
X0144880Y0076715D02*
X0124827Y0076715D01*
X0131146Y0071927D02*
X0104517Y0071927D01*
X0103918Y0072526D02*
X0146100Y0072526D01*
X0146100Y0073124D02*
X0103320Y0073124D01*
X0100681Y0070132D02*
X0093684Y0070132D01*
X0094179Y0069533D02*
X0101100Y0069533D01*
X0101100Y0068935D02*
X0094427Y0068935D01*
X0094675Y0068336D02*
X0101100Y0068336D01*
X0101100Y0067738D02*
X0094700Y0067738D01*
X0094700Y0067139D02*
X0101100Y0067139D01*
X0101100Y0066541D02*
X0094624Y0066541D01*
X0094376Y0065942D02*
X0101100Y0065942D01*
X0101100Y0065344D02*
X0094128Y0065344D01*
X0093561Y0064745D02*
X0101100Y0064745D01*
X0101100Y0064147D02*
X0092896Y0064147D01*
X0092169Y0061154D02*
X0101100Y0061154D01*
X0101100Y0060556D02*
X0093260Y0060556D01*
X0093858Y0059957D02*
X0101100Y0059957D01*
X0101100Y0059359D02*
X0094251Y0059359D01*
X0094499Y0058760D02*
X0101100Y0058760D01*
X0101100Y0058162D02*
X0094700Y0058162D01*
X0094700Y0057563D02*
X0101100Y0057563D01*
X0101100Y0056965D02*
X0094700Y0056965D01*
X0094552Y0056366D02*
X0101100Y0056366D01*
X0101100Y0055768D02*
X0094304Y0055768D01*
X0093984Y0055169D02*
X0101100Y0055169D01*
X0101100Y0054570D02*
X0093386Y0054570D01*
X0092474Y0053972D02*
X0101100Y0053972D01*
X0101100Y0050979D02*
X0092591Y0050979D01*
X0093435Y0050381D02*
X0101100Y0050381D01*
X0101100Y0049782D02*
X0094033Y0049782D01*
X0094324Y0049184D02*
X0101100Y0049184D01*
X0101100Y0048585D02*
X0094602Y0048585D01*
X0095200Y0047987D02*
X0101100Y0047987D01*
X0101100Y0047388D02*
X0095799Y0047388D01*
X0096397Y0046790D02*
X0101100Y0046790D01*
X0101100Y0046191D02*
X0096996Y0046191D01*
X0097594Y0045593D02*
X0101100Y0045593D01*
X0101100Y0044994D02*
X0098193Y0044994D01*
X0098791Y0044396D02*
X0101100Y0044396D01*
X0101100Y0043797D02*
X0099390Y0043797D01*
X0099900Y0043199D02*
X0101100Y0043199D01*
X0101100Y0042600D02*
X0099900Y0042600D01*
X0099900Y0042002D02*
X0101100Y0042002D01*
X0101100Y0041403D02*
X0099900Y0041403D01*
X0099900Y0040805D02*
X0101100Y0040805D01*
X0101100Y0040206D02*
X0099900Y0040206D01*
X0099900Y0039608D02*
X0101100Y0039608D01*
X0101100Y0039009D02*
X0099900Y0039009D01*
X0099900Y0038411D02*
X0101100Y0038411D01*
X0101100Y0037812D02*
X0099900Y0037812D01*
X0099900Y0037214D02*
X0101100Y0037214D01*
X0101198Y0036615D02*
X0099900Y0036615D01*
X0099900Y0036017D02*
X0101796Y0036017D01*
X0099900Y0035418D02*
X0111841Y0035418D01*
X0112365Y0034820D02*
X0099900Y0034820D01*
X0099900Y0034221D02*
X0112963Y0034221D01*
X0114370Y0033623D02*
X0099900Y0033623D01*
X0099900Y0033024D02*
X0146100Y0033024D01*
X0146100Y0032426D02*
X0099900Y0032426D01*
X0099900Y0031827D02*
X0146100Y0031827D01*
X0146100Y0031229D02*
X0099900Y0031229D01*
X0099900Y0030630D02*
X0137240Y0030630D01*
X0136031Y0030032D02*
X0099900Y0030032D01*
X0099900Y0029433D02*
X0135432Y0029433D01*
X0138760Y0030630D02*
X0146100Y0030630D01*
X0146100Y0030032D02*
X0139969Y0030032D01*
X0140568Y0029433D02*
X0146100Y0029433D01*
X0146100Y0028834D02*
X0140892Y0028834D01*
X0141140Y0028236D02*
X0146100Y0028236D01*
X0146100Y0027637D02*
X0141183Y0027637D01*
X0141183Y0027039D02*
X0146100Y0027039D01*
X0146100Y0026440D02*
X0141006Y0026440D01*
X0140758Y0025842D02*
X0146100Y0025842D01*
X0146100Y0025243D02*
X0140244Y0025243D01*
X0139424Y0024645D02*
X0146100Y0024645D01*
X0149900Y0024645D02*
X0183693Y0024645D01*
X0183931Y0025219D02*
X0183200Y0023455D01*
X0183200Y0021545D01*
X0183931Y0019781D01*
X0185281Y0018431D01*
X0187045Y0017700D01*
X0188955Y0017700D01*
X0190719Y0018431D01*
X0192069Y0019781D01*
X0192800Y0021545D01*
X0192800Y0023455D01*
X0192069Y0025219D01*
X0190719Y0026569D01*
X0188955Y0027300D01*
X0187045Y0027300D01*
X0185281Y0026569D01*
X0183931Y0025219D01*
X0183955Y0025243D02*
X0149900Y0025243D01*
X0149900Y0025842D02*
X0184554Y0025842D01*
X0185152Y0026440D02*
X0149900Y0026440D01*
X0149900Y0027039D02*
X0186415Y0027039D01*
X0187045Y0027700D02*
X0188955Y0027700D01*
X0190719Y0028431D01*
X0192069Y0029781D01*
X0192800Y0031545D01*
X0192800Y0033455D01*
X0192069Y0035219D01*
X0190719Y0036569D01*
X0188955Y0037300D01*
X0187045Y0037300D01*
X0185281Y0036569D01*
X0183931Y0035219D01*
X0183200Y0033455D01*
X0183200Y0031545D01*
X0183931Y0029781D01*
X0185281Y0028431D01*
X0187045Y0027700D01*
X0185751Y0028236D02*
X0149900Y0028236D01*
X0149900Y0028834D02*
X0184877Y0028834D01*
X0184279Y0029433D02*
X0149900Y0029433D01*
X0149900Y0030032D02*
X0183827Y0030032D01*
X0183579Y0030630D02*
X0149900Y0030630D01*
X0149900Y0031229D02*
X0183331Y0031229D01*
X0183200Y0031827D02*
X0149900Y0031827D01*
X0149900Y0032426D02*
X0183200Y0032426D01*
X0183200Y0033024D02*
X0149900Y0033024D01*
X0149900Y0033623D02*
X0183270Y0033623D01*
X0183517Y0034221D02*
X0149900Y0034221D01*
X0149900Y0034820D02*
X0183765Y0034820D01*
X0184130Y0035418D02*
X0149900Y0035418D01*
X0149900Y0036017D02*
X0184728Y0036017D01*
X0185392Y0036615D02*
X0149900Y0036615D01*
X0149900Y0037214D02*
X0186837Y0037214D01*
X0187045Y0037700D02*
X0188955Y0037700D01*
X0190719Y0038431D01*
X0192069Y0039781D01*
X0192800Y0041545D01*
X0192800Y0043455D01*
X0192069Y0045219D01*
X0190719Y0046569D01*
X0188955Y0047300D01*
X0187045Y0047300D01*
X0185281Y0046569D01*
X0183931Y0045219D01*
X0183200Y0043455D01*
X0183200Y0041545D01*
X0183931Y0039781D01*
X0185281Y0038431D01*
X0187045Y0037700D01*
X0186774Y0037812D02*
X0149900Y0037812D01*
X0149900Y0038411D02*
X0185329Y0038411D01*
X0184703Y0039009D02*
X0149900Y0039009D01*
X0149900Y0039608D02*
X0184104Y0039608D01*
X0183755Y0040206D02*
X0149900Y0040206D01*
X0149900Y0040805D02*
X0183507Y0040805D01*
X0183259Y0041403D02*
X0149900Y0041403D01*
X0149900Y0042002D02*
X0183200Y0042002D01*
X0183200Y0042600D02*
X0149900Y0042600D01*
X0149900Y0043199D02*
X0183200Y0043199D01*
X0183342Y0043797D02*
X0149900Y0043797D01*
X0149900Y0044396D02*
X0157177Y0044396D01*
X0156005Y0044994D02*
X0149900Y0044994D01*
X0149900Y0045593D02*
X0155406Y0045593D01*
X0155097Y0046191D02*
X0149900Y0046191D01*
X0149900Y0046790D02*
X0154849Y0046790D01*
X0154817Y0047388D02*
X0149900Y0047388D01*
X0149900Y0047987D02*
X0154817Y0047987D01*
X0155005Y0048585D02*
X0149900Y0048585D01*
X0149900Y0049184D02*
X0155253Y0049184D01*
X0155781Y0049782D02*
X0149900Y0049782D01*
X0149900Y0050381D02*
X0156100Y0050381D01*
X0156100Y0050979D02*
X0149900Y0050979D01*
X0149900Y0051578D02*
X0156100Y0051578D01*
X0156100Y0052176D02*
X0149900Y0052176D01*
X0149900Y0052775D02*
X0156100Y0052775D01*
X0156100Y0053373D02*
X0149900Y0053373D01*
X0149900Y0053972D02*
X0156100Y0053972D01*
X0156100Y0054570D02*
X0149900Y0054570D01*
X0149900Y0055169D02*
X0156100Y0055169D01*
X0156100Y0055768D02*
X0149900Y0055768D01*
X0149900Y0056366D02*
X0156100Y0056366D01*
X0156100Y0056965D02*
X0149900Y0056965D01*
X0149900Y0057563D02*
X0156100Y0057563D01*
X0156100Y0058162D02*
X0149900Y0058162D01*
X0149900Y0058760D02*
X0156100Y0058760D01*
X0156100Y0059359D02*
X0149900Y0059359D01*
X0149900Y0059957D02*
X0156100Y0059957D01*
X0156100Y0060556D02*
X0149900Y0060556D01*
X0149900Y0061154D02*
X0156100Y0061154D01*
X0156100Y0061753D02*
X0149900Y0061753D01*
X0149900Y0062351D02*
X0156100Y0062351D01*
X0156100Y0062950D02*
X0149900Y0062950D01*
X0149900Y0063548D02*
X0156100Y0063548D01*
X0156100Y0064147D02*
X0149900Y0064147D01*
X0149900Y0064745D02*
X0156100Y0064745D01*
X0156100Y0065344D02*
X0149900Y0065344D01*
X0149900Y0065942D02*
X0156100Y0065942D01*
X0156100Y0066541D02*
X0149900Y0066541D01*
X0149900Y0067139D02*
X0156100Y0067139D01*
X0156100Y0067738D02*
X0149900Y0067738D01*
X0149900Y0068336D02*
X0156100Y0068336D01*
X0156100Y0068935D02*
X0149900Y0068935D01*
X0149900Y0069533D02*
X0156100Y0069533D01*
X0156100Y0070132D02*
X0149900Y0070132D01*
X0149900Y0070730D02*
X0156100Y0070730D01*
X0156100Y0071329D02*
X0149900Y0071329D01*
X0149900Y0071927D02*
X0156100Y0071927D01*
X0156100Y0072526D02*
X0149900Y0072526D01*
X0149900Y0073124D02*
X0156100Y0073124D01*
X0156100Y0073723D02*
X0149900Y0073723D01*
X0149900Y0074321D02*
X0156100Y0074321D01*
X0156100Y0074920D02*
X0149921Y0074920D01*
X0150519Y0075518D02*
X0156100Y0075518D01*
X0156100Y0076117D02*
X0150872Y0076117D01*
X0151120Y0076715D02*
X0156100Y0076715D01*
X0156100Y0077314D02*
X0151183Y0077314D01*
X0151183Y0077912D02*
X0156100Y0077912D01*
X0156100Y0078511D02*
X0151026Y0078511D01*
X0150778Y0079109D02*
X0156100Y0079109D01*
X0156100Y0079708D02*
X0150293Y0079708D01*
X0149541Y0080306D02*
X0156100Y0080306D01*
X0159900Y0080306D02*
X0176100Y0080306D01*
X0176100Y0079708D02*
X0159900Y0079708D01*
X0159900Y0079109D02*
X0176100Y0079109D01*
X0176100Y0078511D02*
X0159900Y0078511D01*
X0159900Y0077912D02*
X0176100Y0077912D01*
X0176100Y0077314D02*
X0159900Y0077314D01*
X0159900Y0076715D02*
X0176100Y0076715D01*
X0176100Y0076117D02*
X0159900Y0076117D01*
X0159900Y0075518D02*
X0176100Y0075518D01*
X0176100Y0074920D02*
X0159900Y0074920D01*
X0159900Y0074321D02*
X0176100Y0074321D01*
X0176100Y0073723D02*
X0159900Y0073723D01*
X0159900Y0073124D02*
X0176100Y0073124D01*
X0176100Y0072526D02*
X0159900Y0072526D01*
X0159900Y0071927D02*
X0176100Y0071927D01*
X0176100Y0071713D02*
X0181100Y0066713D01*
X0182213Y0065600D01*
X0183592Y0065600D01*
X0183931Y0064781D01*
X0185281Y0063431D01*
X0187045Y0062700D01*
X0188955Y0062700D01*
X0190719Y0063431D01*
X0192069Y0064781D01*
X0192800Y0066545D01*
X0192800Y0068455D01*
X0192069Y0070219D01*
X0190719Y0071569D01*
X0188955Y0072300D01*
X0187045Y0072300D01*
X0185281Y0071569D01*
X0183931Y0070219D01*
X0183649Y0069538D01*
X0179900Y0073287D01*
X0179900Y0128885D01*
X0181900Y0130885D01*
X0181900Y0134115D01*
X0179615Y0136400D01*
X0176385Y0136400D01*
X0174385Y0134400D01*
X0173787Y0134400D01*
X0141900Y0166287D01*
X0141900Y0169115D01*
X0139615Y0171400D01*
X0136385Y0171400D01*
X0134100Y0169115D01*
X0134100Y0165885D01*
X0136385Y0163600D01*
X0139213Y0163600D01*
X0171100Y0131713D01*
X0172213Y0130600D01*
X0174385Y0130600D01*
X0176100Y0128885D01*
X0176100Y0071713D01*
X0176484Y0071329D02*
X0159900Y0071329D01*
X0159900Y0070730D02*
X0177083Y0070730D01*
X0177681Y0070132D02*
X0159900Y0070132D01*
X0159900Y0069533D02*
X0178280Y0069533D01*
X0178878Y0068935D02*
X0159900Y0068935D01*
X0159900Y0068336D02*
X0179477Y0068336D01*
X0180075Y0067738D02*
X0159900Y0067738D01*
X0159900Y0067139D02*
X0180674Y0067139D01*
X0181272Y0066541D02*
X0159900Y0066541D01*
X0159900Y0065942D02*
X0181871Y0065942D01*
X0183698Y0065344D02*
X0159900Y0065344D01*
X0159900Y0064745D02*
X0183967Y0064745D01*
X0184565Y0064147D02*
X0159900Y0064147D01*
X0159900Y0063548D02*
X0185164Y0063548D01*
X0186443Y0062950D02*
X0159900Y0062950D01*
X0159900Y0062351D02*
X0186750Y0062351D01*
X0186829Y0062377D02*
X0186081Y0062134D01*
X0185379Y0061776D01*
X0184743Y0061314D01*
X0184186Y0060757D01*
X0183724Y0060121D01*
X0183366Y0059419D01*
X0183123Y0058671D01*
X0183000Y0057894D01*
X0183000Y0057800D01*
X0187700Y0057800D01*
X0187700Y0062500D01*
X0187606Y0062500D01*
X0186829Y0062377D01*
X0187700Y0062351D02*
X0188300Y0062351D01*
X0188300Y0062500D02*
X0188394Y0062500D01*
X0189171Y0062377D01*
X0189919Y0062134D01*
X0190621Y0061776D01*
X0191257Y0061314D01*
X0191814Y0060757D01*
X0192276Y0060121D01*
X0192634Y0059419D01*
X0192877Y0058671D01*
X0193000Y0057894D01*
X0193000Y0057800D01*
X0188300Y0057800D01*
X0188300Y0057200D01*
X0193000Y0057200D01*
X0193000Y0057106D01*
X0192877Y0056329D01*
X0192634Y0055581D01*
X0192276Y0054879D01*
X0191814Y0054243D01*
X0191257Y0053686D01*
X0190621Y0053224D01*
X0189919Y0052866D01*
X0189171Y0052623D01*
X0188394Y0052500D01*
X0188300Y0052500D01*
X0188300Y0057200D01*
X0187700Y0057200D01*
X0187700Y0052500D01*
X0187606Y0052500D01*
X0186829Y0052623D01*
X0186081Y0052866D01*
X0185379Y0053224D01*
X0184743Y0053686D01*
X0184186Y0054243D01*
X0183724Y0054879D01*
X0183366Y0055581D01*
X0183123Y0056329D01*
X0183000Y0057106D01*
X0183000Y0057200D01*
X0187700Y0057200D01*
X0187700Y0057800D01*
X0188300Y0057800D01*
X0188300Y0062500D01*
X0188300Y0061753D02*
X0187700Y0061753D01*
X0187700Y0061154D02*
X0188300Y0061154D01*
X0188300Y0060556D02*
X0187700Y0060556D01*
X0187700Y0059957D02*
X0188300Y0059957D01*
X0188300Y0059359D02*
X0187700Y0059359D01*
X0187700Y0058760D02*
X0188300Y0058760D01*
X0188300Y0058162D02*
X0187700Y0058162D01*
X0187700Y0057563D02*
X0159900Y0057563D01*
X0159900Y0056965D02*
X0183022Y0056965D01*
X0183117Y0056366D02*
X0159900Y0056366D01*
X0159900Y0055768D02*
X0183306Y0055768D01*
X0183576Y0055169D02*
X0159900Y0055169D01*
X0159900Y0054570D02*
X0183948Y0054570D01*
X0184457Y0053972D02*
X0159900Y0053972D01*
X0159900Y0053373D02*
X0185173Y0053373D01*
X0186362Y0052775D02*
X0159900Y0052775D01*
X0159900Y0052176D02*
X0198750Y0052176D01*
X0198750Y0051578D02*
X0159900Y0051578D01*
X0159900Y0050979D02*
X0198750Y0050979D01*
X0198750Y0050381D02*
X0159900Y0050381D01*
X0160219Y0049782D02*
X0198750Y0049782D01*
X0198750Y0049184D02*
X0160747Y0049184D01*
X0160995Y0048585D02*
X0198750Y0048585D01*
X0198750Y0047987D02*
X0161183Y0047987D01*
X0161183Y0047388D02*
X0198750Y0047388D01*
X0198750Y0046790D02*
X0190186Y0046790D01*
X0191097Y0046191D02*
X0198750Y0046191D01*
X0198750Y0045593D02*
X0191695Y0045593D01*
X0192162Y0044994D02*
X0198750Y0044994D01*
X0198750Y0044396D02*
X0192410Y0044396D01*
X0192658Y0043797D02*
X0198750Y0043797D01*
X0198750Y0043199D02*
X0192800Y0043199D01*
X0192800Y0042600D02*
X0198750Y0042600D01*
X0198750Y0042002D02*
X0192800Y0042002D01*
X0192741Y0041403D02*
X0198750Y0041403D01*
X0198750Y0040805D02*
X0192493Y0040805D01*
X0192245Y0040206D02*
X0198750Y0040206D01*
X0198750Y0039608D02*
X0191896Y0039608D01*
X0191297Y0039009D02*
X0198750Y0039009D01*
X0198750Y0038411D02*
X0190670Y0038411D01*
X0189226Y0037812D02*
X0198750Y0037812D01*
X0198750Y0037214D02*
X0189163Y0037214D01*
X0190608Y0036615D02*
X0198750Y0036615D01*
X0198750Y0036017D02*
X0191272Y0036017D01*
X0191870Y0035418D02*
X0198750Y0035418D01*
X0198750Y0034820D02*
X0192235Y0034820D01*
X0192483Y0034221D02*
X0198750Y0034221D01*
X0198750Y0033623D02*
X0192730Y0033623D01*
X0192800Y0033024D02*
X0198750Y0033024D01*
X0198750Y0032426D02*
X0192800Y0032426D01*
X0192800Y0031827D02*
X0198750Y0031827D01*
X0198750Y0031229D02*
X0192669Y0031229D01*
X0192421Y0030630D02*
X0198750Y0030630D01*
X0198750Y0030032D02*
X0192173Y0030032D01*
X0191721Y0029433D02*
X0198750Y0029433D01*
X0198750Y0028834D02*
X0191123Y0028834D01*
X0190249Y0028236D02*
X0198750Y0028236D01*
X0198750Y0027637D02*
X0149900Y0027637D01*
X0149900Y0024046D02*
X0183445Y0024046D01*
X0183200Y0023448D02*
X0149900Y0023448D01*
X0149900Y0022849D02*
X0183200Y0022849D01*
X0183200Y0022251D02*
X0149900Y0022251D01*
X0149839Y0021652D02*
X0183200Y0021652D01*
X0183404Y0021054D02*
X0149241Y0021054D01*
X0150993Y0016864D02*
X0145007Y0016864D01*
X0145719Y0016569D02*
X0143955Y0017300D01*
X0142045Y0017300D01*
X0140281Y0016569D01*
X0138931Y0015219D01*
X0138200Y0013455D01*
X0138200Y0011545D01*
X0138931Y0009781D01*
X0140281Y0008431D01*
X0142045Y0007700D01*
X0143955Y0007700D01*
X0145719Y0008431D01*
X0147069Y0009781D01*
X0147800Y0011545D01*
X0147800Y0013455D01*
X0147069Y0015219D01*
X0145719Y0016569D01*
X0146022Y0016266D02*
X0149978Y0016266D01*
X0149379Y0015667D02*
X0146621Y0015667D01*
X0147131Y0015069D02*
X0148869Y0015069D01*
X0148621Y0014470D02*
X0147379Y0014470D01*
X0147627Y0013872D02*
X0148373Y0013872D01*
X0148200Y0013273D02*
X0147800Y0013273D01*
X0147800Y0012675D02*
X0148200Y0012675D01*
X0148200Y0012076D02*
X0147800Y0012076D01*
X0147772Y0011478D02*
X0148228Y0011478D01*
X0148476Y0010879D02*
X0147524Y0010879D01*
X0147276Y0010281D02*
X0148724Y0010281D01*
X0149030Y0009682D02*
X0146970Y0009682D01*
X0146372Y0009084D02*
X0149628Y0009084D01*
X0150227Y0008485D02*
X0145773Y0008485D01*
X0144405Y0007887D02*
X0151595Y0007887D01*
X0154405Y0007887D02*
X0186041Y0007887D01*
X0186081Y0007866D02*
X0186829Y0007623D01*
X0187606Y0007500D01*
X0187700Y0007500D01*
X0187700Y0012200D01*
X0183000Y0012200D01*
X0183000Y0012106D01*
X0183123Y0011329D01*
X0183366Y0010581D01*
X0183724Y0009879D01*
X0184186Y0009243D01*
X0184743Y0008686D01*
X0185379Y0008224D01*
X0186081Y0007866D01*
X0185019Y0008485D02*
X0155773Y0008485D01*
X0156372Y0009084D02*
X0184345Y0009084D01*
X0183867Y0009682D02*
X0156970Y0009682D01*
X0157276Y0010281D02*
X0183519Y0010281D01*
X0183269Y0010879D02*
X0157524Y0010879D01*
X0157772Y0011478D02*
X0183100Y0011478D01*
X0183005Y0012076D02*
X0157800Y0012076D01*
X0141595Y0007887D02*
X0134405Y0007887D01*
X0133955Y0007700D02*
X0135719Y0008431D01*
X0137069Y0009781D01*
X0137800Y0011545D01*
X0137800Y0013455D01*
X0137069Y0015219D01*
X0135719Y0016569D01*
X0133955Y0017300D01*
X0132045Y0017300D01*
X0130281Y0016569D01*
X0128931Y0015219D01*
X0128200Y0013455D01*
X0128200Y0011545D01*
X0128931Y0009781D01*
X0130281Y0008431D01*
X0132045Y0007700D01*
X0133955Y0007700D01*
X0135773Y0008485D02*
X0140227Y0008485D01*
X0139628Y0009084D02*
X0136372Y0009084D01*
X0136970Y0009682D02*
X0139030Y0009682D01*
X0138724Y0010281D02*
X0137276Y0010281D01*
X0137524Y0010879D02*
X0138476Y0010879D01*
X0138228Y0011478D02*
X0137772Y0011478D01*
X0137800Y0012076D02*
X0138200Y0012076D01*
X0138200Y0012675D02*
X0137800Y0012675D01*
X0137800Y0013273D02*
X0138200Y0013273D01*
X0138373Y0013872D02*
X0137627Y0013872D01*
X0137379Y0014470D02*
X0138621Y0014470D01*
X0138869Y0015069D02*
X0137131Y0015069D01*
X0136621Y0015667D02*
X0139379Y0015667D01*
X0139978Y0016266D02*
X0136022Y0016266D01*
X0135007Y0016864D02*
X0140993Y0016864D01*
X0130993Y0016864D02*
X0125007Y0016864D01*
X0125719Y0016569D02*
X0123955Y0017300D01*
X0122045Y0017300D01*
X0120281Y0016569D01*
X0118931Y0015219D01*
X0118200Y0013455D01*
X0118200Y0011545D01*
X0118931Y0009781D01*
X0120281Y0008431D01*
X0122045Y0007700D01*
X0123955Y0007700D01*
X0125719Y0008431D01*
X0127069Y0009781D01*
X0127800Y0011545D01*
X0127800Y0013455D01*
X0127069Y0015219D01*
X0125719Y0016569D01*
X0126022Y0016266D02*
X0129978Y0016266D01*
X0129379Y0015667D02*
X0126621Y0015667D01*
X0127131Y0015069D02*
X0128869Y0015069D01*
X0128621Y0014470D02*
X0127379Y0014470D01*
X0127627Y0013872D02*
X0128373Y0013872D01*
X0128200Y0013273D02*
X0127800Y0013273D01*
X0127800Y0012675D02*
X0128200Y0012675D01*
X0128200Y0012076D02*
X0127800Y0012076D01*
X0127772Y0011478D02*
X0128228Y0011478D01*
X0128476Y0010879D02*
X0127524Y0010879D01*
X0127276Y0010281D02*
X0128724Y0010281D01*
X0129030Y0009682D02*
X0126970Y0009682D01*
X0126372Y0009084D02*
X0129628Y0009084D01*
X0130227Y0008485D02*
X0125773Y0008485D01*
X0124405Y0007887D02*
X0131595Y0007887D01*
X0121595Y0007887D02*
X0114405Y0007887D01*
X0113955Y0007700D02*
X0115719Y0008431D01*
X0117069Y0009781D01*
X0117800Y0011545D01*
X0117800Y0013455D01*
X0117069Y0015219D01*
X0115719Y0016569D01*
X0113955Y0017300D01*
X0112045Y0017300D01*
X0110281Y0016569D01*
X0108931Y0015219D01*
X0108200Y0013455D01*
X0108200Y0011545D01*
X0108931Y0009781D01*
X0110281Y0008431D01*
X0112045Y0007700D01*
X0113955Y0007700D01*
X0115773Y0008485D02*
X0120227Y0008485D01*
X0119628Y0009084D02*
X0116372Y0009084D01*
X0116970Y0009682D02*
X0119030Y0009682D01*
X0118724Y0010281D02*
X0117276Y0010281D01*
X0117524Y0010879D02*
X0118476Y0010879D01*
X0118228Y0011478D02*
X0117772Y0011478D01*
X0117800Y0012076D02*
X0118200Y0012076D01*
X0118200Y0012675D02*
X0117800Y0012675D01*
X0117800Y0013273D02*
X0118200Y0013273D01*
X0118373Y0013872D02*
X0117627Y0013872D01*
X0117379Y0014470D02*
X0118621Y0014470D01*
X0118869Y0015069D02*
X0117131Y0015069D01*
X0116621Y0015667D02*
X0119379Y0015667D01*
X0119978Y0016266D02*
X0116022Y0016266D01*
X0115007Y0016864D02*
X0120993Y0016864D01*
X0110993Y0016864D02*
X0105448Y0016864D01*
X0105621Y0016776D02*
X0104919Y0017134D01*
X0104171Y0017377D01*
X0103394Y0017500D01*
X0103300Y0017500D01*
X0103300Y0012800D01*
X0108000Y0012800D01*
X0108000Y0012894D01*
X0107877Y0013671D01*
X0107634Y0014419D01*
X0107276Y0015121D01*
X0106814Y0015757D01*
X0106257Y0016314D01*
X0105621Y0016776D01*
X0106305Y0016266D02*
X0109978Y0016266D01*
X0109379Y0015667D02*
X0106879Y0015667D01*
X0107303Y0015069D02*
X0108869Y0015069D01*
X0108621Y0014470D02*
X0107608Y0014470D01*
X0107812Y0013872D02*
X0108373Y0013872D01*
X0108200Y0013273D02*
X0107940Y0013273D01*
X0108200Y0012675D02*
X0103300Y0012675D01*
X0103300Y0013273D02*
X0102700Y0013273D01*
X0102700Y0013872D02*
X0103300Y0013872D01*
X0103300Y0014470D02*
X0102700Y0014470D01*
X0102700Y0015069D02*
X0103300Y0015069D01*
X0103300Y0015667D02*
X0102700Y0015667D01*
X0102700Y0016266D02*
X0103300Y0016266D01*
X0103300Y0016864D02*
X0102700Y0016864D01*
X0102700Y0017463D02*
X0103300Y0017463D01*
X0103628Y0017463D02*
X0187372Y0017463D01*
X0187700Y0017463D02*
X0188300Y0017463D01*
X0188628Y0017463D02*
X0198750Y0017463D01*
X0198750Y0018061D02*
X0189827Y0018061D01*
X0190948Y0018660D02*
X0198750Y0018660D01*
X0198750Y0019258D02*
X0191547Y0019258D01*
X0192101Y0019857D02*
X0198750Y0019857D01*
X0198750Y0020455D02*
X0192349Y0020455D01*
X0192596Y0021054D02*
X0198750Y0021054D01*
X0198750Y0021652D02*
X0192800Y0021652D01*
X0192800Y0022251D02*
X0198750Y0022251D01*
X0198750Y0022849D02*
X0192800Y0022849D01*
X0192800Y0023448D02*
X0198750Y0023448D01*
X0198750Y0024046D02*
X0192555Y0024046D01*
X0192307Y0024645D02*
X0198750Y0024645D01*
X0198750Y0025243D02*
X0192045Y0025243D01*
X0191446Y0025842D02*
X0198750Y0025842D01*
X0198750Y0026440D02*
X0190848Y0026440D01*
X0189585Y0027039D02*
X0198750Y0027039D01*
X0198750Y0016864D02*
X0190448Y0016864D01*
X0191305Y0016266D02*
X0198750Y0016266D01*
X0198750Y0015667D02*
X0191879Y0015667D01*
X0192303Y0015069D02*
X0198750Y0015069D01*
X0198750Y0014470D02*
X0192608Y0014470D01*
X0192812Y0013872D02*
X0198750Y0013872D01*
X0198750Y0013273D02*
X0192940Y0013273D01*
X0188300Y0013872D02*
X0187700Y0013872D01*
X0187700Y0014470D02*
X0188300Y0014470D01*
X0188300Y0015069D02*
X0187700Y0015069D01*
X0187700Y0015667D02*
X0188300Y0015667D01*
X0188300Y0016266D02*
X0187700Y0016266D01*
X0187700Y0016864D02*
X0188300Y0016864D01*
X0185052Y0018660D02*
X0090948Y0018660D01*
X0091547Y0019258D02*
X0184453Y0019258D01*
X0183899Y0019857D02*
X0092101Y0019857D01*
X0092349Y0020455D02*
X0183651Y0020455D01*
X0187700Y0012076D02*
X0188300Y0012076D01*
X0188300Y0011478D02*
X0187700Y0011478D01*
X0187700Y0010879D02*
X0188300Y0010879D01*
X0188300Y0010281D02*
X0187700Y0010281D01*
X0187700Y0009682D02*
X0188300Y0009682D01*
X0188300Y0009084D02*
X0187700Y0009084D01*
X0187700Y0008485D02*
X0188300Y0008485D01*
X0188300Y0007887D02*
X0187700Y0007887D01*
X0183590Y0044396D02*
X0158823Y0044396D01*
X0159995Y0044994D02*
X0183838Y0044994D01*
X0184305Y0045593D02*
X0160594Y0045593D01*
X0160903Y0046191D02*
X0184903Y0046191D01*
X0185814Y0046790D02*
X0161151Y0046790D01*
X0159900Y0058162D02*
X0183042Y0058162D01*
X0183152Y0058760D02*
X0159900Y0058760D01*
X0159900Y0059359D02*
X0183347Y0059359D01*
X0183640Y0059957D02*
X0159900Y0059957D01*
X0159900Y0060556D02*
X0184040Y0060556D01*
X0184583Y0061154D02*
X0159900Y0061154D01*
X0159900Y0061753D02*
X0185347Y0061753D01*
X0189250Y0062351D02*
X0198750Y0062351D01*
X0198750Y0061753D02*
X0190653Y0061753D01*
X0191417Y0061154D02*
X0198750Y0061154D01*
X0198750Y0060556D02*
X0191960Y0060556D01*
X0192360Y0059957D02*
X0198750Y0059957D01*
X0198750Y0059359D02*
X0192653Y0059359D01*
X0192848Y0058760D02*
X0198750Y0058760D01*
X0198750Y0058162D02*
X0192958Y0058162D01*
X0192977Y0056965D02*
X0198750Y0056965D01*
X0198750Y0057563D02*
X0188300Y0057563D01*
X0188300Y0056965D02*
X0187700Y0056965D01*
X0187700Y0056366D02*
X0188300Y0056366D01*
X0188300Y0055768D02*
X0187700Y0055768D01*
X0187700Y0055169D02*
X0188300Y0055169D01*
X0188300Y0054570D02*
X0187700Y0054570D01*
X0187700Y0053972D02*
X0188300Y0053972D01*
X0188300Y0053373D02*
X0187700Y0053373D01*
X0187700Y0052775D02*
X0188300Y0052775D01*
X0189638Y0052775D02*
X0198750Y0052775D01*
X0198750Y0053373D02*
X0190827Y0053373D01*
X0191543Y0053972D02*
X0198750Y0053972D01*
X0198750Y0054570D02*
X0192052Y0054570D01*
X0192424Y0055169D02*
X0198750Y0055169D01*
X0198750Y0055768D02*
X0192694Y0055768D01*
X0192883Y0056366D02*
X0198750Y0056366D01*
X0198750Y0062950D02*
X0189557Y0062950D01*
X0190836Y0063548D02*
X0198750Y0063548D01*
X0198750Y0064147D02*
X0191435Y0064147D01*
X0192033Y0064745D02*
X0198750Y0064745D01*
X0198750Y0065344D02*
X0192302Y0065344D01*
X0192550Y0065942D02*
X0198750Y0065942D01*
X0198750Y0066541D02*
X0192798Y0066541D01*
X0192800Y0067139D02*
X0198750Y0067139D01*
X0198750Y0067738D02*
X0192800Y0067738D01*
X0192800Y0068336D02*
X0198750Y0068336D01*
X0198750Y0068935D02*
X0192601Y0068935D01*
X0192353Y0069533D02*
X0198750Y0069533D01*
X0198750Y0070132D02*
X0192105Y0070132D01*
X0191558Y0070730D02*
X0198750Y0070730D01*
X0198750Y0071329D02*
X0190959Y0071329D01*
X0189854Y0071927D02*
X0198750Y0071927D01*
X0198750Y0072526D02*
X0180661Y0072526D01*
X0180063Y0073124D02*
X0186021Y0073124D01*
X0185281Y0073431D02*
X0187045Y0072700D01*
X0188955Y0072700D01*
X0190719Y0073431D01*
X0192069Y0074781D01*
X0192800Y0076545D01*
X0192800Y0078455D01*
X0192069Y0080219D01*
X0190719Y0081569D01*
X0188955Y0082300D01*
X0187045Y0082300D01*
X0185281Y0081569D01*
X0183931Y0080219D01*
X0183200Y0078455D01*
X0183200Y0076545D01*
X0183931Y0074781D01*
X0185281Y0073431D01*
X0184989Y0073723D02*
X0179900Y0073723D01*
X0179900Y0074321D02*
X0184390Y0074321D01*
X0183873Y0074920D02*
X0179900Y0074920D01*
X0179900Y0075518D02*
X0183625Y0075518D01*
X0183377Y0076117D02*
X0179900Y0076117D01*
X0179900Y0076715D02*
X0183200Y0076715D01*
X0183200Y0077314D02*
X0179900Y0077314D01*
X0179900Y0077912D02*
X0183200Y0077912D01*
X0183223Y0078511D02*
X0179900Y0078511D01*
X0179900Y0079109D02*
X0183471Y0079109D01*
X0183719Y0079708D02*
X0179900Y0079708D01*
X0179900Y0080306D02*
X0184018Y0080306D01*
X0184617Y0080905D02*
X0179900Y0080905D01*
X0179900Y0081503D02*
X0185215Y0081503D01*
X0186567Y0082102D02*
X0179900Y0082102D01*
X0179900Y0082701D02*
X0187044Y0082701D01*
X0187045Y0082700D02*
X0188955Y0082700D01*
X0190719Y0083431D01*
X0192069Y0084781D01*
X0192800Y0086545D01*
X0192800Y0088455D01*
X0192069Y0090219D01*
X0190719Y0091569D01*
X0188955Y0092300D01*
X0187045Y0092300D01*
X0185281Y0091569D01*
X0183931Y0090219D01*
X0183200Y0088455D01*
X0183200Y0086545D01*
X0183931Y0084781D01*
X0185281Y0083431D01*
X0187045Y0082700D01*
X0185599Y0083299D02*
X0179900Y0083299D01*
X0179900Y0083898D02*
X0184814Y0083898D01*
X0184216Y0084496D02*
X0179900Y0084496D01*
X0179900Y0085095D02*
X0183801Y0085095D01*
X0183553Y0085693D02*
X0179900Y0085693D01*
X0179900Y0086292D02*
X0183305Y0086292D01*
X0183200Y0086890D02*
X0179900Y0086890D01*
X0179900Y0087489D02*
X0183200Y0087489D01*
X0183200Y0088087D02*
X0179900Y0088087D01*
X0179900Y0088686D02*
X0183296Y0088686D01*
X0183544Y0089284D02*
X0179900Y0089284D01*
X0179900Y0089883D02*
X0183791Y0089883D01*
X0184193Y0090481D02*
X0179900Y0090481D01*
X0179900Y0091080D02*
X0184791Y0091080D01*
X0185544Y0091678D02*
X0179900Y0091678D01*
X0179900Y0092277D02*
X0186989Y0092277D01*
X0187045Y0092700D02*
X0188955Y0092700D01*
X0190719Y0093431D01*
X0192069Y0094781D01*
X0192800Y0096545D01*
X0192800Y0098455D01*
X0192069Y0100219D01*
X0190719Y0101569D01*
X0188955Y0102300D01*
X0187045Y0102300D01*
X0185281Y0101569D01*
X0183931Y0100219D01*
X0183200Y0098455D01*
X0183200Y0096545D01*
X0183931Y0094781D01*
X0185281Y0093431D01*
X0187045Y0092700D01*
X0186622Y0092875D02*
X0179900Y0092875D01*
X0179900Y0093474D02*
X0185238Y0093474D01*
X0184640Y0094072D02*
X0179900Y0094072D01*
X0179900Y0094671D02*
X0184041Y0094671D01*
X0183729Y0095269D02*
X0179900Y0095269D01*
X0179900Y0095868D02*
X0183481Y0095868D01*
X0183233Y0096466D02*
X0179900Y0096466D01*
X0179900Y0097065D02*
X0183200Y0097065D01*
X0183200Y0097663D02*
X0179900Y0097663D01*
X0179900Y0098262D02*
X0183200Y0098262D01*
X0183368Y0098860D02*
X0179900Y0098860D01*
X0179900Y0099459D02*
X0183616Y0099459D01*
X0183864Y0100057D02*
X0179900Y0100057D01*
X0179900Y0100656D02*
X0184368Y0100656D01*
X0184966Y0101254D02*
X0179900Y0101254D01*
X0179900Y0101853D02*
X0185966Y0101853D01*
X0186200Y0103050D02*
X0179900Y0103050D01*
X0179900Y0103648D02*
X0185063Y0103648D01*
X0185281Y0103431D02*
X0187045Y0102700D01*
X0188955Y0102700D01*
X0190719Y0103431D01*
X0192069Y0104781D01*
X0192800Y0106545D01*
X0192800Y0108455D01*
X0192069Y0110219D01*
X0190719Y0111569D01*
X0188955Y0112300D01*
X0187045Y0112300D01*
X0185281Y0111569D01*
X0183931Y0110219D01*
X0183200Y0108455D01*
X0183200Y0106545D01*
X0183931Y0104781D01*
X0185281Y0103431D01*
X0184465Y0104247D02*
X0179900Y0104247D01*
X0179900Y0104845D02*
X0183904Y0104845D01*
X0183656Y0105444D02*
X0179900Y0105444D01*
X0179900Y0106042D02*
X0183408Y0106042D01*
X0183200Y0106641D02*
X0179900Y0106641D01*
X0179900Y0107239D02*
X0183200Y0107239D01*
X0183200Y0107838D02*
X0179900Y0107838D01*
X0179900Y0108437D02*
X0183200Y0108437D01*
X0183440Y0109035D02*
X0179900Y0109035D01*
X0179900Y0109634D02*
X0183688Y0109634D01*
X0183944Y0110232D02*
X0179900Y0110232D01*
X0179900Y0110831D02*
X0184542Y0110831D01*
X0185141Y0111429D02*
X0179900Y0111429D01*
X0179900Y0112028D02*
X0186388Y0112028D01*
X0187045Y0112700D02*
X0188955Y0112700D01*
X0190719Y0113431D01*
X0192069Y0114781D01*
X0192800Y0116545D01*
X0192800Y0118455D01*
X0192069Y0120219D01*
X0190719Y0121569D01*
X0188955Y0122300D01*
X0187045Y0122300D01*
X0185281Y0121569D01*
X0183931Y0120219D01*
X0183200Y0118455D01*
X0183200Y0116545D01*
X0183931Y0114781D01*
X0185281Y0113431D01*
X0187045Y0112700D01*
X0185779Y0113225D02*
X0179900Y0113225D01*
X0179900Y0113823D02*
X0184889Y0113823D01*
X0184290Y0114422D02*
X0179900Y0114422D01*
X0179900Y0115020D02*
X0183832Y0115020D01*
X0183584Y0115619D02*
X0179900Y0115619D01*
X0179900Y0116217D02*
X0183336Y0116217D01*
X0183200Y0116816D02*
X0179900Y0116816D01*
X0179900Y0117414D02*
X0183200Y0117414D01*
X0183200Y0118013D02*
X0179900Y0118013D01*
X0179900Y0118611D02*
X0183265Y0118611D01*
X0183513Y0119210D02*
X0179900Y0119210D01*
X0179900Y0119808D02*
X0183761Y0119808D01*
X0184119Y0120407D02*
X0179900Y0120407D01*
X0179900Y0121005D02*
X0184717Y0121005D01*
X0185364Y0121604D02*
X0179900Y0121604D01*
X0179900Y0122202D02*
X0186809Y0122202D01*
X0187045Y0122700D02*
X0188955Y0122700D01*
X0190719Y0123431D01*
X0192069Y0124781D01*
X0192800Y0126545D01*
X0192800Y0128455D01*
X0192069Y0130219D01*
X0190719Y0131569D01*
X0188955Y0132300D01*
X0187045Y0132300D01*
X0185281Y0131569D01*
X0183931Y0130219D01*
X0183200Y0128455D01*
X0183200Y0126545D01*
X0183931Y0124781D01*
X0185281Y0123431D01*
X0187045Y0122700D01*
X0186802Y0122801D02*
X0179900Y0122801D01*
X0179900Y0123399D02*
X0185357Y0123399D01*
X0184714Y0123998D02*
X0179900Y0123998D01*
X0179900Y0124596D02*
X0184115Y0124596D01*
X0183759Y0125195D02*
X0179900Y0125195D01*
X0179900Y0125793D02*
X0183511Y0125793D01*
X0183264Y0126392D02*
X0179900Y0126392D01*
X0179900Y0126990D02*
X0183200Y0126990D01*
X0183200Y0127589D02*
X0179900Y0127589D01*
X0179900Y0128187D02*
X0183200Y0128187D01*
X0183337Y0128786D02*
X0179900Y0128786D01*
X0180400Y0129384D02*
X0183585Y0129384D01*
X0183833Y0129983D02*
X0180998Y0129983D01*
X0181597Y0130581D02*
X0184293Y0130581D01*
X0184892Y0131180D02*
X0181900Y0131180D01*
X0181900Y0131778D02*
X0185786Y0131778D01*
X0186380Y0132975D02*
X0181900Y0132975D01*
X0181900Y0132377D02*
X0198750Y0132377D01*
X0198750Y0132975D02*
X0189620Y0132975D01*
X0188955Y0132700D02*
X0190719Y0133431D01*
X0192069Y0134781D01*
X0192800Y0136545D01*
X0192800Y0138455D01*
X0192069Y0140219D01*
X0190719Y0141569D01*
X0188955Y0142300D01*
X0187045Y0142300D01*
X0185281Y0141569D01*
X0183931Y0140219D01*
X0183200Y0138455D01*
X0183200Y0136545D01*
X0183931Y0134781D01*
X0185281Y0133431D01*
X0187045Y0132700D01*
X0188955Y0132700D01*
X0190214Y0131778D02*
X0198750Y0131778D01*
X0198750Y0131180D02*
X0191108Y0131180D01*
X0191707Y0130581D02*
X0198750Y0130581D01*
X0198750Y0129983D02*
X0192167Y0129983D01*
X0192415Y0129384D02*
X0198750Y0129384D01*
X0198750Y0128786D02*
X0192663Y0128786D01*
X0192800Y0128187D02*
X0198750Y0128187D01*
X0198750Y0127589D02*
X0192800Y0127589D01*
X0192800Y0126990D02*
X0198750Y0126990D01*
X0198750Y0126392D02*
X0192736Y0126392D01*
X0192489Y0125793D02*
X0198750Y0125793D01*
X0198750Y0125195D02*
X0192241Y0125195D01*
X0191885Y0124596D02*
X0198750Y0124596D01*
X0198750Y0123998D02*
X0191286Y0123998D01*
X0190643Y0123399D02*
X0198750Y0123399D01*
X0198750Y0122801D02*
X0189198Y0122801D01*
X0189191Y0122202D02*
X0198750Y0122202D01*
X0198750Y0121604D02*
X0190636Y0121604D01*
X0191283Y0121005D02*
X0198750Y0121005D01*
X0198750Y0120407D02*
X0191881Y0120407D01*
X0192239Y0119808D02*
X0198750Y0119808D01*
X0198750Y0119210D02*
X0192487Y0119210D01*
X0192735Y0118611D02*
X0198750Y0118611D01*
X0198750Y0118013D02*
X0192800Y0118013D01*
X0192800Y0117414D02*
X0198750Y0117414D01*
X0198750Y0116816D02*
X0192800Y0116816D01*
X0192664Y0116217D02*
X0198750Y0116217D01*
X0198750Y0115619D02*
X0192416Y0115619D01*
X0192168Y0115020D02*
X0198750Y0115020D01*
X0198750Y0114422D02*
X0191710Y0114422D01*
X0191111Y0113823D02*
X0198750Y0113823D01*
X0198750Y0113225D02*
X0190221Y0113225D01*
X0189612Y0112028D02*
X0198750Y0112028D01*
X0198750Y0112626D02*
X0179900Y0112626D01*
X0176100Y0112626D02*
X0074900Y0112626D01*
X0074900Y0112028D02*
X0176100Y0112028D01*
X0176100Y0111429D02*
X0074900Y0111429D01*
X0074900Y0110831D02*
X0083049Y0110831D01*
X0082991Y0110806D02*
X0081894Y0109709D01*
X0081300Y0108276D01*
X0081300Y0106724D01*
X0081894Y0105291D01*
X0082991Y0104194D01*
X0084424Y0103600D01*
X0091576Y0103600D01*
X0093009Y0104194D01*
X0094106Y0105291D01*
X0094700Y0106724D01*
X0094700Y0108276D01*
X0094106Y0109709D01*
X0093009Y0110806D01*
X0091576Y0111400D01*
X0084424Y0111400D01*
X0082991Y0110806D01*
X0082417Y0110232D02*
X0074900Y0110232D01*
X0074900Y0109634D02*
X0081862Y0109634D01*
X0081615Y0109035D02*
X0074900Y0109035D01*
X0074900Y0108437D02*
X0081367Y0108437D01*
X0081300Y0107838D02*
X0074900Y0107838D01*
X0074900Y0107239D02*
X0081300Y0107239D01*
X0081334Y0106641D02*
X0074900Y0106641D01*
X0074900Y0106042D02*
X0081582Y0106042D01*
X0081830Y0105444D02*
X0074900Y0105444D01*
X0074900Y0104845D02*
X0082339Y0104845D01*
X0082938Y0104247D02*
X0074900Y0104247D01*
X0074900Y0103648D02*
X0084307Y0103648D01*
X0083537Y0101254D02*
X0074900Y0101254D01*
X0074900Y0100656D02*
X0082568Y0100656D01*
X0081990Y0100057D02*
X0074900Y0100057D01*
X0074900Y0099459D02*
X0081597Y0099459D01*
X0081331Y0098860D02*
X0074900Y0098860D01*
X0074900Y0098262D02*
X0081170Y0098262D01*
X0087700Y0098262D02*
X0088300Y0098262D01*
X0088300Y0097800D02*
X0088300Y0101600D01*
X0091123Y0101600D01*
X0091760Y0101499D01*
X0092374Y0101300D01*
X0092949Y0101007D01*
X0093471Y0100627D01*
X0093927Y0100171D01*
X0094307Y0099649D01*
X0094600Y0099074D01*
X0094799Y0098460D01*
X0094900Y0097823D01*
X0094900Y0097800D01*
X0088300Y0097800D01*
X0088300Y0098860D02*
X0087700Y0098860D01*
X0087700Y0099459D02*
X0088300Y0099459D01*
X0088300Y0100057D02*
X0087700Y0100057D01*
X0087700Y0100656D02*
X0088300Y0100656D01*
X0088300Y0101254D02*
X0087700Y0101254D01*
X0091693Y0103648D02*
X0114307Y0103648D01*
X0114424Y0103600D02*
X0121576Y0103600D01*
X0123009Y0104194D01*
X0124106Y0105291D01*
X0124700Y0106724D01*
X0124700Y0108276D01*
X0124106Y0109709D01*
X0123009Y0110806D01*
X0121576Y0111400D01*
X0114424Y0111400D01*
X0112991Y0110806D01*
X0111894Y0109709D01*
X0111300Y0108276D01*
X0111300Y0106724D01*
X0111894Y0105291D01*
X0112991Y0104194D01*
X0114424Y0103600D01*
X0112938Y0104247D02*
X0093062Y0104247D01*
X0093661Y0104845D02*
X0112339Y0104845D01*
X0111830Y0105444D02*
X0094170Y0105444D01*
X0094418Y0106042D02*
X0111582Y0106042D01*
X0111334Y0106641D02*
X0094665Y0106641D01*
X0094700Y0107239D02*
X0111300Y0107239D01*
X0111300Y0107838D02*
X0094700Y0107838D01*
X0094633Y0108437D02*
X0111367Y0108437D01*
X0111615Y0109035D02*
X0094385Y0109035D01*
X0094138Y0109634D02*
X0111862Y0109634D01*
X0112417Y0110232D02*
X0093583Y0110232D01*
X0092951Y0110831D02*
X0113049Y0110831D01*
X0114424Y0113600D02*
X0121576Y0113600D01*
X0123009Y0114194D01*
X0124106Y0115291D01*
X0124700Y0116724D01*
X0124700Y0118276D01*
X0124106Y0119709D01*
X0123009Y0120806D01*
X0121576Y0121400D01*
X0114424Y0121400D01*
X0112991Y0120806D01*
X0111894Y0119709D01*
X0111300Y0118276D01*
X0111300Y0116724D01*
X0111894Y0115291D01*
X0112991Y0114194D01*
X0114424Y0113600D01*
X0113886Y0113823D02*
X0092114Y0113823D01*
X0091576Y0113600D02*
X0093009Y0114194D01*
X0094106Y0115291D01*
X0094700Y0116724D01*
X0094700Y0118276D01*
X0094106Y0119709D01*
X0093009Y0120806D01*
X0091576Y0121400D01*
X0084424Y0121400D01*
X0082991Y0120806D01*
X0081894Y0119709D01*
X0081300Y0118276D01*
X0081300Y0116724D01*
X0081894Y0115291D01*
X0082991Y0114194D01*
X0084424Y0113600D01*
X0091576Y0113600D01*
X0093237Y0114422D02*
X0112763Y0114422D01*
X0112164Y0115020D02*
X0093836Y0115020D01*
X0094242Y0115619D02*
X0111758Y0115619D01*
X0111510Y0116217D02*
X0094490Y0116217D01*
X0094700Y0116816D02*
X0111300Y0116816D01*
X0111300Y0117414D02*
X0094700Y0117414D01*
X0094700Y0118013D02*
X0111300Y0118013D01*
X0111439Y0118611D02*
X0094561Y0118611D01*
X0094313Y0119210D02*
X0111687Y0119210D01*
X0111993Y0119808D02*
X0094007Y0119808D01*
X0093409Y0120407D02*
X0112591Y0120407D01*
X0113471Y0121005D02*
X0092529Y0121005D01*
X0091576Y0123600D02*
X0093009Y0124194D01*
X0094106Y0125291D01*
X0094551Y0126364D01*
X0094900Y0126713D01*
X0104900Y0136713D01*
X0104900Y0161713D01*
X0111300Y0168113D01*
X0111300Y0166724D01*
X0111894Y0165291D01*
X0112991Y0164194D01*
X0114424Y0163600D01*
X0121576Y0163600D01*
X0123009Y0164194D01*
X0124106Y0165291D01*
X0124700Y0166724D01*
X0124700Y0168276D01*
X0124106Y0169709D01*
X0123009Y0170806D01*
X0121576Y0171400D01*
X0114587Y0171400D01*
X0126226Y0183039D01*
X0127045Y0182700D01*
X0128955Y0182700D01*
X0130719Y0183431D01*
X0132069Y0184781D01*
X0132800Y0186545D01*
X0132800Y0188455D01*
X0132069Y0190219D01*
X0130719Y0191569D01*
X0128955Y0192300D01*
X0127045Y0192300D01*
X0125281Y0191569D01*
X0123931Y0190219D01*
X0123200Y0188455D01*
X0123200Y0186545D01*
X0123539Y0185726D01*
X0102213Y0164400D01*
X0101100Y0163287D01*
X0101100Y0138287D01*
X0093314Y0130501D01*
X0093009Y0130806D01*
X0091576Y0131400D01*
X0084424Y0131400D01*
X0082991Y0130806D01*
X0081894Y0129709D01*
X0081300Y0128276D01*
X0081300Y0126724D01*
X0081894Y0125291D01*
X0082991Y0124194D01*
X0084424Y0123600D01*
X0091576Y0123600D01*
X0092536Y0123998D02*
X0113464Y0123998D01*
X0112991Y0124194D02*
X0114424Y0123600D01*
X0121576Y0123600D01*
X0123009Y0124194D01*
X0124106Y0125291D01*
X0124700Y0126724D01*
X0124700Y0128276D01*
X0124106Y0129709D01*
X0123009Y0130806D01*
X0121576Y0131400D01*
X0114424Y0131400D01*
X0112991Y0130806D01*
X0111894Y0129709D01*
X0111300Y0128276D01*
X0111300Y0126724D01*
X0111894Y0125291D01*
X0112991Y0124194D01*
X0112588Y0124596D02*
X0093412Y0124596D01*
X0094010Y0125195D02*
X0111990Y0125195D01*
X0111686Y0125793D02*
X0094314Y0125793D01*
X0094579Y0126392D02*
X0111438Y0126392D01*
X0111300Y0126990D02*
X0095177Y0126990D01*
X0095776Y0127589D02*
X0111300Y0127589D01*
X0111300Y0128187D02*
X0096374Y0128187D01*
X0096973Y0128786D02*
X0111511Y0128786D01*
X0111759Y0129384D02*
X0097571Y0129384D01*
X0098170Y0129983D02*
X0112167Y0129983D01*
X0112766Y0130581D02*
X0098768Y0130581D01*
X0099367Y0131180D02*
X0113893Y0131180D01*
X0114424Y0133600D02*
X0121576Y0133600D01*
X0123009Y0134194D01*
X0124106Y0135291D01*
X0124700Y0136724D01*
X0124700Y0138276D01*
X0124106Y0139709D01*
X0123009Y0140806D01*
X0121576Y0141400D01*
X0114424Y0141400D01*
X0112991Y0140806D01*
X0111894Y0139709D01*
X0111300Y0138276D01*
X0111300Y0136724D01*
X0111894Y0135291D01*
X0112991Y0134194D01*
X0114424Y0133600D01*
X0113042Y0134172D02*
X0102359Y0134172D01*
X0101761Y0133574D02*
X0147299Y0133574D01*
X0147136Y0133411D02*
X0147136Y0132013D01*
X0150936Y0132013D01*
X0150936Y0135813D01*
X0149538Y0135813D01*
X0147136Y0133411D01*
X0147136Y0132975D02*
X0101162Y0132975D01*
X0100564Y0132377D02*
X0147136Y0132377D01*
X0147136Y0131413D02*
X0147136Y0130014D01*
X0149538Y0127613D01*
X0150936Y0127613D01*
X0150936Y0131413D01*
X0147136Y0131413D01*
X0147136Y0131180D02*
X0122107Y0131180D01*
X0123234Y0130581D02*
X0147136Y0130581D01*
X0147168Y0129983D02*
X0123833Y0129983D01*
X0124241Y0129384D02*
X0147766Y0129384D01*
X0148365Y0128786D02*
X0124489Y0128786D01*
X0124700Y0128187D02*
X0148963Y0128187D01*
X0150936Y0128187D02*
X0151536Y0128187D01*
X0151536Y0127613D02*
X0152934Y0127613D01*
X0155336Y0130014D01*
X0155336Y0131413D01*
X0151536Y0131413D01*
X0151536Y0132013D01*
X0150936Y0132013D01*
X0150936Y0131413D01*
X0151536Y0131413D01*
X0151536Y0127613D01*
X0151536Y0128786D02*
X0150936Y0128786D01*
X0150936Y0129384D02*
X0151536Y0129384D01*
X0151536Y0129983D02*
X0150936Y0129983D01*
X0150936Y0130581D02*
X0151536Y0130581D01*
X0151536Y0131180D02*
X0150936Y0131180D01*
X0150936Y0131778D02*
X0099965Y0131778D01*
X0096986Y0134172D02*
X0092958Y0134172D01*
X0093009Y0134194D02*
X0094106Y0135291D01*
X0094700Y0136724D01*
X0094700Y0138276D01*
X0094106Y0139709D01*
X0093501Y0140314D01*
X0099900Y0146713D01*
X0099900Y0166713D01*
X0116226Y0183039D01*
X0117045Y0182700D01*
X0118955Y0182700D01*
X0120719Y0183431D01*
X0122069Y0184781D01*
X0122800Y0186545D01*
X0122800Y0188455D01*
X0122069Y0190219D01*
X0120719Y0191569D01*
X0118955Y0192300D01*
X0117045Y0192300D01*
X0115281Y0191569D01*
X0113931Y0190219D01*
X0113200Y0188455D01*
X0113200Y0186545D01*
X0113539Y0185726D01*
X0097213Y0169400D01*
X0096100Y0168287D01*
X0096100Y0148287D01*
X0094700Y0146887D01*
X0094700Y0148276D01*
X0094106Y0149709D01*
X0093009Y0150806D01*
X0091576Y0151400D01*
X0084424Y0151400D01*
X0082991Y0150806D01*
X0081894Y0149709D01*
X0081300Y0148276D01*
X0081300Y0146724D01*
X0081894Y0145291D01*
X0082991Y0144194D01*
X0084424Y0143600D01*
X0091413Y0143600D01*
X0089213Y0141400D01*
X0084424Y0141400D01*
X0082991Y0140806D01*
X0081894Y0139709D01*
X0081300Y0138276D01*
X0081300Y0136724D01*
X0081894Y0135291D01*
X0082991Y0134194D01*
X0084424Y0133600D01*
X0091576Y0133600D01*
X0093009Y0134194D01*
X0093586Y0134771D02*
X0097584Y0134771D01*
X0098183Y0135370D02*
X0094139Y0135370D01*
X0094387Y0135968D02*
X0098781Y0135968D01*
X0099380Y0136567D02*
X0094635Y0136567D01*
X0094700Y0137165D02*
X0099978Y0137165D01*
X0100577Y0137764D02*
X0094700Y0137764D01*
X0094664Y0138362D02*
X0101100Y0138362D01*
X0101100Y0138961D02*
X0094416Y0138961D01*
X0094168Y0139559D02*
X0101100Y0139559D01*
X0101100Y0140158D02*
X0093658Y0140158D01*
X0093943Y0140756D02*
X0101100Y0140756D01*
X0101100Y0141355D02*
X0094542Y0141355D01*
X0095140Y0141953D02*
X0101100Y0141953D01*
X0101100Y0142552D02*
X0095739Y0142552D01*
X0096337Y0143150D02*
X0101100Y0143150D01*
X0101100Y0143749D02*
X0096936Y0143749D01*
X0097534Y0144347D02*
X0101100Y0144347D01*
X0101100Y0144946D02*
X0098133Y0144946D01*
X0098731Y0145544D02*
X0101100Y0145544D01*
X0101100Y0146143D02*
X0099330Y0146143D01*
X0099900Y0146741D02*
X0101100Y0146741D01*
X0101100Y0147340D02*
X0099900Y0147340D01*
X0099900Y0147938D02*
X0101100Y0147938D01*
X0101100Y0148537D02*
X0099900Y0148537D01*
X0099900Y0149135D02*
X0101100Y0149135D01*
X0101100Y0149734D02*
X0099900Y0149734D01*
X0099900Y0150332D02*
X0101100Y0150332D01*
X0101100Y0150931D02*
X0099900Y0150931D01*
X0099900Y0151529D02*
X0101100Y0151529D01*
X0101100Y0152128D02*
X0099900Y0152128D01*
X0099900Y0152726D02*
X0101100Y0152726D01*
X0101100Y0153325D02*
X0099900Y0153325D01*
X0099900Y0153923D02*
X0101100Y0153923D01*
X0101100Y0154522D02*
X0099900Y0154522D01*
X0099900Y0155120D02*
X0101100Y0155120D01*
X0101100Y0155719D02*
X0099900Y0155719D01*
X0099900Y0156317D02*
X0101100Y0156317D01*
X0101100Y0156916D02*
X0099900Y0156916D01*
X0099900Y0157514D02*
X0101100Y0157514D01*
X0101100Y0158113D02*
X0099900Y0158113D01*
X0099900Y0158711D02*
X0101100Y0158711D01*
X0101100Y0159310D02*
X0099900Y0159310D01*
X0099900Y0159908D02*
X0101100Y0159908D01*
X0101100Y0160507D02*
X0099900Y0160507D01*
X0099900Y0161105D02*
X0101100Y0161105D01*
X0101100Y0161704D02*
X0099900Y0161704D01*
X0099900Y0162303D02*
X0101100Y0162303D01*
X0101100Y0162901D02*
X0099900Y0162901D01*
X0099900Y0163500D02*
X0101313Y0163500D01*
X0101911Y0164098D02*
X0099900Y0164098D01*
X0099900Y0164697D02*
X0102510Y0164697D01*
X0103108Y0165295D02*
X0099900Y0165295D01*
X0099900Y0165894D02*
X0103707Y0165894D01*
X0104305Y0166492D02*
X0099900Y0166492D01*
X0100278Y0167091D02*
X0104904Y0167091D01*
X0105502Y0167689D02*
X0100876Y0167689D01*
X0101475Y0168288D02*
X0106101Y0168288D01*
X0106699Y0168886D02*
X0102073Y0168886D01*
X0102672Y0169485D02*
X0107298Y0169485D01*
X0107896Y0170083D02*
X0103270Y0170083D01*
X0103869Y0170682D02*
X0108495Y0170682D01*
X0109093Y0171280D02*
X0104467Y0171280D01*
X0105066Y0171879D02*
X0109692Y0171879D01*
X0110290Y0172477D02*
X0105664Y0172477D01*
X0106263Y0173076D02*
X0110889Y0173076D01*
X0111487Y0173674D02*
X0106861Y0173674D01*
X0107460Y0174273D02*
X0112086Y0174273D01*
X0112684Y0174871D02*
X0108058Y0174871D01*
X0108657Y0175470D02*
X0113283Y0175470D01*
X0113881Y0176068D02*
X0109255Y0176068D01*
X0109854Y0176667D02*
X0114480Y0176667D01*
X0115078Y0177265D02*
X0110452Y0177265D01*
X0111051Y0177864D02*
X0115677Y0177864D01*
X0116275Y0178462D02*
X0111649Y0178462D01*
X0112248Y0179061D02*
X0116874Y0179061D01*
X0117472Y0179659D02*
X0112846Y0179659D01*
X0113445Y0180258D02*
X0118071Y0180258D01*
X0118669Y0180856D02*
X0114043Y0180856D01*
X0114642Y0181455D02*
X0119268Y0181455D01*
X0119866Y0182053D02*
X0115240Y0182053D01*
X0115839Y0182652D02*
X0120465Y0182652D01*
X0120284Y0183250D02*
X0121063Y0183250D01*
X0121137Y0183849D02*
X0121662Y0183849D01*
X0121736Y0184447D02*
X0122260Y0184447D01*
X0122179Y0185046D02*
X0122859Y0185046D01*
X0122427Y0185644D02*
X0123457Y0185644D01*
X0123325Y0186243D02*
X0122675Y0186243D01*
X0122800Y0186841D02*
X0123200Y0186841D01*
X0123200Y0187440D02*
X0122800Y0187440D01*
X0122800Y0188039D02*
X0123200Y0188039D01*
X0123275Y0188637D02*
X0122725Y0188637D01*
X0122477Y0189236D02*
X0123523Y0189236D01*
X0123771Y0189834D02*
X0122229Y0189834D01*
X0121856Y0190433D02*
X0124144Y0190433D01*
X0124743Y0191031D02*
X0121257Y0191031D01*
X0120573Y0191630D02*
X0125427Y0191630D01*
X0126872Y0192228D02*
X0119128Y0192228D01*
X0116872Y0192228D02*
X0109629Y0192228D01*
X0109919Y0192134D02*
X0109171Y0192377D01*
X0108394Y0192500D01*
X0108300Y0192500D01*
X0108300Y0187800D01*
X0107700Y0187800D01*
X0107700Y0192500D01*
X0107606Y0192500D01*
X0106829Y0192377D01*
X0106081Y0192134D01*
X0105379Y0191776D01*
X0104743Y0191314D01*
X0104186Y0190757D01*
X0103724Y0190121D01*
X0103366Y0189419D01*
X0103123Y0188671D01*
X0103000Y0187894D01*
X0103000Y0187800D01*
X0107700Y0187800D01*
X0107700Y0187200D01*
X0103000Y0187200D01*
X0103000Y0187106D01*
X0103123Y0186329D01*
X0103366Y0185581D01*
X0103724Y0184879D01*
X0104186Y0184243D01*
X0104743Y0183686D01*
X0105379Y0183224D01*
X0106081Y0182866D01*
X0106829Y0182623D01*
X0107606Y0182500D01*
X0107700Y0182500D01*
X0107700Y0187200D01*
X0108300Y0187200D01*
X0108300Y0187800D01*
X0113000Y0187800D01*
X0113000Y0187894D01*
X0112877Y0188671D01*
X0112634Y0189419D01*
X0112276Y0190121D01*
X0111814Y0190757D01*
X0111257Y0191314D01*
X0110621Y0191776D01*
X0109919Y0192134D01*
X0110823Y0191630D02*
X0115427Y0191630D01*
X0114743Y0191031D02*
X0111540Y0191031D01*
X0112050Y0190433D02*
X0114144Y0190433D01*
X0113771Y0189834D02*
X0112422Y0189834D01*
X0112693Y0189236D02*
X0113523Y0189236D01*
X0113275Y0188637D02*
X0112882Y0188637D01*
X0112977Y0188039D02*
X0113200Y0188039D01*
X0113200Y0187440D02*
X0108300Y0187440D01*
X0108300Y0187200D02*
X0113000Y0187200D01*
X0113000Y0187106D01*
X0112877Y0186329D01*
X0112634Y0185581D01*
X0112276Y0184879D01*
X0111814Y0184243D01*
X0111257Y0183686D01*
X0110621Y0183224D01*
X0109919Y0182866D01*
X0109171Y0182623D01*
X0108394Y0182500D01*
X0108300Y0182500D01*
X0108300Y0187200D01*
X0108300Y0186841D02*
X0107700Y0186841D01*
X0107700Y0186243D02*
X0108300Y0186243D01*
X0108300Y0185644D02*
X0107700Y0185644D01*
X0107700Y0185046D02*
X0108300Y0185046D01*
X0108300Y0184447D02*
X0107700Y0184447D01*
X0107700Y0183849D02*
X0108300Y0183849D01*
X0108300Y0183250D02*
X0107700Y0183250D01*
X0107700Y0182652D02*
X0108300Y0182652D01*
X0109259Y0182652D02*
X0110465Y0182652D01*
X0110657Y0183250D02*
X0111063Y0183250D01*
X0111420Y0183849D02*
X0111662Y0183849D01*
X0111963Y0184447D02*
X0112260Y0184447D01*
X0112361Y0185046D02*
X0112859Y0185046D01*
X0112654Y0185644D02*
X0113457Y0185644D01*
X0113325Y0186243D02*
X0112849Y0186243D01*
X0112958Y0186841D02*
X0113200Y0186841D01*
X0108300Y0188039D02*
X0107700Y0188039D01*
X0107700Y0188637D02*
X0108300Y0188637D01*
X0108300Y0189236D02*
X0107700Y0189236D01*
X0107700Y0189834D02*
X0108300Y0189834D01*
X0108300Y0190433D02*
X0107700Y0190433D01*
X0107700Y0191031D02*
X0108300Y0191031D01*
X0108300Y0191630D02*
X0107700Y0191630D01*
X0107700Y0192228D02*
X0108300Y0192228D01*
X0106371Y0192228D02*
X0099128Y0192228D01*
X0098955Y0192300D02*
X0097045Y0192300D01*
X0095281Y0191569D01*
X0093931Y0190219D01*
X0093200Y0188455D01*
X0093200Y0186545D01*
X0093931Y0184781D01*
X0095281Y0183431D01*
X0097045Y0182700D01*
X0098955Y0182700D01*
X0100719Y0183431D01*
X0102069Y0184781D01*
X0102800Y0186545D01*
X0102800Y0188455D01*
X0102069Y0190219D01*
X0100719Y0191569D01*
X0098955Y0192300D01*
X0100573Y0191630D02*
X0105177Y0191630D01*
X0104460Y0191031D02*
X0101257Y0191031D01*
X0101856Y0190433D02*
X0103950Y0190433D01*
X0103578Y0189834D02*
X0102229Y0189834D01*
X0102477Y0189236D02*
X0103307Y0189236D01*
X0103118Y0188637D02*
X0102725Y0188637D01*
X0102800Y0188039D02*
X0103023Y0188039D01*
X0102800Y0187440D02*
X0107700Y0187440D01*
X0103042Y0186841D02*
X0102800Y0186841D01*
X0102675Y0186243D02*
X0103151Y0186243D01*
X0103346Y0185644D02*
X0102427Y0185644D01*
X0102179Y0185046D02*
X0103639Y0185046D01*
X0104037Y0184447D02*
X0101736Y0184447D01*
X0101137Y0183849D02*
X0104580Y0183849D01*
X0105343Y0183250D02*
X0100284Y0183250D01*
X0095716Y0183250D02*
X0090284Y0183250D01*
X0089900Y0183092D02*
X0090719Y0183431D01*
X0092069Y0184781D01*
X0092800Y0186545D01*
X0092800Y0188455D01*
X0092069Y0190219D01*
X0090719Y0191569D01*
X0088955Y0192300D01*
X0087045Y0192300D01*
X0085281Y0191569D01*
X0083931Y0190219D01*
X0083200Y0188455D01*
X0083200Y0186545D01*
X0083931Y0184781D01*
X0085281Y0183431D01*
X0086100Y0183092D01*
X0086100Y0171400D01*
X0084424Y0171400D01*
X0082991Y0170806D01*
X0081894Y0169709D01*
X0081300Y0168276D01*
X0081300Y0166724D01*
X0081894Y0165291D01*
X0082991Y0164194D01*
X0084424Y0163600D01*
X0091576Y0163600D01*
X0093009Y0164194D01*
X0094106Y0165291D01*
X0094700Y0166724D01*
X0094700Y0168276D01*
X0094106Y0169709D01*
X0093009Y0170806D01*
X0091576Y0171400D01*
X0089900Y0171400D01*
X0089900Y0183092D01*
X0089900Y0182652D02*
X0106741Y0182652D01*
X0108669Y0180856D02*
X0089900Y0180856D01*
X0089900Y0180258D02*
X0108071Y0180258D01*
X0107472Y0179659D02*
X0089900Y0179659D01*
X0089900Y0179061D02*
X0106874Y0179061D01*
X0106275Y0178462D02*
X0089900Y0178462D01*
X0089900Y0177864D02*
X0105677Y0177864D01*
X0105078Y0177265D02*
X0089900Y0177265D01*
X0089900Y0176667D02*
X0104480Y0176667D01*
X0103881Y0176068D02*
X0089900Y0176068D01*
X0089900Y0175470D02*
X0103283Y0175470D01*
X0102684Y0174871D02*
X0089900Y0174871D01*
X0089900Y0174273D02*
X0102086Y0174273D01*
X0101487Y0173674D02*
X0089900Y0173674D01*
X0089900Y0173076D02*
X0100889Y0173076D01*
X0100290Y0172477D02*
X0089900Y0172477D01*
X0089900Y0171879D02*
X0099692Y0171879D01*
X0099093Y0171280D02*
X0091865Y0171280D01*
X0093134Y0170682D02*
X0098495Y0170682D01*
X0097896Y0170083D02*
X0093732Y0170083D01*
X0094199Y0169485D02*
X0097298Y0169485D01*
X0096699Y0168886D02*
X0094447Y0168886D01*
X0094695Y0168288D02*
X0096101Y0168288D01*
X0096100Y0167689D02*
X0094700Y0167689D01*
X0094700Y0167091D02*
X0096100Y0167091D01*
X0096100Y0166492D02*
X0094604Y0166492D01*
X0094356Y0165894D02*
X0096100Y0165894D01*
X0096100Y0165295D02*
X0094108Y0165295D01*
X0093512Y0164697D02*
X0096100Y0164697D01*
X0096100Y0164098D02*
X0092778Y0164098D01*
X0091576Y0161400D02*
X0093009Y0160806D01*
X0094106Y0159709D01*
X0094700Y0158276D01*
X0094700Y0156724D01*
X0094106Y0155291D01*
X0093009Y0154194D01*
X0091576Y0153600D01*
X0084424Y0153600D01*
X0082991Y0154194D01*
X0081894Y0155291D01*
X0081300Y0156724D01*
X0081300Y0158276D01*
X0081894Y0159709D01*
X0082991Y0160806D01*
X0084424Y0161400D01*
X0091576Y0161400D01*
X0092287Y0161105D02*
X0096100Y0161105D01*
X0096100Y0160507D02*
X0093308Y0160507D01*
X0093907Y0159908D02*
X0096100Y0159908D01*
X0096100Y0159310D02*
X0094272Y0159310D01*
X0094520Y0158711D02*
X0096100Y0158711D01*
X0096100Y0158113D02*
X0094700Y0158113D01*
X0094700Y0157514D02*
X0096100Y0157514D01*
X0096100Y0156916D02*
X0094700Y0156916D01*
X0094531Y0156317D02*
X0096100Y0156317D01*
X0096100Y0155719D02*
X0094284Y0155719D01*
X0093936Y0155120D02*
X0096100Y0155120D01*
X0096100Y0154522D02*
X0093337Y0154522D01*
X0092356Y0153923D02*
X0096100Y0153923D01*
X0096100Y0153325D02*
X0074900Y0153325D01*
X0074900Y0153923D02*
X0083644Y0153923D01*
X0082663Y0154522D02*
X0074900Y0154522D01*
X0074900Y0155120D02*
X0082064Y0155120D01*
X0081716Y0155719D02*
X0074900Y0155719D01*
X0074900Y0156317D02*
X0081469Y0156317D01*
X0081300Y0156916D02*
X0074900Y0156916D01*
X0074900Y0157514D02*
X0081300Y0157514D01*
X0081300Y0158113D02*
X0074900Y0158113D01*
X0074900Y0158711D02*
X0081480Y0158711D01*
X0081728Y0159310D02*
X0074900Y0159310D01*
X0074900Y0159908D02*
X0082093Y0159908D01*
X0082692Y0160507D02*
X0074900Y0160507D01*
X0074900Y0161105D02*
X0083713Y0161105D01*
X0083222Y0164098D02*
X0074900Y0164098D01*
X0074900Y0163500D02*
X0096100Y0163500D01*
X0096100Y0162901D02*
X0074900Y0162901D01*
X0074900Y0162303D02*
X0096100Y0162303D01*
X0096100Y0161704D02*
X0074900Y0161704D01*
X0074900Y0164697D02*
X0082488Y0164697D01*
X0081892Y0165295D02*
X0074900Y0165295D01*
X0074900Y0165894D02*
X0081644Y0165894D01*
X0081396Y0166492D02*
X0074900Y0166492D01*
X0074900Y0167091D02*
X0081300Y0167091D01*
X0081300Y0167689D02*
X0074900Y0167689D01*
X0074900Y0168288D02*
X0081305Y0168288D01*
X0081553Y0168886D02*
X0074900Y0168886D01*
X0074900Y0169485D02*
X0081801Y0169485D01*
X0082268Y0170083D02*
X0074900Y0170083D01*
X0074900Y0170682D02*
X0082866Y0170682D01*
X0084135Y0171280D02*
X0074900Y0171280D01*
X0074900Y0171879D02*
X0086100Y0171879D01*
X0086100Y0172477D02*
X0074900Y0172477D01*
X0074900Y0173076D02*
X0086100Y0173076D01*
X0086100Y0173674D02*
X0074513Y0173674D01*
X0073914Y0174273D02*
X0086100Y0174273D01*
X0086100Y0174871D02*
X0073316Y0174871D01*
X0072717Y0175470D02*
X0086100Y0175470D01*
X0086100Y0176068D02*
X0072119Y0176068D01*
X0071520Y0176667D02*
X0086100Y0176667D01*
X0086100Y0177265D02*
X0070922Y0177265D01*
X0070323Y0177864D02*
X0086100Y0177864D01*
X0086100Y0178462D02*
X0069725Y0178462D01*
X0069126Y0179061D02*
X0086100Y0179061D01*
X0086100Y0179659D02*
X0068528Y0179659D01*
X0067929Y0180258D02*
X0086100Y0180258D01*
X0086100Y0180856D02*
X0067331Y0180856D01*
X0066900Y0181455D02*
X0086100Y0181455D01*
X0086100Y0182053D02*
X0066900Y0182053D01*
X0066900Y0182652D02*
X0086100Y0182652D01*
X0085716Y0183250D02*
X0066900Y0183250D01*
X0066900Y0183849D02*
X0084863Y0183849D01*
X0084264Y0184447D02*
X0066568Y0184447D01*
X0065969Y0185046D02*
X0083821Y0185046D01*
X0083573Y0185644D02*
X0065371Y0185644D01*
X0064772Y0186243D02*
X0083325Y0186243D01*
X0083200Y0186841D02*
X0037958Y0186841D01*
X0038000Y0187106D02*
X0038000Y0187200D01*
X0033300Y0187200D01*
X0033300Y0187800D01*
X0032700Y0187800D01*
X0032700Y0192500D01*
X0032606Y0192500D01*
X0031829Y0192377D01*
X0031081Y0192134D01*
X0030379Y0191776D01*
X0029743Y0191314D01*
X0029186Y0190757D01*
X0028724Y0190121D01*
X0028366Y0189419D01*
X0028123Y0188671D01*
X0028000Y0187894D01*
X0028000Y0187800D01*
X0032700Y0187800D01*
X0032700Y0187200D01*
X0028000Y0187200D01*
X0028000Y0187106D01*
X0028123Y0186329D01*
X0028366Y0185581D01*
X0028724Y0184879D01*
X0029186Y0184243D01*
X0029743Y0183686D01*
X0030379Y0183224D01*
X0031081Y0182866D01*
X0031829Y0182623D01*
X0032606Y0182500D01*
X0032700Y0182500D01*
X0032700Y0187200D01*
X0033300Y0187200D01*
X0033300Y0182500D01*
X0033394Y0182500D01*
X0034171Y0182623D01*
X0034919Y0182866D01*
X0035621Y0183224D01*
X0036257Y0183686D01*
X0036814Y0184243D01*
X0037276Y0184879D01*
X0037634Y0185581D01*
X0037877Y0186329D01*
X0038000Y0187106D01*
X0038000Y0187800D02*
X0038000Y0187894D01*
X0037877Y0188671D01*
X0037634Y0189419D01*
X0037276Y0190121D01*
X0036814Y0190757D01*
X0036257Y0191314D01*
X0035621Y0191776D01*
X0034919Y0192134D01*
X0034171Y0192377D01*
X0033394Y0192500D01*
X0033300Y0192500D01*
X0033300Y0187800D01*
X0038000Y0187800D01*
X0037977Y0188039D02*
X0083200Y0188039D01*
X0083200Y0187440D02*
X0033300Y0187440D01*
X0033300Y0188039D02*
X0032700Y0188039D01*
X0032700Y0188637D02*
X0033300Y0188637D01*
X0033300Y0189236D02*
X0032700Y0189236D01*
X0032700Y0189834D02*
X0033300Y0189834D01*
X0033300Y0190433D02*
X0032700Y0190433D01*
X0032700Y0191031D02*
X0033300Y0191031D01*
X0033300Y0191630D02*
X0032700Y0191630D01*
X0032700Y0192228D02*
X0033300Y0192228D01*
X0034629Y0192228D02*
X0086872Y0192228D01*
X0085427Y0191630D02*
X0035823Y0191630D01*
X0036540Y0191031D02*
X0084743Y0191031D01*
X0084144Y0190433D02*
X0037050Y0190433D01*
X0037422Y0189834D02*
X0083771Y0189834D01*
X0083523Y0189236D02*
X0037693Y0189236D01*
X0037882Y0188637D02*
X0083275Y0188637D01*
X0089128Y0192228D02*
X0096872Y0192228D01*
X0095427Y0191630D02*
X0090573Y0191630D01*
X0091257Y0191031D02*
X0094743Y0191031D01*
X0094144Y0190433D02*
X0091856Y0190433D01*
X0092229Y0189834D02*
X0093771Y0189834D01*
X0093523Y0189236D02*
X0092477Y0189236D01*
X0092725Y0188637D02*
X0093275Y0188637D01*
X0093200Y0188039D02*
X0092800Y0188039D01*
X0092800Y0187440D02*
X0093200Y0187440D01*
X0093200Y0186841D02*
X0092800Y0186841D01*
X0092675Y0186243D02*
X0093325Y0186243D01*
X0093573Y0185644D02*
X0092427Y0185644D01*
X0092179Y0185046D02*
X0093821Y0185046D01*
X0094264Y0184447D02*
X0091736Y0184447D01*
X0091137Y0183849D02*
X0094863Y0183849D01*
X0089900Y0182053D02*
X0109866Y0182053D01*
X0109268Y0181455D02*
X0089900Y0181455D01*
X0070934Y0171879D02*
X0062050Y0171879D01*
X0062050Y0172477D02*
X0070336Y0172477D01*
X0069737Y0173076D02*
X0062050Y0173076D01*
X0061703Y0173674D02*
X0069139Y0173674D01*
X0068540Y0174273D02*
X0061105Y0174273D01*
X0060506Y0174871D02*
X0067942Y0174871D01*
X0067343Y0175470D02*
X0060050Y0175470D01*
X0060050Y0176068D02*
X0066745Y0176068D01*
X0066146Y0176667D02*
X0060050Y0176667D01*
X0060050Y0177265D02*
X0065548Y0177265D01*
X0064949Y0177864D02*
X0060050Y0177864D01*
X0059725Y0178462D02*
X0064351Y0178462D01*
X0060924Y0179061D02*
X0059126Y0179061D01*
X0058528Y0179659D02*
X0060325Y0179659D01*
X0059727Y0180258D02*
X0057929Y0180258D01*
X0057331Y0180856D02*
X0059128Y0180856D01*
X0059100Y0181455D02*
X0056900Y0181455D01*
X0056900Y0182053D02*
X0059100Y0182053D01*
X0059100Y0182652D02*
X0056900Y0182652D01*
X0056900Y0183250D02*
X0059100Y0183250D01*
X0059100Y0183849D02*
X0056900Y0183849D01*
X0056568Y0184447D02*
X0059432Y0184447D01*
X0060031Y0185046D02*
X0055969Y0185046D01*
X0055371Y0185644D02*
X0060629Y0185644D01*
X0061228Y0186243D02*
X0054772Y0186243D01*
X0051228Y0186243D02*
X0037849Y0186243D01*
X0037654Y0185644D02*
X0050629Y0185644D01*
X0050031Y0185046D02*
X0037361Y0185046D01*
X0036963Y0184447D02*
X0049432Y0184447D01*
X0049100Y0183849D02*
X0036420Y0183849D01*
X0035657Y0183250D02*
X0049100Y0183250D01*
X0049100Y0182652D02*
X0034259Y0182652D01*
X0033300Y0182652D02*
X0032700Y0182652D01*
X0032700Y0183250D02*
X0033300Y0183250D01*
X0033300Y0183849D02*
X0032700Y0183849D01*
X0032700Y0184447D02*
X0033300Y0184447D01*
X0033300Y0185046D02*
X0032700Y0185046D01*
X0032700Y0185644D02*
X0033300Y0185644D01*
X0033300Y0186243D02*
X0032700Y0186243D01*
X0032700Y0186841D02*
X0033300Y0186841D01*
X0032700Y0187440D02*
X0017800Y0187440D01*
X0017800Y0188039D02*
X0028023Y0188039D01*
X0028118Y0188637D02*
X0017725Y0188637D01*
X0017477Y0189236D02*
X0028307Y0189236D01*
X0028578Y0189834D02*
X0017229Y0189834D01*
X0016856Y0190433D02*
X0028950Y0190433D01*
X0029460Y0191031D02*
X0016257Y0191031D01*
X0015573Y0191630D02*
X0030177Y0191630D01*
X0031371Y0192228D02*
X0014128Y0192228D01*
X0011872Y0192228D02*
X0004100Y0192228D01*
X0004100Y0191630D02*
X0010427Y0191630D01*
X0009743Y0191031D02*
X0004100Y0191031D01*
X0004100Y0190433D02*
X0009144Y0190433D01*
X0008771Y0189834D02*
X0004100Y0189834D01*
X0004100Y0189236D02*
X0008523Y0189236D01*
X0008275Y0188637D02*
X0004100Y0188637D01*
X0004100Y0188039D02*
X0008200Y0188039D01*
X0008200Y0187440D02*
X0004100Y0187440D01*
X0004100Y0186841D02*
X0008200Y0186841D01*
X0008325Y0186243D02*
X0004100Y0186243D01*
X0004100Y0185644D02*
X0008573Y0185644D01*
X0008821Y0185046D02*
X0004100Y0185046D01*
X0004100Y0184447D02*
X0009264Y0184447D01*
X0009863Y0183849D02*
X0004100Y0183849D01*
X0004100Y0183250D02*
X0010716Y0183250D01*
X0015161Y0182652D02*
X0004100Y0182652D01*
X0004100Y0182053D02*
X0015760Y0182053D01*
X0016358Y0181455D02*
X0004100Y0181455D01*
X0004100Y0180856D02*
X0016957Y0180856D01*
X0017555Y0180258D02*
X0004100Y0180258D01*
X0004100Y0179659D02*
X0018154Y0179659D01*
X0018752Y0179061D02*
X0004100Y0179061D01*
X0004100Y0178462D02*
X0019351Y0178462D01*
X0019949Y0177864D02*
X0004100Y0177864D01*
X0004100Y0177265D02*
X0020548Y0177265D01*
X0021146Y0176667D02*
X0004100Y0176667D01*
X0004100Y0176068D02*
X0021745Y0176068D01*
X0022343Y0175470D02*
X0004100Y0175470D01*
X0004100Y0174871D02*
X0022942Y0174871D01*
X0023540Y0174273D02*
X0004100Y0174273D01*
X0004100Y0173674D02*
X0024139Y0173674D01*
X0024737Y0173076D02*
X0004100Y0173076D01*
X0004100Y0172477D02*
X0025336Y0172477D01*
X0025934Y0171879D02*
X0004100Y0171879D01*
X0004100Y0171280D02*
X0026100Y0171280D01*
X0026100Y0170682D02*
X0004100Y0170682D01*
X0004100Y0170083D02*
X0026100Y0170083D01*
X0026100Y0169485D02*
X0004100Y0169485D01*
X0018740Y0184447D02*
X0029037Y0184447D01*
X0028639Y0185046D02*
X0018141Y0185046D01*
X0017543Y0185644D02*
X0028346Y0185644D01*
X0028151Y0186243D02*
X0017675Y0186243D01*
X0017800Y0186841D02*
X0028042Y0186841D01*
X0029580Y0183849D02*
X0019338Y0183849D01*
X0019937Y0183250D02*
X0030343Y0183250D01*
X0031741Y0182652D02*
X0020535Y0182652D01*
X0021134Y0182053D02*
X0049100Y0182053D01*
X0049100Y0181455D02*
X0021732Y0181455D01*
X0022331Y0180856D02*
X0049128Y0180856D01*
X0049727Y0180258D02*
X0022929Y0180258D01*
X0023528Y0179659D02*
X0050325Y0179659D01*
X0050924Y0179061D02*
X0024126Y0179061D01*
X0024725Y0178462D02*
X0054351Y0178462D01*
X0054949Y0177864D02*
X0025323Y0177864D01*
X0025922Y0177265D02*
X0055548Y0177265D01*
X0056146Y0176667D02*
X0026520Y0176667D01*
X0004100Y0192827D02*
X0198750Y0192827D01*
X0198750Y0193425D02*
X0004100Y0193425D01*
X0004100Y0194024D02*
X0198750Y0194024D01*
X0198750Y0194622D02*
X0004100Y0194622D01*
X0004100Y0195221D02*
X0198750Y0195221D01*
X0198750Y0195819D02*
X0004100Y0195819D01*
X0004100Y0196418D02*
X0198750Y0196418D01*
X0198750Y0197016D02*
X0004100Y0197016D01*
X0004100Y0197615D02*
X0198750Y0197615D01*
X0198750Y0198213D02*
X0004100Y0198213D01*
X0060240Y0168288D02*
X0071100Y0168288D01*
X0071100Y0168886D02*
X0060839Y0168886D01*
X0061437Y0169485D02*
X0071100Y0169485D01*
X0071100Y0170083D02*
X0062036Y0170083D01*
X0062050Y0170682D02*
X0071100Y0170682D01*
X0071100Y0171280D02*
X0062050Y0171280D01*
X0074900Y0152726D02*
X0096100Y0152726D01*
X0096100Y0152128D02*
X0074900Y0152128D01*
X0074900Y0151529D02*
X0096100Y0151529D01*
X0096100Y0150931D02*
X0092708Y0150931D01*
X0093483Y0150332D02*
X0096100Y0150332D01*
X0096100Y0149734D02*
X0094082Y0149734D01*
X0094344Y0149135D02*
X0096100Y0149135D01*
X0096100Y0148537D02*
X0094592Y0148537D01*
X0094700Y0147938D02*
X0095751Y0147938D01*
X0095153Y0147340D02*
X0094700Y0147340D01*
X0090963Y0143150D02*
X0074900Y0143150D01*
X0074900Y0142552D02*
X0090365Y0142552D01*
X0089766Y0141953D02*
X0074900Y0141953D01*
X0074900Y0141355D02*
X0084315Y0141355D01*
X0082941Y0140756D02*
X0074900Y0140756D01*
X0074900Y0140158D02*
X0082342Y0140158D01*
X0081832Y0139559D02*
X0074900Y0139559D01*
X0074900Y0138961D02*
X0081584Y0138961D01*
X0081336Y0138362D02*
X0074900Y0138362D01*
X0074900Y0137764D02*
X0081300Y0137764D01*
X0081300Y0137165D02*
X0074900Y0137165D01*
X0074900Y0136567D02*
X0081365Y0136567D01*
X0081613Y0135968D02*
X0074900Y0135968D01*
X0074900Y0135370D02*
X0081861Y0135370D01*
X0082414Y0134771D02*
X0074900Y0134771D01*
X0074900Y0134172D02*
X0083042Y0134172D01*
X0083893Y0131180D02*
X0074900Y0131180D01*
X0074900Y0131778D02*
X0094591Y0131778D01*
X0093993Y0131180D02*
X0092107Y0131180D01*
X0093234Y0130581D02*
X0093394Y0130581D01*
X0095190Y0132377D02*
X0074900Y0132377D01*
X0074900Y0132975D02*
X0095788Y0132975D01*
X0096387Y0133574D02*
X0074900Y0133574D01*
X0074900Y0130581D02*
X0082766Y0130581D01*
X0082167Y0129983D02*
X0074900Y0129983D01*
X0074900Y0129384D02*
X0081759Y0129384D01*
X0081511Y0128786D02*
X0074900Y0128786D01*
X0074900Y0128187D02*
X0081300Y0128187D01*
X0081300Y0127589D02*
X0074900Y0127589D01*
X0074900Y0126990D02*
X0081300Y0126990D01*
X0081438Y0126392D02*
X0074900Y0126392D01*
X0074900Y0125793D02*
X0081686Y0125793D01*
X0081990Y0125195D02*
X0074900Y0125195D01*
X0074900Y0124596D02*
X0082588Y0124596D01*
X0083464Y0123998D02*
X0074900Y0123998D01*
X0074900Y0123399D02*
X0176100Y0123399D01*
X0176100Y0122801D02*
X0074900Y0122801D01*
X0074900Y0122202D02*
X0176100Y0122202D01*
X0176100Y0121604D02*
X0074900Y0121604D01*
X0074900Y0121005D02*
X0083471Y0121005D01*
X0082591Y0120407D02*
X0074900Y0120407D01*
X0074900Y0119808D02*
X0081993Y0119808D01*
X0081687Y0119210D02*
X0074900Y0119210D01*
X0074900Y0118611D02*
X0081439Y0118611D01*
X0081300Y0118013D02*
X0074900Y0118013D01*
X0074900Y0117414D02*
X0081300Y0117414D01*
X0081300Y0116816D02*
X0074900Y0116816D01*
X0074900Y0116217D02*
X0081510Y0116217D01*
X0081758Y0115619D02*
X0074900Y0115619D01*
X0074900Y0115020D02*
X0082164Y0115020D01*
X0082763Y0114422D02*
X0074900Y0114422D01*
X0074900Y0113823D02*
X0083886Y0113823D01*
X0074900Y0113225D02*
X0176100Y0113225D01*
X0176100Y0113823D02*
X0122114Y0113823D01*
X0123237Y0114422D02*
X0176100Y0114422D01*
X0176100Y0115020D02*
X0123836Y0115020D01*
X0124242Y0115619D02*
X0176100Y0115619D01*
X0176100Y0116217D02*
X0124490Y0116217D01*
X0124700Y0116816D02*
X0176100Y0116816D01*
X0176100Y0117414D02*
X0124700Y0117414D01*
X0124700Y0118013D02*
X0176100Y0118013D01*
X0176100Y0118611D02*
X0124561Y0118611D01*
X0124313Y0119210D02*
X0176100Y0119210D01*
X0176100Y0119808D02*
X0124007Y0119808D01*
X0123409Y0120407D02*
X0176100Y0120407D01*
X0176100Y0121005D02*
X0122529Y0121005D01*
X0122536Y0123998D02*
X0176100Y0123998D01*
X0176100Y0124596D02*
X0123412Y0124596D01*
X0124010Y0125195D02*
X0176100Y0125195D01*
X0176100Y0125793D02*
X0124314Y0125793D01*
X0124562Y0126392D02*
X0176100Y0126392D01*
X0176100Y0126990D02*
X0124700Y0126990D01*
X0124700Y0127589D02*
X0176100Y0127589D01*
X0176100Y0128187D02*
X0153509Y0128187D01*
X0154108Y0128786D02*
X0176100Y0128786D01*
X0175600Y0129384D02*
X0154706Y0129384D01*
X0155305Y0129983D02*
X0175002Y0129983D01*
X0174403Y0130581D02*
X0155336Y0130581D01*
X0155336Y0131180D02*
X0171633Y0131180D01*
X0171035Y0131778D02*
X0151536Y0131778D01*
X0151536Y0132013D02*
X0155336Y0132013D01*
X0155336Y0133411D01*
X0152934Y0135813D01*
X0151536Y0135813D01*
X0151536Y0132013D01*
X0151536Y0132377D02*
X0150936Y0132377D01*
X0150936Y0132975D02*
X0151536Y0132975D01*
X0151536Y0133574D02*
X0150936Y0133574D01*
X0150936Y0134172D02*
X0151536Y0134172D01*
X0151536Y0134771D02*
X0150936Y0134771D01*
X0150936Y0135370D02*
X0151536Y0135370D01*
X0153378Y0135370D02*
X0167443Y0135370D01*
X0166845Y0135968D02*
X0124387Y0135968D01*
X0124635Y0136567D02*
X0166246Y0136567D01*
X0165648Y0137165D02*
X0124700Y0137165D01*
X0124700Y0137764D02*
X0165049Y0137764D01*
X0164451Y0138362D02*
X0124664Y0138362D01*
X0124416Y0138961D02*
X0163852Y0138961D01*
X0163254Y0139559D02*
X0124168Y0139559D01*
X0123658Y0140158D02*
X0162655Y0140158D01*
X0162057Y0140756D02*
X0123059Y0140756D01*
X0121685Y0141355D02*
X0161458Y0141355D01*
X0160860Y0141953D02*
X0104900Y0141953D01*
X0104900Y0141355D02*
X0114315Y0141355D01*
X0112941Y0140756D02*
X0104900Y0140756D01*
X0104900Y0140158D02*
X0112342Y0140158D01*
X0111832Y0139559D02*
X0104900Y0139559D01*
X0104900Y0138961D02*
X0111584Y0138961D01*
X0111336Y0138362D02*
X0104900Y0138362D01*
X0104900Y0137764D02*
X0111300Y0137764D01*
X0111300Y0137165D02*
X0104900Y0137165D01*
X0104754Y0136567D02*
X0111365Y0136567D01*
X0111613Y0135968D02*
X0104155Y0135968D01*
X0103557Y0135370D02*
X0111861Y0135370D01*
X0112414Y0134771D02*
X0102958Y0134771D01*
X0104900Y0142552D02*
X0160261Y0142552D01*
X0159663Y0143150D02*
X0104900Y0143150D01*
X0104900Y0143749D02*
X0114065Y0143749D01*
X0114424Y0143600D02*
X0121576Y0143600D01*
X0123009Y0144194D01*
X0124106Y0145291D01*
X0124700Y0146724D01*
X0124700Y0148276D01*
X0124106Y0149709D01*
X0123009Y0150806D01*
X0121576Y0151400D01*
X0114424Y0151400D01*
X0112991Y0150806D01*
X0111894Y0149709D01*
X0111300Y0148276D01*
X0111300Y0146724D01*
X0111894Y0145291D01*
X0112991Y0144194D01*
X0114424Y0143600D01*
X0112837Y0144347D02*
X0104900Y0144347D01*
X0104900Y0144946D02*
X0112239Y0144946D01*
X0111789Y0145544D02*
X0104900Y0145544D01*
X0104900Y0146143D02*
X0111541Y0146143D01*
X0111300Y0146741D02*
X0104900Y0146741D01*
X0104900Y0147340D02*
X0111300Y0147340D01*
X0111300Y0147938D02*
X0104900Y0147938D01*
X0104900Y0148537D02*
X0111408Y0148537D01*
X0111656Y0149135D02*
X0104900Y0149135D01*
X0104900Y0149734D02*
X0111918Y0149734D01*
X0112517Y0150332D02*
X0104900Y0150332D01*
X0104900Y0150931D02*
X0113292Y0150931D01*
X0114240Y0153501D02*
X0114877Y0153400D01*
X0117700Y0153400D01*
X0117700Y0157200D01*
X0118300Y0157200D01*
X0118300Y0157800D01*
X0117700Y0157800D01*
X0117700Y0161600D01*
X0114877Y0161600D01*
X0114240Y0161499D01*
X0113626Y0161300D01*
X0113051Y0161007D01*
X0112529Y0160627D01*
X0112073Y0160171D01*
X0111693Y0159649D01*
X0111400Y0159074D01*
X0111201Y0158460D01*
X0111100Y0157823D01*
X0111100Y0157800D01*
X0117700Y0157800D01*
X0117700Y0157200D01*
X0111100Y0157200D01*
X0111100Y0157177D01*
X0111201Y0156540D01*
X0111400Y0155926D01*
X0111693Y0155351D01*
X0112073Y0154829D01*
X0112529Y0154373D01*
X0113051Y0153993D01*
X0113626Y0153700D01*
X0114240Y0153501D01*
X0113189Y0153923D02*
X0104900Y0153923D01*
X0104900Y0153325D02*
X0149488Y0153325D01*
X0148890Y0153923D02*
X0140222Y0153923D01*
X0139698Y0153400D02*
X0142100Y0155802D01*
X0142100Y0157200D01*
X0138300Y0157200D01*
X0138300Y0157800D01*
X0137700Y0157800D01*
X0137700Y0161600D01*
X0136302Y0161600D01*
X0133900Y0159198D01*
X0133900Y0157800D01*
X0137700Y0157800D01*
X0137700Y0157200D01*
X0133900Y0157200D01*
X0133900Y0155802D01*
X0136302Y0153400D01*
X0137700Y0153400D01*
X0137700Y0157200D01*
X0138300Y0157200D01*
X0138300Y0153400D01*
X0139698Y0153400D01*
X0138300Y0153923D02*
X0137700Y0153923D01*
X0137700Y0154522D02*
X0138300Y0154522D01*
X0138300Y0155120D02*
X0137700Y0155120D01*
X0137700Y0155719D02*
X0138300Y0155719D01*
X0138300Y0156317D02*
X0137700Y0156317D01*
X0137700Y0156916D02*
X0138300Y0156916D01*
X0138300Y0157514D02*
X0145299Y0157514D01*
X0145897Y0156916D02*
X0142100Y0156916D01*
X0142100Y0156317D02*
X0146496Y0156317D01*
X0147094Y0155719D02*
X0142017Y0155719D01*
X0141419Y0155120D02*
X0147693Y0155120D01*
X0148291Y0154522D02*
X0140820Y0154522D01*
X0142100Y0157800D02*
X0142100Y0159198D01*
X0139698Y0161600D01*
X0138300Y0161600D01*
X0138300Y0157800D01*
X0142100Y0157800D01*
X0142100Y0158113D02*
X0144700Y0158113D01*
X0144102Y0158711D02*
X0142100Y0158711D01*
X0141988Y0159310D02*
X0143503Y0159310D01*
X0142905Y0159908D02*
X0141390Y0159908D01*
X0140791Y0160507D02*
X0142306Y0160507D01*
X0141707Y0161105D02*
X0140193Y0161105D01*
X0141109Y0161704D02*
X0104900Y0161704D01*
X0104900Y0161105D02*
X0113245Y0161105D01*
X0112409Y0160507D02*
X0104900Y0160507D01*
X0104900Y0159908D02*
X0111882Y0159908D01*
X0111521Y0159310D02*
X0104900Y0159310D01*
X0104900Y0158711D02*
X0111283Y0158711D01*
X0111146Y0158113D02*
X0104900Y0158113D01*
X0104900Y0157514D02*
X0117700Y0157514D01*
X0117700Y0156916D02*
X0118300Y0156916D01*
X0118300Y0157200D02*
X0118300Y0153400D01*
X0121123Y0153400D01*
X0121760Y0153501D01*
X0122374Y0153700D01*
X0122949Y0153993D01*
X0123471Y0154373D01*
X0123927Y0154829D01*
X0124307Y0155351D01*
X0124600Y0155926D01*
X0124799Y0156540D01*
X0124900Y0157177D01*
X0124900Y0157200D01*
X0118300Y0157200D01*
X0118300Y0157514D02*
X0137700Y0157514D01*
X0137700Y0158113D02*
X0138300Y0158113D01*
X0138300Y0158711D02*
X0137700Y0158711D01*
X0137700Y0159310D02*
X0138300Y0159310D01*
X0138300Y0159908D02*
X0137700Y0159908D01*
X0137700Y0160507D02*
X0138300Y0160507D01*
X0138300Y0161105D02*
X0137700Y0161105D01*
X0135807Y0161105D02*
X0122755Y0161105D01*
X0122949Y0161007D02*
X0122374Y0161300D01*
X0121760Y0161499D01*
X0121123Y0161600D01*
X0118300Y0161600D01*
X0118300Y0157800D01*
X0124900Y0157800D01*
X0124900Y0157823D01*
X0124799Y0158460D01*
X0124600Y0159074D01*
X0124307Y0159649D01*
X0123927Y0160171D01*
X0123471Y0160627D01*
X0122949Y0161007D01*
X0123591Y0160507D02*
X0135209Y0160507D01*
X0134610Y0159908D02*
X0124118Y0159908D01*
X0124479Y0159310D02*
X0134012Y0159310D01*
X0133900Y0158711D02*
X0124717Y0158711D01*
X0124854Y0158113D02*
X0133900Y0158113D01*
X0133900Y0156916D02*
X0124859Y0156916D01*
X0124727Y0156317D02*
X0133900Y0156317D01*
X0133983Y0155719D02*
X0124494Y0155719D01*
X0124139Y0155120D02*
X0134581Y0155120D01*
X0135180Y0154522D02*
X0123620Y0154522D01*
X0122811Y0153923D02*
X0135778Y0153923D01*
X0140510Y0162303D02*
X0105490Y0162303D01*
X0106088Y0162901D02*
X0139912Y0162901D01*
X0139313Y0163500D02*
X0106687Y0163500D01*
X0107285Y0164098D02*
X0113222Y0164098D01*
X0112488Y0164697D02*
X0107884Y0164697D01*
X0108482Y0165295D02*
X0111892Y0165295D01*
X0111644Y0165894D02*
X0109081Y0165894D01*
X0109679Y0166492D02*
X0111396Y0166492D01*
X0111300Y0167091D02*
X0110278Y0167091D01*
X0110876Y0167689D02*
X0111300Y0167689D01*
X0115066Y0171879D02*
X0147336Y0171879D01*
X0147336Y0172477D02*
X0115664Y0172477D01*
X0116263Y0173076D02*
X0147336Y0173076D01*
X0147336Y0173328D02*
X0147336Y0170097D01*
X0149621Y0167813D01*
X0152852Y0167813D01*
X0155136Y0170097D01*
X0155136Y0173328D01*
X0152852Y0175613D01*
X0149621Y0175613D01*
X0147336Y0173328D01*
X0147682Y0173674D02*
X0116861Y0173674D01*
X0117460Y0174273D02*
X0148281Y0174273D01*
X0148879Y0174871D02*
X0118058Y0174871D01*
X0118657Y0175470D02*
X0149478Y0175470D01*
X0152994Y0175470D02*
X0175454Y0175470D01*
X0174856Y0174871D02*
X0153593Y0174871D01*
X0154191Y0174273D02*
X0174257Y0174273D01*
X0174100Y0174115D02*
X0174100Y0170885D01*
X0176385Y0168600D01*
X0179615Y0168600D01*
X0181900Y0170885D01*
X0181900Y0174115D01*
X0179615Y0176400D01*
X0176385Y0176400D01*
X0174100Y0174115D01*
X0174100Y0173674D02*
X0154790Y0173674D01*
X0155136Y0173076D02*
X0174100Y0173076D01*
X0174100Y0172477D02*
X0155136Y0172477D01*
X0155136Y0171879D02*
X0174100Y0171879D01*
X0174100Y0171280D02*
X0155136Y0171280D01*
X0155136Y0170682D02*
X0174303Y0170682D01*
X0174901Y0170083D02*
X0155122Y0170083D01*
X0154524Y0169485D02*
X0175500Y0169485D01*
X0176098Y0168886D02*
X0153925Y0168886D01*
X0153327Y0168288D02*
X0198750Y0168288D01*
X0198750Y0168886D02*
X0179902Y0168886D01*
X0180500Y0169485D02*
X0198750Y0169485D01*
X0198750Y0170083D02*
X0181099Y0170083D01*
X0181697Y0170682D02*
X0198750Y0170682D01*
X0198750Y0171280D02*
X0181900Y0171280D01*
X0181900Y0171879D02*
X0198750Y0171879D01*
X0198750Y0172477D02*
X0181900Y0172477D01*
X0181900Y0173076D02*
X0198750Y0173076D01*
X0198750Y0173674D02*
X0181900Y0173674D01*
X0181743Y0174273D02*
X0198750Y0174273D01*
X0198750Y0174871D02*
X0181144Y0174871D01*
X0180546Y0175470D02*
X0198750Y0175470D01*
X0198750Y0176068D02*
X0179947Y0176068D01*
X0176053Y0176068D02*
X0119255Y0176068D01*
X0119854Y0176667D02*
X0198750Y0176667D01*
X0198750Y0177265D02*
X0120452Y0177265D01*
X0121051Y0177864D02*
X0198750Y0177864D01*
X0198750Y0178462D02*
X0121649Y0178462D01*
X0122248Y0179061D02*
X0198750Y0179061D01*
X0198750Y0179659D02*
X0122846Y0179659D01*
X0123445Y0180258D02*
X0198750Y0180258D01*
X0198750Y0180856D02*
X0124043Y0180856D01*
X0124642Y0181455D02*
X0198750Y0181455D01*
X0198750Y0182053D02*
X0125240Y0182053D01*
X0125839Y0182652D02*
X0186741Y0182652D01*
X0186829Y0182623D02*
X0187606Y0182500D01*
X0187700Y0182500D01*
X0187700Y0187200D01*
X0183000Y0187200D01*
X0183000Y0187106D01*
X0183123Y0186329D01*
X0183366Y0185581D01*
X0183724Y0184879D01*
X0184186Y0184243D01*
X0184743Y0183686D01*
X0185379Y0183224D01*
X0186081Y0182866D01*
X0186829Y0182623D01*
X0187700Y0182652D02*
X0188300Y0182652D01*
X0188300Y0182500D02*
X0188394Y0182500D01*
X0189171Y0182623D01*
X0189919Y0182866D01*
X0190621Y0183224D01*
X0191257Y0183686D01*
X0191814Y0184243D01*
X0192276Y0184879D01*
X0192634Y0185581D01*
X0192877Y0186329D01*
X0193000Y0187106D01*
X0193000Y0187200D01*
X0188300Y0187200D01*
X0188300Y0187800D01*
X0187700Y0187800D01*
X0187700Y0192500D01*
X0187606Y0192500D01*
X0186829Y0192377D01*
X0186081Y0192134D01*
X0185379Y0191776D01*
X0184743Y0191314D01*
X0184186Y0190757D01*
X0183724Y0190121D01*
X0183366Y0189419D01*
X0183123Y0188671D01*
X0183000Y0187894D01*
X0183000Y0187800D01*
X0187700Y0187800D01*
X0187700Y0187200D01*
X0188300Y0187200D01*
X0188300Y0182500D01*
X0188300Y0183250D02*
X0187700Y0183250D01*
X0187700Y0183849D02*
X0188300Y0183849D01*
X0188300Y0184447D02*
X0187700Y0184447D01*
X0187700Y0185046D02*
X0188300Y0185046D01*
X0188300Y0185644D02*
X0187700Y0185644D01*
X0187700Y0186243D02*
X0188300Y0186243D01*
X0188300Y0186841D02*
X0187700Y0186841D01*
X0187700Y0187440D02*
X0172800Y0187440D01*
X0172800Y0188039D02*
X0183023Y0188039D01*
X0183118Y0188637D02*
X0172725Y0188637D01*
X0172800Y0188455D02*
X0172069Y0190219D01*
X0170719Y0191569D01*
X0168955Y0192300D01*
X0167045Y0192300D01*
X0165281Y0191569D01*
X0163931Y0190219D01*
X0163200Y0188455D01*
X0163200Y0186545D01*
X0163931Y0184781D01*
X0165281Y0183431D01*
X0167045Y0182700D01*
X0168955Y0182700D01*
X0170719Y0183431D01*
X0172069Y0184781D01*
X0172800Y0186545D01*
X0172800Y0188455D01*
X0172477Y0189236D02*
X0183307Y0189236D01*
X0183578Y0189834D02*
X0172229Y0189834D01*
X0171856Y0190433D02*
X0183950Y0190433D01*
X0184460Y0191031D02*
X0171257Y0191031D01*
X0170573Y0191630D02*
X0185177Y0191630D01*
X0186371Y0192228D02*
X0169128Y0192228D01*
X0166872Y0192228D02*
X0129128Y0192228D01*
X0130573Y0191630D02*
X0165427Y0191630D01*
X0164743Y0191031D02*
X0154984Y0191031D01*
X0154615Y0191400D02*
X0156900Y0189115D01*
X0156900Y0185885D01*
X0154615Y0183600D01*
X0151385Y0183600D01*
X0149100Y0185885D01*
X0149100Y0189115D01*
X0151385Y0191400D01*
X0154615Y0191400D01*
X0155583Y0190433D02*
X0164144Y0190433D01*
X0163771Y0189834D02*
X0156181Y0189834D01*
X0156780Y0189236D02*
X0163523Y0189236D01*
X0163275Y0188637D02*
X0156900Y0188637D01*
X0156900Y0188039D02*
X0163200Y0188039D01*
X0163200Y0187440D02*
X0156900Y0187440D01*
X0156900Y0186841D02*
X0163200Y0186841D01*
X0163325Y0186243D02*
X0156900Y0186243D01*
X0156660Y0185644D02*
X0163573Y0185644D01*
X0163821Y0185046D02*
X0156061Y0185046D01*
X0155463Y0184447D02*
X0164264Y0184447D01*
X0164863Y0183849D02*
X0154864Y0183849D01*
X0151136Y0183849D02*
X0144864Y0183849D01*
X0144615Y0183600D02*
X0146900Y0185885D01*
X0146900Y0189115D01*
X0144615Y0191400D01*
X0141385Y0191400D01*
X0139100Y0189115D01*
X0139100Y0185885D01*
X0141385Y0183600D01*
X0144615Y0183600D01*
X0145463Y0184447D02*
X0150537Y0184447D01*
X0149939Y0185046D02*
X0146061Y0185046D01*
X0146660Y0185644D02*
X0149340Y0185644D01*
X0149100Y0186243D02*
X0146900Y0186243D01*
X0146900Y0186841D02*
X0149100Y0186841D01*
X0149100Y0187440D02*
X0146900Y0187440D01*
X0146900Y0188039D02*
X0149100Y0188039D01*
X0149100Y0188637D02*
X0146900Y0188637D01*
X0146780Y0189236D02*
X0149220Y0189236D01*
X0149819Y0189834D02*
X0146181Y0189834D01*
X0145583Y0190433D02*
X0150417Y0190433D01*
X0151016Y0191031D02*
X0144984Y0191031D01*
X0141016Y0191031D02*
X0131257Y0191031D01*
X0131856Y0190433D02*
X0140417Y0190433D01*
X0139819Y0189834D02*
X0132229Y0189834D01*
X0132477Y0189236D02*
X0139220Y0189236D01*
X0139100Y0188637D02*
X0132725Y0188637D01*
X0132800Y0188039D02*
X0139100Y0188039D01*
X0139100Y0187440D02*
X0132800Y0187440D01*
X0132800Y0186841D02*
X0139100Y0186841D01*
X0139100Y0186243D02*
X0132675Y0186243D01*
X0132427Y0185644D02*
X0139340Y0185644D01*
X0139939Y0185046D02*
X0132179Y0185046D01*
X0131736Y0184447D02*
X0140537Y0184447D01*
X0141136Y0183849D02*
X0131137Y0183849D01*
X0130284Y0183250D02*
X0165716Y0183250D01*
X0170284Y0183250D02*
X0185343Y0183250D01*
X0184580Y0183849D02*
X0171137Y0183849D01*
X0171736Y0184447D02*
X0184037Y0184447D01*
X0183639Y0185046D02*
X0172179Y0185046D01*
X0172427Y0185644D02*
X0183346Y0185644D01*
X0183151Y0186243D02*
X0172675Y0186243D01*
X0172800Y0186841D02*
X0183042Y0186841D01*
X0187700Y0188039D02*
X0188300Y0188039D01*
X0188300Y0187800D02*
X0188300Y0192500D01*
X0188394Y0192500D01*
X0189171Y0192377D01*
X0189919Y0192134D01*
X0190621Y0191776D01*
X0191257Y0191314D01*
X0191814Y0190757D01*
X0192276Y0190121D01*
X0192634Y0189419D01*
X0192877Y0188671D01*
X0193000Y0187894D01*
X0193000Y0187800D01*
X0188300Y0187800D01*
X0188300Y0187440D02*
X0198750Y0187440D01*
X0198750Y0188039D02*
X0192977Y0188039D01*
X0192882Y0188637D02*
X0198750Y0188637D01*
X0198750Y0189236D02*
X0192693Y0189236D01*
X0192422Y0189834D02*
X0198750Y0189834D01*
X0198750Y0190433D02*
X0192050Y0190433D01*
X0191540Y0191031D02*
X0198750Y0191031D01*
X0198750Y0191630D02*
X0190823Y0191630D01*
X0189629Y0192228D02*
X0198750Y0192228D01*
X0198750Y0186841D02*
X0192958Y0186841D01*
X0192849Y0186243D02*
X0198750Y0186243D01*
X0198750Y0185644D02*
X0192654Y0185644D01*
X0192361Y0185046D02*
X0198750Y0185046D01*
X0198750Y0184447D02*
X0191963Y0184447D01*
X0191420Y0183849D02*
X0198750Y0183849D01*
X0198750Y0183250D02*
X0190657Y0183250D01*
X0189259Y0182652D02*
X0198750Y0182652D01*
X0188300Y0188637D02*
X0187700Y0188637D01*
X0187700Y0189236D02*
X0188300Y0189236D01*
X0188300Y0189834D02*
X0187700Y0189834D01*
X0187700Y0190433D02*
X0188300Y0190433D01*
X0188300Y0191031D02*
X0187700Y0191031D01*
X0187700Y0191630D02*
X0188300Y0191630D01*
X0188300Y0192228D02*
X0187700Y0192228D01*
X0198750Y0167689D02*
X0141900Y0167689D01*
X0141900Y0167091D02*
X0198750Y0167091D01*
X0198750Y0166492D02*
X0141900Y0166492D01*
X0142293Y0165894D02*
X0198750Y0165894D01*
X0198750Y0165295D02*
X0142892Y0165295D01*
X0143490Y0164697D02*
X0198750Y0164697D01*
X0198750Y0164098D02*
X0144089Y0164098D01*
X0144687Y0163500D02*
X0198750Y0163500D01*
X0198750Y0162901D02*
X0145286Y0162901D01*
X0145884Y0162303D02*
X0198750Y0162303D01*
X0198750Y0161704D02*
X0146483Y0161704D01*
X0147081Y0161105D02*
X0198750Y0161105D01*
X0198750Y0160507D02*
X0147680Y0160507D01*
X0148279Y0159908D02*
X0198750Y0159908D01*
X0198750Y0159310D02*
X0148877Y0159310D01*
X0149476Y0158711D02*
X0198750Y0158711D01*
X0198750Y0158113D02*
X0150074Y0158113D01*
X0150673Y0157514D02*
X0198750Y0157514D01*
X0198750Y0156916D02*
X0151271Y0156916D01*
X0151870Y0156317D02*
X0198750Y0156317D01*
X0198750Y0155719D02*
X0152468Y0155719D01*
X0153067Y0155120D02*
X0198750Y0155120D01*
X0198750Y0154522D02*
X0153665Y0154522D01*
X0154264Y0153923D02*
X0198750Y0153923D01*
X0198750Y0153325D02*
X0154862Y0153325D01*
X0155461Y0152726D02*
X0198750Y0152726D01*
X0198750Y0152128D02*
X0189370Y0152128D01*
X0188955Y0152300D02*
X0190719Y0151569D01*
X0192069Y0150219D01*
X0192800Y0148455D01*
X0192800Y0146545D01*
X0192069Y0144781D01*
X0190719Y0143431D01*
X0188955Y0142700D01*
X0187045Y0142700D01*
X0185281Y0143431D01*
X0183931Y0144781D01*
X0183200Y0146545D01*
X0183200Y0148455D01*
X0183931Y0150219D01*
X0185281Y0151569D01*
X0187045Y0152300D01*
X0188955Y0152300D01*
X0190759Y0151529D02*
X0198750Y0151529D01*
X0198750Y0150931D02*
X0191357Y0150931D01*
X0191956Y0150332D02*
X0198750Y0150332D01*
X0198750Y0149734D02*
X0192270Y0149734D01*
X0192518Y0149135D02*
X0198750Y0149135D01*
X0198750Y0148537D02*
X0192766Y0148537D01*
X0192800Y0147938D02*
X0198750Y0147938D01*
X0198750Y0147340D02*
X0192800Y0147340D01*
X0192800Y0146741D02*
X0198750Y0146741D01*
X0198750Y0146143D02*
X0192633Y0146143D01*
X0192385Y0145544D02*
X0198750Y0145544D01*
X0198750Y0144946D02*
X0192137Y0144946D01*
X0191635Y0144347D02*
X0198750Y0144347D01*
X0198750Y0143749D02*
X0191037Y0143749D01*
X0190042Y0143150D02*
X0198750Y0143150D01*
X0198750Y0142552D02*
X0165635Y0142552D01*
X0165037Y0143150D02*
X0185958Y0143150D01*
X0184963Y0143749D02*
X0164438Y0143749D01*
X0163840Y0144347D02*
X0184365Y0144347D01*
X0183863Y0144946D02*
X0163241Y0144946D01*
X0162643Y0145544D02*
X0183615Y0145544D01*
X0183367Y0146143D02*
X0162044Y0146143D01*
X0161446Y0146741D02*
X0183200Y0146741D01*
X0183200Y0147340D02*
X0160847Y0147340D01*
X0160249Y0147938D02*
X0183200Y0147938D01*
X0183234Y0148537D02*
X0159650Y0148537D01*
X0159052Y0149135D02*
X0183482Y0149135D01*
X0183730Y0149734D02*
X0158453Y0149734D01*
X0157855Y0150332D02*
X0184044Y0150332D01*
X0184643Y0150931D02*
X0157256Y0150931D01*
X0156658Y0151529D02*
X0185241Y0151529D01*
X0186630Y0152128D02*
X0156059Y0152128D01*
X0153079Y0149734D02*
X0124082Y0149734D01*
X0124344Y0149135D02*
X0153678Y0149135D01*
X0154276Y0148537D02*
X0124592Y0148537D01*
X0124700Y0147938D02*
X0154875Y0147938D01*
X0155473Y0147340D02*
X0124700Y0147340D01*
X0124700Y0146741D02*
X0156072Y0146741D01*
X0156670Y0146143D02*
X0124459Y0146143D01*
X0124211Y0145544D02*
X0157269Y0145544D01*
X0157867Y0144946D02*
X0123761Y0144946D01*
X0123163Y0144347D02*
X0158466Y0144347D01*
X0159064Y0143749D02*
X0121935Y0143749D01*
X0123483Y0150332D02*
X0152481Y0150332D01*
X0151882Y0150931D02*
X0122708Y0150931D01*
X0118300Y0153923D02*
X0117700Y0153923D01*
X0117700Y0154522D02*
X0118300Y0154522D01*
X0118300Y0155120D02*
X0117700Y0155120D01*
X0117700Y0155719D02*
X0118300Y0155719D01*
X0118300Y0156317D02*
X0117700Y0156317D01*
X0117700Y0158113D02*
X0118300Y0158113D01*
X0118300Y0158711D02*
X0117700Y0158711D01*
X0117700Y0159310D02*
X0118300Y0159310D01*
X0118300Y0159908D02*
X0117700Y0159908D01*
X0117700Y0160507D02*
X0118300Y0160507D01*
X0118300Y0161105D02*
X0117700Y0161105D01*
X0122778Y0164098D02*
X0135887Y0164098D01*
X0135288Y0164697D02*
X0123512Y0164697D01*
X0124108Y0165295D02*
X0134689Y0165295D01*
X0134100Y0165894D02*
X0124356Y0165894D01*
X0124604Y0166492D02*
X0134100Y0166492D01*
X0134100Y0167091D02*
X0124700Y0167091D01*
X0124700Y0167689D02*
X0134100Y0167689D01*
X0134100Y0168288D02*
X0124695Y0168288D01*
X0124447Y0168886D02*
X0134100Y0168886D01*
X0134469Y0169485D02*
X0124199Y0169485D01*
X0123732Y0170083D02*
X0135068Y0170083D01*
X0135666Y0170682D02*
X0123134Y0170682D01*
X0121865Y0171280D02*
X0136265Y0171280D01*
X0139735Y0171280D02*
X0147336Y0171280D01*
X0147336Y0170682D02*
X0140334Y0170682D01*
X0140932Y0170083D02*
X0147350Y0170083D01*
X0147949Y0169485D02*
X0141531Y0169485D01*
X0141900Y0168886D02*
X0148547Y0168886D01*
X0149146Y0168288D02*
X0141900Y0168288D01*
X0150087Y0152726D02*
X0104900Y0152726D01*
X0104900Y0152128D02*
X0150685Y0152128D01*
X0151284Y0151529D02*
X0104900Y0151529D01*
X0104900Y0154522D02*
X0112380Y0154522D01*
X0111861Y0155120D02*
X0104900Y0155120D01*
X0104900Y0155719D02*
X0111506Y0155719D01*
X0111273Y0156317D02*
X0104900Y0156317D01*
X0104900Y0156916D02*
X0111141Y0156916D01*
X0124139Y0135370D02*
X0149095Y0135370D01*
X0148496Y0134771D02*
X0123586Y0134771D01*
X0122958Y0134172D02*
X0147898Y0134172D01*
X0153976Y0134771D02*
X0168042Y0134771D01*
X0168641Y0134172D02*
X0154575Y0134172D01*
X0155173Y0133574D02*
X0169239Y0133574D01*
X0169838Y0132975D02*
X0155336Y0132975D01*
X0155336Y0132377D02*
X0170436Y0132377D01*
X0173416Y0134771D02*
X0174756Y0134771D01*
X0175354Y0135370D02*
X0172817Y0135370D01*
X0172219Y0135968D02*
X0175953Y0135968D01*
X0180047Y0135968D02*
X0183439Y0135968D01*
X0183200Y0136567D02*
X0171620Y0136567D01*
X0171022Y0137165D02*
X0183200Y0137165D01*
X0183200Y0137764D02*
X0170423Y0137764D01*
X0169825Y0138362D02*
X0183200Y0138362D01*
X0183410Y0138961D02*
X0169226Y0138961D01*
X0168628Y0139559D02*
X0183657Y0139559D01*
X0183905Y0140158D02*
X0168029Y0140158D01*
X0167431Y0140756D02*
X0184468Y0140756D01*
X0185066Y0141355D02*
X0166832Y0141355D01*
X0166234Y0141953D02*
X0186208Y0141953D01*
X0189792Y0141953D02*
X0198750Y0141953D01*
X0198750Y0141355D02*
X0190934Y0141355D01*
X0191532Y0140756D02*
X0198750Y0140756D01*
X0198750Y0140158D02*
X0192095Y0140158D01*
X0192343Y0139559D02*
X0198750Y0139559D01*
X0198750Y0138961D02*
X0192590Y0138961D01*
X0192800Y0138362D02*
X0198750Y0138362D01*
X0198750Y0137764D02*
X0192800Y0137764D01*
X0192800Y0137165D02*
X0198750Y0137165D01*
X0198750Y0136567D02*
X0192800Y0136567D01*
X0192561Y0135968D02*
X0198750Y0135968D01*
X0198750Y0135370D02*
X0192313Y0135370D01*
X0192059Y0134771D02*
X0198750Y0134771D01*
X0198750Y0134172D02*
X0191461Y0134172D01*
X0190862Y0133574D02*
X0198750Y0133574D01*
X0185138Y0133574D02*
X0181900Y0133574D01*
X0181843Y0134172D02*
X0184539Y0134172D01*
X0183941Y0134771D02*
X0181244Y0134771D01*
X0180646Y0135370D02*
X0183687Y0135370D01*
X0190859Y0111429D02*
X0198750Y0111429D01*
X0198750Y0110831D02*
X0191458Y0110831D01*
X0192056Y0110232D02*
X0198750Y0110232D01*
X0198750Y0109634D02*
X0192312Y0109634D01*
X0192560Y0109035D02*
X0198750Y0109035D01*
X0198750Y0108437D02*
X0192800Y0108437D01*
X0192800Y0107838D02*
X0198750Y0107838D01*
X0198750Y0107239D02*
X0192800Y0107239D01*
X0192800Y0106641D02*
X0198750Y0106641D01*
X0198750Y0106042D02*
X0192592Y0106042D01*
X0192344Y0105444D02*
X0198750Y0105444D01*
X0198750Y0104845D02*
X0192096Y0104845D01*
X0191535Y0104247D02*
X0198750Y0104247D01*
X0198750Y0103648D02*
X0190937Y0103648D01*
X0189799Y0103050D02*
X0198750Y0103050D01*
X0198750Y0102451D02*
X0179900Y0102451D01*
X0176100Y0102451D02*
X0074900Y0102451D01*
X0074900Y0101853D02*
X0176100Y0101853D01*
X0176100Y0101254D02*
X0121927Y0101254D01*
X0123160Y0100656D02*
X0176100Y0100656D01*
X0176100Y0100057D02*
X0123758Y0100057D01*
X0124210Y0099459D02*
X0176100Y0099459D01*
X0176100Y0098860D02*
X0124458Y0098860D01*
X0124700Y0098262D02*
X0176100Y0098262D01*
X0176100Y0097663D02*
X0124700Y0097663D01*
X0124700Y0097065D02*
X0176100Y0097065D01*
X0176100Y0096466D02*
X0124593Y0096466D01*
X0124345Y0095868D02*
X0176100Y0095868D01*
X0176100Y0095269D02*
X0124085Y0095269D01*
X0123486Y0094671D02*
X0176100Y0094671D01*
X0176100Y0094072D02*
X0122716Y0094072D01*
X0121693Y0103648D02*
X0176100Y0103648D01*
X0176100Y0103050D02*
X0074900Y0103050D01*
X0074900Y0092875D02*
X0176100Y0092875D01*
X0176100Y0092277D02*
X0074900Y0092277D01*
X0074900Y0091678D02*
X0176100Y0091678D01*
X0176100Y0091080D02*
X0145219Y0091080D01*
X0145817Y0090481D02*
X0156880Y0090481D01*
X0155882Y0089883D02*
X0146416Y0089883D01*
X0147014Y0089284D02*
X0155294Y0089284D01*
X0159120Y0090481D02*
X0176100Y0090481D01*
X0176100Y0089883D02*
X0160118Y0089883D01*
X0160706Y0089284D02*
X0176100Y0089284D01*
X0176100Y0088686D02*
X0160954Y0088686D01*
X0161183Y0088087D02*
X0176100Y0088087D01*
X0176100Y0087489D02*
X0161183Y0087489D01*
X0161183Y0086890D02*
X0176100Y0086890D01*
X0176100Y0086292D02*
X0160944Y0086292D01*
X0160694Y0085693D02*
X0176100Y0085693D01*
X0176100Y0085095D02*
X0160096Y0085095D01*
X0159900Y0084496D02*
X0176100Y0084496D01*
X0176100Y0083898D02*
X0159900Y0083898D01*
X0159900Y0083299D02*
X0176100Y0083299D01*
X0176100Y0082701D02*
X0159900Y0082701D01*
X0159900Y0082102D02*
X0176100Y0082102D01*
X0176100Y0081503D02*
X0159900Y0081503D01*
X0159900Y0080905D02*
X0176100Y0080905D01*
X0181260Y0071927D02*
X0186146Y0071927D01*
X0185041Y0071329D02*
X0181858Y0071329D01*
X0182457Y0070730D02*
X0184442Y0070730D01*
X0183895Y0070132D02*
X0183055Y0070132D01*
X0189979Y0073124D02*
X0198750Y0073124D01*
X0198750Y0073723D02*
X0191011Y0073723D01*
X0191610Y0074321D02*
X0198750Y0074321D01*
X0198750Y0074920D02*
X0192127Y0074920D01*
X0192375Y0075518D02*
X0198750Y0075518D01*
X0198750Y0076117D02*
X0192623Y0076117D01*
X0192800Y0076715D02*
X0198750Y0076715D01*
X0198750Y0077314D02*
X0192800Y0077314D01*
X0192800Y0077912D02*
X0198750Y0077912D01*
X0198750Y0078511D02*
X0192777Y0078511D01*
X0192529Y0079109D02*
X0198750Y0079109D01*
X0198750Y0079708D02*
X0192281Y0079708D01*
X0191982Y0080306D02*
X0198750Y0080306D01*
X0198750Y0080905D02*
X0191383Y0080905D01*
X0190785Y0081503D02*
X0198750Y0081503D01*
X0198750Y0082102D02*
X0189433Y0082102D01*
X0188956Y0082701D02*
X0198750Y0082701D01*
X0198750Y0083299D02*
X0190401Y0083299D01*
X0191186Y0083898D02*
X0198750Y0083898D01*
X0198750Y0084496D02*
X0191784Y0084496D01*
X0192199Y0085095D02*
X0198750Y0085095D01*
X0198750Y0085693D02*
X0192447Y0085693D01*
X0192695Y0086292D02*
X0198750Y0086292D01*
X0198750Y0086890D02*
X0192800Y0086890D01*
X0192800Y0087489D02*
X0198750Y0087489D01*
X0198750Y0088087D02*
X0192800Y0088087D01*
X0192704Y0088686D02*
X0198750Y0088686D01*
X0198750Y0089284D02*
X0192456Y0089284D01*
X0192209Y0089883D02*
X0198750Y0089883D01*
X0198750Y0090481D02*
X0191807Y0090481D01*
X0191209Y0091080D02*
X0198750Y0091080D01*
X0198750Y0091678D02*
X0190456Y0091678D01*
X0189011Y0092277D02*
X0198750Y0092277D01*
X0198750Y0092875D02*
X0189378Y0092875D01*
X0190762Y0093474D02*
X0198750Y0093474D01*
X0198750Y0094072D02*
X0191360Y0094072D01*
X0191959Y0094671D02*
X0198750Y0094671D01*
X0198750Y0095269D02*
X0192271Y0095269D01*
X0192519Y0095868D02*
X0198750Y0095868D01*
X0198750Y0096466D02*
X0192767Y0096466D01*
X0192800Y0097065D02*
X0198750Y0097065D01*
X0198750Y0097663D02*
X0192800Y0097663D01*
X0192800Y0098262D02*
X0198750Y0098262D01*
X0198750Y0098860D02*
X0192632Y0098860D01*
X0192384Y0099459D02*
X0198750Y0099459D01*
X0198750Y0100057D02*
X0192136Y0100057D01*
X0191632Y0100656D02*
X0198750Y0100656D01*
X0198750Y0101254D02*
X0191034Y0101254D01*
X0190034Y0101853D02*
X0198750Y0101853D01*
X0176100Y0104247D02*
X0123062Y0104247D01*
X0123661Y0104845D02*
X0176100Y0104845D01*
X0176100Y0105444D02*
X0124170Y0105444D01*
X0124418Y0106042D02*
X0176100Y0106042D01*
X0176100Y0106641D02*
X0124665Y0106641D01*
X0124700Y0107239D02*
X0176100Y0107239D01*
X0176100Y0107838D02*
X0124700Y0107838D01*
X0124633Y0108437D02*
X0176100Y0108437D01*
X0176100Y0109035D02*
X0124385Y0109035D01*
X0124138Y0109634D02*
X0176100Y0109634D01*
X0176100Y0110232D02*
X0123583Y0110232D01*
X0122951Y0110831D02*
X0176100Y0110831D01*
X0176100Y0093474D02*
X0091588Y0093474D01*
X0088300Y0093474D02*
X0087700Y0093474D01*
X0087700Y0094072D02*
X0088300Y0094072D01*
X0088300Y0094671D02*
X0087700Y0094671D01*
X0087700Y0095269D02*
X0088300Y0095269D01*
X0088300Y0095868D02*
X0087700Y0095868D01*
X0087700Y0096466D02*
X0088300Y0096466D01*
X0092463Y0101254D02*
X0114073Y0101254D01*
X0112840Y0100656D02*
X0093432Y0100656D01*
X0094010Y0100057D02*
X0112242Y0100057D01*
X0111790Y0099459D02*
X0094403Y0099459D01*
X0094669Y0098860D02*
X0111542Y0098860D01*
X0111300Y0098262D02*
X0094830Y0098262D01*
X0082265Y0074920D02*
X0080081Y0074920D01*
X0080133Y0070132D02*
X0082316Y0070132D01*
X0081821Y0069533D02*
X0079154Y0069533D01*
X0074900Y0063548D02*
X0101100Y0063548D01*
X0101100Y0062950D02*
X0074900Y0062950D01*
X0074900Y0062351D02*
X0101100Y0062351D01*
X0101100Y0061753D02*
X0074900Y0061753D01*
X0104900Y0061753D02*
X0130724Y0061753D01*
X0130281Y0061569D02*
X0128931Y0060219D01*
X0128200Y0058455D01*
X0128200Y0056545D01*
X0128931Y0054781D01*
X0130281Y0053431D01*
X0132045Y0052700D01*
X0133955Y0052700D01*
X0135719Y0053431D01*
X0137069Y0054781D01*
X0137800Y0056545D01*
X0137800Y0058455D01*
X0137069Y0060219D01*
X0135719Y0061569D01*
X0133955Y0062300D01*
X0132045Y0062300D01*
X0130281Y0061569D01*
X0129866Y0061154D02*
X0122169Y0061154D01*
X0121576Y0061400D02*
X0123009Y0060806D01*
X0124106Y0059709D01*
X0124700Y0058276D01*
X0124700Y0056724D01*
X0124106Y0055291D01*
X0123009Y0054194D01*
X0121576Y0053600D01*
X0114424Y0053600D01*
X0112991Y0054194D01*
X0111894Y0055291D01*
X0111300Y0056724D01*
X0111300Y0058276D01*
X0111894Y0059709D01*
X0112991Y0060806D01*
X0114424Y0061400D01*
X0121576Y0061400D01*
X0123260Y0060556D02*
X0129267Y0060556D01*
X0128822Y0059957D02*
X0123858Y0059957D01*
X0124251Y0059359D02*
X0128574Y0059359D01*
X0128326Y0058760D02*
X0124499Y0058760D01*
X0124700Y0058162D02*
X0128200Y0058162D01*
X0128200Y0057563D02*
X0124700Y0057563D01*
X0124700Y0056965D02*
X0128200Y0056965D01*
X0128274Y0056366D02*
X0124552Y0056366D01*
X0124304Y0055768D02*
X0128522Y0055768D01*
X0128770Y0055169D02*
X0123984Y0055169D01*
X0123386Y0054570D02*
X0129141Y0054570D01*
X0129740Y0053972D02*
X0122474Y0053972D01*
X0121576Y0051400D02*
X0123009Y0050806D01*
X0124106Y0049709D01*
X0124700Y0048276D01*
X0124700Y0046724D01*
X0124106Y0045291D01*
X0123009Y0044194D01*
X0121576Y0043600D01*
X0114424Y0043600D01*
X0112991Y0044194D01*
X0111894Y0045291D01*
X0111300Y0046724D01*
X0111300Y0048276D01*
X0111894Y0049709D01*
X0112991Y0050806D01*
X0114424Y0051400D01*
X0121576Y0051400D01*
X0122591Y0050979D02*
X0146100Y0050979D01*
X0146100Y0050381D02*
X0123435Y0050381D01*
X0124033Y0049782D02*
X0146100Y0049782D01*
X0146100Y0049184D02*
X0124324Y0049184D01*
X0124572Y0048585D02*
X0146100Y0048585D01*
X0146100Y0047987D02*
X0124700Y0047987D01*
X0124700Y0047388D02*
X0146100Y0047388D01*
X0146100Y0046790D02*
X0124700Y0046790D01*
X0124479Y0046191D02*
X0146100Y0046191D01*
X0146100Y0045593D02*
X0124231Y0045593D01*
X0123810Y0044994D02*
X0146100Y0044994D01*
X0146100Y0044396D02*
X0123211Y0044396D01*
X0122052Y0043797D02*
X0146100Y0043797D01*
X0146100Y0043199D02*
X0104900Y0043199D01*
X0104900Y0043797D02*
X0113948Y0043797D01*
X0112789Y0044396D02*
X0104900Y0044396D01*
X0104900Y0044994D02*
X0112190Y0044994D01*
X0111769Y0045593D02*
X0104900Y0045593D01*
X0104900Y0046191D02*
X0111521Y0046191D01*
X0111300Y0046790D02*
X0104900Y0046790D01*
X0104900Y0047388D02*
X0111300Y0047388D01*
X0111300Y0047987D02*
X0104900Y0047987D01*
X0104900Y0048585D02*
X0111428Y0048585D01*
X0111676Y0049184D02*
X0104900Y0049184D01*
X0104900Y0049782D02*
X0111967Y0049782D01*
X0112565Y0050381D02*
X0104900Y0050381D01*
X0104900Y0050979D02*
X0113409Y0050979D01*
X0113526Y0053972D02*
X0104900Y0053972D01*
X0104900Y0054570D02*
X0112614Y0054570D01*
X0112016Y0055169D02*
X0104900Y0055169D01*
X0104900Y0055768D02*
X0111696Y0055768D01*
X0111448Y0056366D02*
X0104900Y0056366D01*
X0104900Y0056965D02*
X0111300Y0056965D01*
X0111300Y0057563D02*
X0104900Y0057563D01*
X0104900Y0058162D02*
X0111300Y0058162D01*
X0111501Y0058760D02*
X0104900Y0058760D01*
X0104900Y0059359D02*
X0111749Y0059359D01*
X0112142Y0059957D02*
X0104900Y0059957D01*
X0104900Y0060556D02*
X0112740Y0060556D01*
X0113831Y0061154D02*
X0104900Y0061154D01*
X0104900Y0062351D02*
X0146100Y0062351D01*
X0146100Y0061753D02*
X0135276Y0061753D01*
X0136134Y0061154D02*
X0146100Y0061154D01*
X0146100Y0060556D02*
X0136733Y0060556D01*
X0137178Y0059957D02*
X0146100Y0059957D01*
X0146100Y0059359D02*
X0137426Y0059359D01*
X0137674Y0058760D02*
X0146100Y0058760D01*
X0146100Y0058162D02*
X0137800Y0058162D01*
X0137800Y0057563D02*
X0146100Y0057563D01*
X0146100Y0056965D02*
X0137800Y0056965D01*
X0137726Y0056366D02*
X0146100Y0056366D01*
X0146100Y0055768D02*
X0137478Y0055768D01*
X0137230Y0055169D02*
X0146100Y0055169D01*
X0146100Y0054570D02*
X0136859Y0054570D01*
X0136260Y0053972D02*
X0146100Y0053972D01*
X0146100Y0053373D02*
X0135581Y0053373D01*
X0134136Y0052775D02*
X0146100Y0052775D01*
X0146100Y0052176D02*
X0104900Y0052176D01*
X0104900Y0051578D02*
X0146100Y0051578D01*
X0146100Y0042600D02*
X0104900Y0042600D01*
X0104900Y0042002D02*
X0146100Y0042002D01*
X0146100Y0041403D02*
X0104900Y0041403D01*
X0104900Y0040805D02*
X0112989Y0040805D01*
X0112391Y0040206D02*
X0104900Y0040206D01*
X0104900Y0039608D02*
X0111852Y0039608D01*
X0121630Y0033623D02*
X0146100Y0033623D01*
X0146100Y0034221D02*
X0123037Y0034221D01*
X0123635Y0034820D02*
X0146100Y0034820D01*
X0146100Y0035418D02*
X0124159Y0035418D01*
X0124407Y0036017D02*
X0146100Y0036017D01*
X0146100Y0036615D02*
X0124655Y0036615D01*
X0124700Y0037214D02*
X0146100Y0037214D01*
X0146100Y0037812D02*
X0124700Y0037812D01*
X0124644Y0038411D02*
X0146100Y0038411D01*
X0146100Y0039009D02*
X0124396Y0039009D01*
X0124148Y0039608D02*
X0146100Y0039608D01*
X0146100Y0040206D02*
X0123609Y0040206D01*
X0123011Y0040805D02*
X0146100Y0040805D01*
X0131864Y0052775D02*
X0104900Y0052775D01*
X0104900Y0053373D02*
X0130419Y0053373D01*
X0131443Y0062950D02*
X0104900Y0062950D01*
X0117700Y0073723D02*
X0118300Y0073723D01*
X0118300Y0074321D02*
X0117700Y0074321D01*
X0117700Y0074920D02*
X0118300Y0074920D01*
X0118300Y0075518D02*
X0117700Y0075518D01*
X0117700Y0076117D02*
X0118300Y0076117D01*
X0118300Y0076715D02*
X0117700Y0076715D01*
X0117700Y0078511D02*
X0118300Y0078511D01*
X0118300Y0079109D02*
X0117700Y0079109D01*
X0117700Y0079708D02*
X0118300Y0079708D01*
X0118300Y0080306D02*
X0117700Y0080306D01*
X0117700Y0080905D02*
X0118300Y0080905D01*
X0118300Y0081503D02*
X0117700Y0081503D01*
X0134854Y0071927D02*
X0146100Y0071927D01*
X0146100Y0071329D02*
X0135959Y0071329D01*
X0136558Y0070730D02*
X0146100Y0070730D01*
X0146100Y0070132D02*
X0137105Y0070132D01*
X0137353Y0069533D02*
X0146100Y0069533D01*
X0146100Y0068935D02*
X0137601Y0068935D01*
X0137800Y0068336D02*
X0146100Y0068336D01*
X0146100Y0067738D02*
X0137800Y0067738D01*
X0137800Y0067139D02*
X0146100Y0067139D01*
X0146100Y0066541D02*
X0137798Y0066541D01*
X0137550Y0065942D02*
X0146100Y0065942D01*
X0146100Y0065344D02*
X0137302Y0065344D01*
X0137033Y0064745D02*
X0146100Y0064745D01*
X0146100Y0064147D02*
X0136435Y0064147D01*
X0135836Y0063548D02*
X0146100Y0063548D01*
X0146100Y0062950D02*
X0134557Y0062950D01*
X0088300Y0016864D02*
X0087700Y0016864D01*
X0087700Y0016266D02*
X0088300Y0016266D01*
X0088300Y0015667D02*
X0087700Y0015667D01*
X0087700Y0015069D02*
X0088300Y0015069D01*
X0088300Y0014470D02*
X0087700Y0014470D01*
X0087700Y0013872D02*
X0088300Y0013872D01*
X0087700Y0012200D02*
X0083000Y0012200D01*
X0083000Y0012106D01*
X0083123Y0011329D01*
X0083366Y0010581D01*
X0083724Y0009879D01*
X0084186Y0009243D01*
X0084743Y0008686D01*
X0085379Y0008224D01*
X0086081Y0007866D01*
X0086829Y0007623D01*
X0087606Y0007500D01*
X0087700Y0007500D01*
X0087700Y0012200D01*
X0087700Y0012076D02*
X0088300Y0012076D01*
X0088300Y0011478D02*
X0087700Y0011478D01*
X0087700Y0010879D02*
X0088300Y0010879D01*
X0088300Y0010281D02*
X0087700Y0010281D01*
X0087700Y0009682D02*
X0088300Y0009682D01*
X0088300Y0009084D02*
X0087700Y0009084D01*
X0087700Y0008485D02*
X0088300Y0008485D01*
X0088300Y0007887D02*
X0087700Y0007887D01*
X0086041Y0007887D02*
X0074405Y0007887D01*
X0075773Y0008485D02*
X0085019Y0008485D01*
X0084345Y0009084D02*
X0076372Y0009084D01*
X0076970Y0009682D02*
X0083867Y0009682D01*
X0083519Y0010281D02*
X0077276Y0010281D01*
X0077524Y0010879D02*
X0083269Y0010879D01*
X0083100Y0011478D02*
X0077772Y0011478D01*
X0077800Y0012076D02*
X0083005Y0012076D01*
X0066648Y0028834D02*
X0059352Y0028834D01*
X0059951Y0028236D02*
X0066049Y0028236D01*
X0065450Y0027637D02*
X0060550Y0027637D01*
X0061148Y0027039D02*
X0061415Y0027039D01*
X0058754Y0029433D02*
X0067246Y0029433D01*
X0064852Y0027039D02*
X0064585Y0027039D01*
X0104959Y0007887D02*
X0111595Y0007887D01*
X0110227Y0008485D02*
X0105980Y0008485D01*
X0106655Y0009084D02*
X0109628Y0009084D01*
X0109030Y0009682D02*
X0107133Y0009682D01*
X0107481Y0010281D02*
X0108724Y0010281D01*
X0108476Y0010879D02*
X0107731Y0010879D01*
X0107900Y0011478D02*
X0108228Y0011478D01*
X0108200Y0012076D02*
X0107995Y0012076D01*
X0084065Y0143749D02*
X0074900Y0143749D01*
X0074900Y0144347D02*
X0082837Y0144347D01*
X0082239Y0144946D02*
X0074900Y0144946D01*
X0074900Y0145544D02*
X0081789Y0145544D01*
X0081541Y0146143D02*
X0074900Y0146143D01*
X0074900Y0146741D02*
X0081300Y0146741D01*
X0081300Y0147340D02*
X0074900Y0147340D01*
X0074900Y0147938D02*
X0081300Y0147938D01*
X0081408Y0148537D02*
X0074900Y0148537D01*
X0074900Y0149135D02*
X0081656Y0149135D01*
X0081918Y0149734D02*
X0074900Y0149734D01*
X0074900Y0150332D02*
X0082517Y0150332D01*
X0083292Y0150931D02*
X0074900Y0150931D01*
D14*
X0088000Y0137500D02*
X0098000Y0147500D01*
X0098000Y0167500D01*
X0118000Y0187500D01*
X0128000Y0187500D02*
X0103000Y0162500D01*
X0103000Y0137500D01*
X0093000Y0127500D01*
X0088000Y0127500D01*
X0088000Y0167500D02*
X0088000Y0187500D01*
X0073000Y0172500D02*
X0073000Y0057500D01*
X0088000Y0057500D01*
X0088000Y0047500D02*
X0093000Y0047500D01*
X0098000Y0042500D01*
X0098000Y0027500D01*
X0138000Y0027500D01*
X0148000Y0022500D02*
X0148000Y0077500D01*
X0158000Y0087500D02*
X0158000Y0047500D01*
X0148000Y0022500D02*
X0098000Y0022500D01*
X0087900Y0032600D01*
X0073100Y0032600D01*
X0063000Y0022500D01*
X0053000Y0032500D01*
X0034000Y0032500D01*
X0032000Y0030500D01*
X0023000Y0030500D01*
X0023000Y0087500D01*
X0013000Y0087500D01*
X0038000Y0067500D02*
X0038000Y0132500D01*
X0033000Y0132500D01*
X0028000Y0137500D01*
X0028000Y0172500D01*
X0013000Y0187500D01*
X0053000Y0182500D02*
X0058150Y0177350D01*
X0058150Y0171713D01*
X0063000Y0182500D02*
X0073000Y0172500D01*
X0138000Y0167500D02*
X0173000Y0132500D01*
X0178000Y0132500D01*
X0178000Y0072500D01*
X0183000Y0067500D01*
X0188000Y0067500D01*
X0118000Y0037500D02*
X0103000Y0037500D01*
X0103000Y0070757D01*
X0102257Y0071500D01*
X0102000Y0071500D01*
X0101000Y0072500D01*
X0078000Y0072500D01*
X0053000Y0077500D02*
X0053000Y0042500D01*
X0083000Y0042500D01*
X0088000Y0037500D01*
X0053000Y0077500D02*
X0048000Y0082500D01*
X0023000Y0030500D02*
X0011000Y0030500D01*
D15*
X0038000Y0067500D03*
X0048000Y0082500D03*
X0078000Y0072500D03*
X0138000Y0027500D03*
X0158000Y0047500D03*
X0148000Y0077500D03*
X0158000Y0087500D03*
M02*
