G75*
%MOIN*%
%OFA0B0*%
%FSLAX25Y25*%
%IPPOS*%
%LPD*%
%AMOC8*
5,1,8,0,0,1.08239X$1,22.5*
%
%ADD10C,0.00200*%
%ADD11C,0.00600*%
%ADD12C,0.01000*%
%ADD13R,0.02400X0.03400*%
%ADD14C,0.00800*%
%ADD15C,0.00500*%
D10*
X0043100Y0102600D02*
X0043100Y0105400D01*
X0044033Y0103844D01*
X0044967Y0105400D01*
X0044967Y0102600D01*
X0046320Y0102600D02*
X0046320Y0105400D01*
X0047565Y0105400D01*
X0047254Y0104156D02*
X0046320Y0104156D01*
X0046320Y0102600D02*
X0047565Y0102600D01*
X0050006Y0103222D02*
X0051561Y0103222D01*
X0051094Y0103844D02*
X0051094Y0102600D01*
X0050006Y0103222D02*
X0050628Y0105400D01*
X0050380Y0107100D02*
X0051158Y0107100D01*
X0050380Y0107100D02*
X0050339Y0107102D01*
X0050299Y0107107D01*
X0050259Y0107116D01*
X0050220Y0107128D01*
X0050183Y0107144D01*
X0050147Y0107163D01*
X0050112Y0107184D01*
X0050080Y0107209D01*
X0050050Y0107237D01*
X0050022Y0107267D01*
X0049997Y0107299D01*
X0049976Y0107334D01*
X0049957Y0107370D01*
X0049941Y0107407D01*
X0049929Y0107446D01*
X0049920Y0107486D01*
X0049915Y0107526D01*
X0049913Y0107567D01*
X0049913Y0108344D01*
X0049913Y0108033D02*
X0051158Y0108033D01*
X0051158Y0108344D01*
X0051157Y0108344D02*
X0051155Y0108393D01*
X0051149Y0108441D01*
X0051140Y0108489D01*
X0051127Y0108536D01*
X0051110Y0108582D01*
X0051089Y0108626D01*
X0051065Y0108669D01*
X0051038Y0108710D01*
X0051008Y0108748D01*
X0050975Y0108784D01*
X0050939Y0108817D01*
X0050901Y0108847D01*
X0050860Y0108874D01*
X0050817Y0108898D01*
X0050773Y0108919D01*
X0050727Y0108936D01*
X0050680Y0108949D01*
X0050632Y0108958D01*
X0050584Y0108964D01*
X0050535Y0108966D01*
X0050486Y0108964D01*
X0050438Y0108958D01*
X0050390Y0108949D01*
X0050343Y0108936D01*
X0050297Y0108919D01*
X0050253Y0108898D01*
X0050210Y0108874D01*
X0050169Y0108847D01*
X0050131Y0108817D01*
X0050095Y0108784D01*
X0050062Y0108748D01*
X0050032Y0108710D01*
X0050005Y0108669D01*
X0049981Y0108626D01*
X0049960Y0108582D01*
X0049943Y0108536D01*
X0049930Y0108489D01*
X0049921Y0108441D01*
X0049915Y0108393D01*
X0049913Y0108344D01*
X0048584Y0107878D02*
X0047807Y0108189D01*
X0047806Y0108189D02*
X0047771Y0108205D01*
X0047738Y0108224D01*
X0047706Y0108247D01*
X0047677Y0108272D01*
X0047651Y0108300D01*
X0047627Y0108330D01*
X0047606Y0108363D01*
X0047589Y0108397D01*
X0047575Y0108433D01*
X0047564Y0108470D01*
X0047557Y0108508D01*
X0047553Y0108546D01*
X0047554Y0108585D01*
X0047557Y0108623D01*
X0047565Y0108661D01*
X0047576Y0108698D01*
X0047591Y0108733D01*
X0047609Y0108768D01*
X0047630Y0108800D01*
X0047654Y0108830D01*
X0047681Y0108858D01*
X0047710Y0108882D01*
X0047742Y0108904D01*
X0047776Y0108923D01*
X0047811Y0108939D01*
X0047847Y0108951D01*
X0047885Y0108960D01*
X0047923Y0108965D01*
X0047962Y0108966D01*
X0047573Y0107256D02*
X0047665Y0107225D01*
X0047758Y0107197D01*
X0047852Y0107173D01*
X0047946Y0107152D01*
X0048042Y0107134D01*
X0048138Y0107120D01*
X0048235Y0107110D01*
X0048331Y0107103D01*
X0048428Y0107100D01*
X0048429Y0107100D02*
X0048468Y0107101D01*
X0048506Y0107106D01*
X0048544Y0107115D01*
X0048580Y0107127D01*
X0048615Y0107143D01*
X0048649Y0107162D01*
X0048681Y0107184D01*
X0048710Y0107208D01*
X0048737Y0107236D01*
X0048761Y0107266D01*
X0048782Y0107298D01*
X0048800Y0107333D01*
X0048815Y0107368D01*
X0048826Y0107405D01*
X0048834Y0107443D01*
X0048837Y0107481D01*
X0048838Y0107520D01*
X0048834Y0107558D01*
X0048827Y0107596D01*
X0048816Y0107633D01*
X0048802Y0107669D01*
X0048785Y0107703D01*
X0048764Y0107736D01*
X0048740Y0107766D01*
X0048714Y0107794D01*
X0048685Y0107819D01*
X0048653Y0107842D01*
X0048620Y0107861D01*
X0048585Y0107877D01*
X0048662Y0108811D02*
X0048589Y0108843D01*
X0048513Y0108870D01*
X0048437Y0108895D01*
X0048359Y0108916D01*
X0048281Y0108933D01*
X0048202Y0108947D01*
X0048122Y0108957D01*
X0048042Y0108964D01*
X0047962Y0108967D01*
X0046478Y0108344D02*
X0046478Y0107722D01*
X0046477Y0107722D02*
X0046475Y0107673D01*
X0046469Y0107625D01*
X0046460Y0107577D01*
X0046447Y0107530D01*
X0046430Y0107484D01*
X0046409Y0107440D01*
X0046385Y0107397D01*
X0046358Y0107356D01*
X0046328Y0107318D01*
X0046295Y0107282D01*
X0046259Y0107249D01*
X0046221Y0107219D01*
X0046180Y0107192D01*
X0046137Y0107168D01*
X0046093Y0107147D01*
X0046047Y0107130D01*
X0046000Y0107117D01*
X0045952Y0107108D01*
X0045904Y0107102D01*
X0045855Y0107100D01*
X0045806Y0107102D01*
X0045758Y0107108D01*
X0045710Y0107117D01*
X0045663Y0107130D01*
X0045617Y0107147D01*
X0045573Y0107168D01*
X0045530Y0107192D01*
X0045489Y0107219D01*
X0045451Y0107249D01*
X0045415Y0107282D01*
X0045382Y0107318D01*
X0045352Y0107356D01*
X0045325Y0107397D01*
X0045301Y0107440D01*
X0045280Y0107484D01*
X0045263Y0107530D01*
X0045250Y0107577D01*
X0045241Y0107625D01*
X0045235Y0107673D01*
X0045233Y0107722D01*
X0045233Y0108344D01*
X0045235Y0108393D01*
X0045241Y0108441D01*
X0045250Y0108489D01*
X0045263Y0108536D01*
X0045280Y0108582D01*
X0045301Y0108626D01*
X0045325Y0108669D01*
X0045352Y0108710D01*
X0045382Y0108748D01*
X0045415Y0108784D01*
X0045451Y0108817D01*
X0045489Y0108847D01*
X0045530Y0108874D01*
X0045573Y0108898D01*
X0045617Y0108919D01*
X0045663Y0108936D01*
X0045710Y0108949D01*
X0045758Y0108958D01*
X0045806Y0108964D01*
X0045855Y0108966D01*
X0045904Y0108964D01*
X0045952Y0108958D01*
X0046000Y0108949D01*
X0046047Y0108936D01*
X0046093Y0108919D01*
X0046137Y0108898D01*
X0046180Y0108874D01*
X0046221Y0108847D01*
X0046259Y0108817D01*
X0046295Y0108784D01*
X0046328Y0108748D01*
X0046358Y0108710D01*
X0046385Y0108669D01*
X0046409Y0108626D01*
X0046430Y0108582D01*
X0046447Y0108536D01*
X0046460Y0108489D01*
X0046469Y0108441D01*
X0046475Y0108393D01*
X0046477Y0108344D01*
X0044033Y0107722D02*
X0044033Y0109900D01*
X0044033Y0107722D02*
X0044031Y0107673D01*
X0044025Y0107625D01*
X0044016Y0107577D01*
X0044003Y0107530D01*
X0043986Y0107484D01*
X0043965Y0107440D01*
X0043941Y0107397D01*
X0043914Y0107356D01*
X0043884Y0107318D01*
X0043851Y0107282D01*
X0043815Y0107249D01*
X0043777Y0107219D01*
X0043736Y0107192D01*
X0043693Y0107168D01*
X0043649Y0107147D01*
X0043603Y0107130D01*
X0043556Y0107117D01*
X0043508Y0107108D01*
X0043460Y0107102D01*
X0043411Y0107100D01*
X0043100Y0107100D01*
X0052356Y0107100D02*
X0053134Y0107100D01*
X0053175Y0107102D01*
X0053215Y0107107D01*
X0053255Y0107116D01*
X0053294Y0107128D01*
X0053331Y0107144D01*
X0053368Y0107163D01*
X0053402Y0107184D01*
X0053434Y0107209D01*
X0053464Y0107237D01*
X0053492Y0107267D01*
X0053517Y0107299D01*
X0053538Y0107334D01*
X0053557Y0107370D01*
X0053573Y0107407D01*
X0053585Y0107446D01*
X0053594Y0107486D01*
X0053599Y0107526D01*
X0053601Y0107567D01*
X0053600Y0107567D02*
X0053600Y0108500D01*
X0053601Y0108500D02*
X0053599Y0108543D01*
X0053593Y0108586D01*
X0053583Y0108628D01*
X0053569Y0108669D01*
X0053552Y0108708D01*
X0053531Y0108746D01*
X0053507Y0108781D01*
X0053479Y0108815D01*
X0053449Y0108845D01*
X0053415Y0108873D01*
X0053380Y0108897D01*
X0053342Y0108918D01*
X0053303Y0108935D01*
X0053262Y0108949D01*
X0053220Y0108959D01*
X0053177Y0108965D01*
X0053134Y0108967D01*
X0052356Y0108967D01*
X0052356Y0106167D01*
X0052705Y0105400D02*
X0053639Y0105400D01*
X0053688Y0105398D01*
X0053736Y0105392D01*
X0053784Y0105383D01*
X0053831Y0105370D01*
X0053877Y0105353D01*
X0053921Y0105332D01*
X0053964Y0105308D01*
X0054005Y0105281D01*
X0054043Y0105251D01*
X0054079Y0105218D01*
X0054112Y0105182D01*
X0054142Y0105144D01*
X0054169Y0105103D01*
X0054193Y0105060D01*
X0054214Y0105016D01*
X0054231Y0104970D01*
X0054244Y0104923D01*
X0054253Y0104875D01*
X0054259Y0104827D01*
X0054261Y0104778D01*
X0054259Y0104729D01*
X0054253Y0104681D01*
X0054244Y0104633D01*
X0054231Y0104586D01*
X0054214Y0104540D01*
X0054193Y0104496D01*
X0054169Y0104453D01*
X0054142Y0104412D01*
X0054112Y0104374D01*
X0054079Y0104338D01*
X0054043Y0104305D01*
X0054005Y0104275D01*
X0053964Y0104248D01*
X0053921Y0104224D01*
X0053877Y0104203D01*
X0053831Y0104186D01*
X0053784Y0104173D01*
X0053736Y0104164D01*
X0053688Y0104158D01*
X0053639Y0104156D01*
X0053017Y0104156D01*
X0053483Y0104156D02*
X0053539Y0104154D01*
X0053594Y0104148D01*
X0053648Y0104138D01*
X0053702Y0104124D01*
X0053755Y0104107D01*
X0053806Y0104086D01*
X0053856Y0104061D01*
X0053904Y0104032D01*
X0053949Y0104001D01*
X0053992Y0103966D01*
X0054033Y0103928D01*
X0054071Y0103887D01*
X0054106Y0103844D01*
X0054137Y0103799D01*
X0054166Y0103751D01*
X0054191Y0103701D01*
X0054212Y0103650D01*
X0054229Y0103597D01*
X0054243Y0103543D01*
X0054253Y0103489D01*
X0054259Y0103434D01*
X0054261Y0103378D01*
X0054259Y0103322D01*
X0054253Y0103267D01*
X0054243Y0103213D01*
X0054229Y0103159D01*
X0054212Y0103106D01*
X0054191Y0103055D01*
X0054166Y0103005D01*
X0054137Y0102957D01*
X0054106Y0102912D01*
X0054071Y0102869D01*
X0054033Y0102828D01*
X0053992Y0102790D01*
X0053949Y0102755D01*
X0053904Y0102724D01*
X0053856Y0102695D01*
X0053806Y0102670D01*
X0053755Y0102649D01*
X0053702Y0102632D01*
X0053648Y0102618D01*
X0053594Y0102608D01*
X0053539Y0102602D01*
X0053483Y0102600D01*
X0052705Y0102600D01*
X0055405Y0102600D02*
X0056183Y0102600D01*
X0056239Y0102602D01*
X0056294Y0102608D01*
X0056348Y0102618D01*
X0056402Y0102632D01*
X0056455Y0102649D01*
X0056506Y0102670D01*
X0056556Y0102695D01*
X0056604Y0102724D01*
X0056649Y0102755D01*
X0056692Y0102790D01*
X0056733Y0102828D01*
X0056771Y0102869D01*
X0056806Y0102912D01*
X0056837Y0102957D01*
X0056866Y0103005D01*
X0056891Y0103055D01*
X0056912Y0103106D01*
X0056929Y0103159D01*
X0056943Y0103213D01*
X0056953Y0103267D01*
X0056959Y0103322D01*
X0056961Y0103378D01*
X0056959Y0103434D01*
X0056953Y0103489D01*
X0056943Y0103543D01*
X0056929Y0103597D01*
X0056912Y0103650D01*
X0056891Y0103701D01*
X0056866Y0103751D01*
X0056837Y0103799D01*
X0056806Y0103844D01*
X0056771Y0103887D01*
X0056733Y0103928D01*
X0056692Y0103966D01*
X0056649Y0104001D01*
X0056604Y0104032D01*
X0056556Y0104061D01*
X0056506Y0104086D01*
X0056455Y0104107D01*
X0056402Y0104124D01*
X0056348Y0104138D01*
X0056294Y0104148D01*
X0056239Y0104154D01*
X0056183Y0104156D01*
X0056339Y0104156D02*
X0055717Y0104156D01*
X0056339Y0104156D02*
X0056388Y0104158D01*
X0056436Y0104164D01*
X0056484Y0104173D01*
X0056531Y0104186D01*
X0056577Y0104203D01*
X0056621Y0104224D01*
X0056664Y0104248D01*
X0056705Y0104275D01*
X0056743Y0104305D01*
X0056779Y0104338D01*
X0056812Y0104374D01*
X0056842Y0104412D01*
X0056869Y0104453D01*
X0056893Y0104496D01*
X0056914Y0104540D01*
X0056931Y0104586D01*
X0056944Y0104633D01*
X0056953Y0104681D01*
X0056959Y0104729D01*
X0056961Y0104778D01*
X0056959Y0104827D01*
X0056953Y0104875D01*
X0056944Y0104923D01*
X0056931Y0104970D01*
X0056914Y0105016D01*
X0056893Y0105060D01*
X0056869Y0105103D01*
X0056842Y0105144D01*
X0056812Y0105182D01*
X0056779Y0105218D01*
X0056743Y0105251D01*
X0056705Y0105281D01*
X0056664Y0105308D01*
X0056621Y0105332D01*
X0056577Y0105353D01*
X0056531Y0105370D01*
X0056484Y0105383D01*
X0056436Y0105392D01*
X0056388Y0105398D01*
X0056339Y0105400D01*
X0055405Y0105400D01*
X0056018Y0107100D02*
X0056018Y0108500D01*
X0056016Y0108543D01*
X0056010Y0108586D01*
X0056000Y0108628D01*
X0055986Y0108669D01*
X0055969Y0108708D01*
X0055948Y0108746D01*
X0055924Y0108781D01*
X0055896Y0108815D01*
X0055866Y0108845D01*
X0055832Y0108873D01*
X0055797Y0108897D01*
X0055759Y0108918D01*
X0055720Y0108935D01*
X0055679Y0108949D01*
X0055637Y0108959D01*
X0055594Y0108965D01*
X0055551Y0108967D01*
X0054773Y0108967D01*
X0054773Y0109900D02*
X0054773Y0107100D01*
X0058758Y0107100D02*
X0058758Y0109900D01*
X0060313Y0107100D01*
X0060313Y0109900D01*
X0061438Y0109900D02*
X0061593Y0109900D01*
X0061593Y0109744D01*
X0061438Y0109744D01*
X0061438Y0109900D01*
X0061515Y0108967D02*
X0061515Y0107100D01*
X0062722Y0107100D02*
X0062722Y0109900D01*
X0063967Y0108967D02*
X0062722Y0108033D01*
X0063267Y0108422D02*
X0063967Y0107100D01*
X0065475Y0107100D02*
X0066175Y0107100D01*
X0066175Y0108500D01*
X0066175Y0108189D02*
X0065475Y0108189D01*
X0066175Y0108500D02*
X0066173Y0108541D01*
X0066168Y0108581D01*
X0066159Y0108621D01*
X0066147Y0108660D01*
X0066131Y0108697D01*
X0066112Y0108734D01*
X0066091Y0108768D01*
X0066066Y0108800D01*
X0066038Y0108830D01*
X0066008Y0108858D01*
X0065976Y0108883D01*
X0065942Y0108904D01*
X0065905Y0108923D01*
X0065868Y0108939D01*
X0065829Y0108951D01*
X0065789Y0108960D01*
X0065749Y0108965D01*
X0065708Y0108967D01*
X0065086Y0108967D01*
X0065475Y0108188D02*
X0065430Y0108186D01*
X0065385Y0108181D01*
X0065341Y0108171D01*
X0065298Y0108159D01*
X0065256Y0108142D01*
X0065216Y0108122D01*
X0065177Y0108099D01*
X0065141Y0108073D01*
X0065107Y0108044D01*
X0065075Y0108012D01*
X0065046Y0107978D01*
X0065020Y0107942D01*
X0064997Y0107903D01*
X0064977Y0107863D01*
X0064960Y0107821D01*
X0064948Y0107778D01*
X0064938Y0107734D01*
X0064933Y0107689D01*
X0064931Y0107644D01*
X0064933Y0107599D01*
X0064938Y0107554D01*
X0064948Y0107510D01*
X0064960Y0107467D01*
X0064977Y0107425D01*
X0064997Y0107385D01*
X0065020Y0107346D01*
X0065046Y0107310D01*
X0065075Y0107276D01*
X0065107Y0107244D01*
X0065141Y0107215D01*
X0065177Y0107189D01*
X0065216Y0107166D01*
X0065256Y0107146D01*
X0065298Y0107129D01*
X0065341Y0107117D01*
X0065385Y0107107D01*
X0065430Y0107102D01*
X0065475Y0107100D01*
X0067376Y0107567D02*
X0067376Y0108500D01*
X0067378Y0108541D01*
X0067383Y0108581D01*
X0067392Y0108621D01*
X0067404Y0108660D01*
X0067420Y0108697D01*
X0067439Y0108734D01*
X0067460Y0108768D01*
X0067485Y0108800D01*
X0067513Y0108830D01*
X0067543Y0108858D01*
X0067575Y0108883D01*
X0067610Y0108904D01*
X0067646Y0108923D01*
X0067683Y0108939D01*
X0067722Y0108951D01*
X0067762Y0108960D01*
X0067802Y0108965D01*
X0067843Y0108967D01*
X0068465Y0108967D01*
X0067376Y0107567D02*
X0067378Y0107526D01*
X0067383Y0107486D01*
X0067392Y0107446D01*
X0067404Y0107407D01*
X0067420Y0107370D01*
X0067439Y0107334D01*
X0067460Y0107299D01*
X0067485Y0107267D01*
X0067513Y0107237D01*
X0067543Y0107209D01*
X0067575Y0107184D01*
X0067610Y0107163D01*
X0067646Y0107144D01*
X0067683Y0107128D01*
X0067722Y0107116D01*
X0067762Y0107107D01*
X0067802Y0107102D01*
X0067843Y0107100D01*
X0068465Y0107100D01*
D11*
X0061650Y0139213D02*
X0054650Y0139213D01*
X0054590Y0139215D01*
X0054529Y0139220D01*
X0054470Y0139229D01*
X0054411Y0139242D01*
X0054352Y0139258D01*
X0054295Y0139278D01*
X0054240Y0139301D01*
X0054185Y0139328D01*
X0054133Y0139357D01*
X0054082Y0139390D01*
X0054033Y0139426D01*
X0053987Y0139464D01*
X0053943Y0139506D01*
X0053901Y0139550D01*
X0053863Y0139596D01*
X0053827Y0139645D01*
X0053794Y0139696D01*
X0053765Y0139748D01*
X0053738Y0139803D01*
X0053715Y0139858D01*
X0053695Y0139915D01*
X0053679Y0139974D01*
X0053666Y0140033D01*
X0053657Y0140092D01*
X0053652Y0140153D01*
X0053650Y0140213D01*
X0053650Y0141713D01*
X0054150Y0142213D01*
X0054150Y0161213D01*
X0053650Y0161713D01*
X0053650Y0163213D01*
X0053652Y0163273D01*
X0053657Y0163334D01*
X0053666Y0163393D01*
X0053679Y0163452D01*
X0053695Y0163511D01*
X0053715Y0163568D01*
X0053738Y0163623D01*
X0053765Y0163678D01*
X0053794Y0163730D01*
X0053827Y0163781D01*
X0053863Y0163830D01*
X0053901Y0163876D01*
X0053943Y0163920D01*
X0053987Y0163962D01*
X0054033Y0164000D01*
X0054082Y0164036D01*
X0054133Y0164069D01*
X0054185Y0164098D01*
X0054240Y0164125D01*
X0054295Y0164148D01*
X0054352Y0164168D01*
X0054411Y0164184D01*
X0054470Y0164197D01*
X0054529Y0164206D01*
X0054590Y0164211D01*
X0054650Y0164213D01*
X0061650Y0164213D01*
X0061710Y0164211D01*
X0061771Y0164206D01*
X0061830Y0164197D01*
X0061889Y0164184D01*
X0061948Y0164168D01*
X0062005Y0164148D01*
X0062060Y0164125D01*
X0062115Y0164098D01*
X0062167Y0164069D01*
X0062218Y0164036D01*
X0062267Y0164000D01*
X0062313Y0163962D01*
X0062357Y0163920D01*
X0062399Y0163876D01*
X0062437Y0163830D01*
X0062473Y0163781D01*
X0062506Y0163730D01*
X0062535Y0163678D01*
X0062562Y0163623D01*
X0062585Y0163568D01*
X0062605Y0163511D01*
X0062621Y0163452D01*
X0062634Y0163393D01*
X0062643Y0163334D01*
X0062648Y0163273D01*
X0062650Y0163213D01*
X0062650Y0161713D01*
X0062150Y0161213D01*
X0062150Y0142213D01*
X0062650Y0141713D01*
X0062650Y0140213D01*
X0062648Y0140153D01*
X0062643Y0140092D01*
X0062634Y0140033D01*
X0062621Y0139974D01*
X0062605Y0139915D01*
X0062585Y0139858D01*
X0062562Y0139803D01*
X0062535Y0139748D01*
X0062506Y0139696D01*
X0062473Y0139645D01*
X0062437Y0139596D01*
X0062399Y0139550D01*
X0062357Y0139506D01*
X0062313Y0139464D01*
X0062267Y0139426D01*
X0062218Y0139390D01*
X0062167Y0139357D01*
X0062115Y0139328D01*
X0062060Y0139301D01*
X0062005Y0139278D01*
X0061948Y0139258D01*
X0061889Y0139242D01*
X0061830Y0139229D01*
X0061771Y0139220D01*
X0061710Y0139215D01*
X0061650Y0139213D01*
X0042500Y0141000D02*
X0042500Y0142500D01*
X0042000Y0143000D01*
X0042000Y0162000D01*
X0042500Y0162500D01*
X0042500Y0164000D01*
X0042498Y0164060D01*
X0042493Y0164121D01*
X0042484Y0164180D01*
X0042471Y0164239D01*
X0042455Y0164298D01*
X0042435Y0164355D01*
X0042412Y0164410D01*
X0042385Y0164465D01*
X0042356Y0164517D01*
X0042323Y0164568D01*
X0042287Y0164617D01*
X0042249Y0164663D01*
X0042207Y0164707D01*
X0042163Y0164749D01*
X0042117Y0164787D01*
X0042068Y0164823D01*
X0042017Y0164856D01*
X0041965Y0164885D01*
X0041910Y0164912D01*
X0041855Y0164935D01*
X0041798Y0164955D01*
X0041739Y0164971D01*
X0041680Y0164984D01*
X0041621Y0164993D01*
X0041560Y0164998D01*
X0041500Y0165000D01*
X0034500Y0165000D01*
X0034440Y0164998D01*
X0034379Y0164993D01*
X0034320Y0164984D01*
X0034261Y0164971D01*
X0034202Y0164955D01*
X0034145Y0164935D01*
X0034090Y0164912D01*
X0034035Y0164885D01*
X0033983Y0164856D01*
X0033932Y0164823D01*
X0033883Y0164787D01*
X0033837Y0164749D01*
X0033793Y0164707D01*
X0033751Y0164663D01*
X0033713Y0164617D01*
X0033677Y0164568D01*
X0033644Y0164517D01*
X0033615Y0164465D01*
X0033588Y0164410D01*
X0033565Y0164355D01*
X0033545Y0164298D01*
X0033529Y0164239D01*
X0033516Y0164180D01*
X0033507Y0164121D01*
X0033502Y0164060D01*
X0033500Y0164000D01*
X0033500Y0162500D01*
X0034000Y0162000D01*
X0034000Y0143000D01*
X0033500Y0142500D01*
X0033500Y0141000D01*
X0033502Y0140940D01*
X0033507Y0140879D01*
X0033516Y0140820D01*
X0033529Y0140761D01*
X0033545Y0140702D01*
X0033565Y0140645D01*
X0033588Y0140590D01*
X0033615Y0140535D01*
X0033644Y0140483D01*
X0033677Y0140432D01*
X0033713Y0140383D01*
X0033751Y0140337D01*
X0033793Y0140293D01*
X0033837Y0140251D01*
X0033883Y0140213D01*
X0033932Y0140177D01*
X0033983Y0140144D01*
X0034035Y0140115D01*
X0034090Y0140088D01*
X0034145Y0140065D01*
X0034202Y0140045D01*
X0034261Y0140029D01*
X0034320Y0140016D01*
X0034379Y0140007D01*
X0034440Y0140002D01*
X0034500Y0140000D01*
X0041500Y0140000D01*
X0041560Y0140002D01*
X0041621Y0140007D01*
X0041680Y0140016D01*
X0041739Y0140029D01*
X0041798Y0140045D01*
X0041855Y0140065D01*
X0041910Y0140088D01*
X0041965Y0140115D01*
X0042017Y0140144D01*
X0042068Y0140177D01*
X0042117Y0140213D01*
X0042163Y0140251D01*
X0042207Y0140293D01*
X0042249Y0140337D01*
X0042287Y0140383D01*
X0042323Y0140432D01*
X0042356Y0140483D01*
X0042385Y0140535D01*
X0042412Y0140590D01*
X0042435Y0140645D01*
X0042455Y0140702D01*
X0042471Y0140761D01*
X0042484Y0140820D01*
X0042493Y0140879D01*
X0042498Y0140940D01*
X0042500Y0141000D01*
X0062736Y0186183D02*
X0062642Y0186302D01*
X0062544Y0186418D01*
X0062444Y0186532D01*
X0062340Y0186643D01*
X0062234Y0186751D01*
X0062126Y0186857D01*
X0062014Y0186959D01*
X0061900Y0187059D01*
X0061784Y0187157D01*
X0061665Y0187251D01*
X0061544Y0187342D01*
X0061420Y0187430D01*
X0061294Y0187515D01*
X0061167Y0187596D01*
X0061037Y0187675D01*
X0060905Y0187750D01*
X0060772Y0187821D01*
X0060636Y0187890D01*
X0060499Y0187955D01*
X0060361Y0188016D01*
X0060220Y0188074D01*
X0060079Y0188128D01*
X0059936Y0188179D01*
X0059792Y0188226D01*
X0059647Y0188270D01*
X0059500Y0188309D01*
X0059353Y0188345D01*
X0059205Y0188378D01*
X0059056Y0188406D01*
X0058906Y0188431D01*
X0058756Y0188452D01*
X0058606Y0188469D01*
X0058454Y0188483D01*
X0058303Y0188492D01*
X0058152Y0188498D01*
X0058000Y0188500D01*
X0062800Y0178900D02*
X0062708Y0178781D01*
X0062614Y0178664D01*
X0062516Y0178550D01*
X0062416Y0178438D01*
X0062312Y0178328D01*
X0062207Y0178222D01*
X0062098Y0178117D01*
X0061987Y0178016D01*
X0061873Y0177918D01*
X0061757Y0177822D01*
X0061639Y0177729D01*
X0061518Y0177640D01*
X0061395Y0177553D01*
X0061270Y0177470D01*
X0061143Y0177389D01*
X0061014Y0177312D01*
X0060883Y0177238D01*
X0060750Y0177167D01*
X0060616Y0177100D01*
X0060480Y0177036D01*
X0060342Y0176976D01*
X0060203Y0176919D01*
X0060062Y0176866D01*
X0059920Y0176816D01*
X0059777Y0176769D01*
X0059633Y0176727D01*
X0059488Y0176687D01*
X0059342Y0176652D01*
X0059195Y0176620D01*
X0059047Y0176592D01*
X0058899Y0176568D01*
X0058750Y0176547D01*
X0058600Y0176530D01*
X0058451Y0176517D01*
X0058301Y0176508D01*
X0058150Y0176502D01*
X0058000Y0176500D01*
X0053264Y0186183D02*
X0053358Y0186302D01*
X0053456Y0186418D01*
X0053556Y0186532D01*
X0053660Y0186643D01*
X0053766Y0186751D01*
X0053874Y0186857D01*
X0053986Y0186959D01*
X0054100Y0187059D01*
X0054216Y0187157D01*
X0054335Y0187251D01*
X0054456Y0187342D01*
X0054580Y0187430D01*
X0054706Y0187515D01*
X0054833Y0187596D01*
X0054963Y0187675D01*
X0055095Y0187750D01*
X0055228Y0187821D01*
X0055364Y0187890D01*
X0055501Y0187955D01*
X0055639Y0188016D01*
X0055780Y0188074D01*
X0055921Y0188128D01*
X0056064Y0188179D01*
X0056208Y0188226D01*
X0056353Y0188270D01*
X0056500Y0188309D01*
X0056647Y0188345D01*
X0056795Y0188378D01*
X0056944Y0188406D01*
X0057094Y0188431D01*
X0057244Y0188452D01*
X0057394Y0188469D01*
X0057546Y0188483D01*
X0057697Y0188492D01*
X0057848Y0188498D01*
X0058000Y0188500D01*
X0053118Y0179013D02*
X0053209Y0178888D01*
X0053303Y0178766D01*
X0053401Y0178647D01*
X0053501Y0178530D01*
X0053605Y0178416D01*
X0053711Y0178304D01*
X0053820Y0178196D01*
X0053932Y0178090D01*
X0054047Y0177987D01*
X0054164Y0177887D01*
X0054284Y0177789D01*
X0054406Y0177696D01*
X0054530Y0177605D01*
X0054657Y0177517D01*
X0054786Y0177433D01*
X0054918Y0177352D01*
X0055051Y0177275D01*
X0055186Y0177201D01*
X0055323Y0177130D01*
X0055462Y0177063D01*
X0055602Y0177000D01*
X0055745Y0176940D01*
X0055888Y0176884D01*
X0056033Y0176832D01*
X0056179Y0176783D01*
X0056327Y0176738D01*
X0056475Y0176697D01*
X0056625Y0176660D01*
X0056775Y0176626D01*
X0056927Y0176597D01*
X0057079Y0176571D01*
X0057231Y0176549D01*
X0057384Y0176532D01*
X0057538Y0176518D01*
X0057692Y0176508D01*
X0057846Y0176502D01*
X0058000Y0176500D01*
X0093000Y0172500D02*
X0098000Y0172500D01*
X0093000Y0172000D02*
X0093000Y0032500D01*
X0113000Y0032500D01*
X0113000Y0172500D01*
X0108000Y0172500D01*
X0107998Y0172360D01*
X0107992Y0172220D01*
X0107982Y0172080D01*
X0107969Y0171940D01*
X0107951Y0171801D01*
X0107929Y0171662D01*
X0107904Y0171525D01*
X0107875Y0171387D01*
X0107842Y0171251D01*
X0107805Y0171116D01*
X0107764Y0170982D01*
X0107719Y0170849D01*
X0107671Y0170717D01*
X0107619Y0170587D01*
X0107564Y0170458D01*
X0107505Y0170331D01*
X0107442Y0170205D01*
X0107376Y0170081D01*
X0107307Y0169960D01*
X0107234Y0169840D01*
X0107157Y0169722D01*
X0107078Y0169607D01*
X0106995Y0169493D01*
X0106909Y0169383D01*
X0106820Y0169274D01*
X0106728Y0169168D01*
X0106633Y0169065D01*
X0106536Y0168964D01*
X0106435Y0168867D01*
X0106332Y0168772D01*
X0106226Y0168680D01*
X0106117Y0168591D01*
X0106007Y0168505D01*
X0105893Y0168422D01*
X0105778Y0168343D01*
X0105660Y0168266D01*
X0105540Y0168193D01*
X0105419Y0168124D01*
X0105295Y0168058D01*
X0105169Y0167995D01*
X0105042Y0167936D01*
X0104913Y0167881D01*
X0104783Y0167829D01*
X0104651Y0167781D01*
X0104518Y0167736D01*
X0104384Y0167695D01*
X0104249Y0167658D01*
X0104113Y0167625D01*
X0103975Y0167596D01*
X0103838Y0167571D01*
X0103699Y0167549D01*
X0103560Y0167531D01*
X0103420Y0167518D01*
X0103280Y0167508D01*
X0103140Y0167502D01*
X0103000Y0167500D01*
X0102860Y0167502D01*
X0102720Y0167508D01*
X0102580Y0167518D01*
X0102440Y0167531D01*
X0102301Y0167549D01*
X0102162Y0167571D01*
X0102025Y0167596D01*
X0101887Y0167625D01*
X0101751Y0167658D01*
X0101616Y0167695D01*
X0101482Y0167736D01*
X0101349Y0167781D01*
X0101217Y0167829D01*
X0101087Y0167881D01*
X0100958Y0167936D01*
X0100831Y0167995D01*
X0100705Y0168058D01*
X0100581Y0168124D01*
X0100460Y0168193D01*
X0100340Y0168266D01*
X0100222Y0168343D01*
X0100107Y0168422D01*
X0099993Y0168505D01*
X0099883Y0168591D01*
X0099774Y0168680D01*
X0099668Y0168772D01*
X0099565Y0168867D01*
X0099464Y0168964D01*
X0099367Y0169065D01*
X0099272Y0169168D01*
X0099180Y0169274D01*
X0099091Y0169383D01*
X0099005Y0169493D01*
X0098922Y0169607D01*
X0098843Y0169722D01*
X0098766Y0169840D01*
X0098693Y0169960D01*
X0098624Y0170081D01*
X0098558Y0170205D01*
X0098495Y0170331D01*
X0098436Y0170458D01*
X0098381Y0170587D01*
X0098329Y0170717D01*
X0098281Y0170849D01*
X0098236Y0170982D01*
X0098195Y0171116D01*
X0098158Y0171251D01*
X0098125Y0171387D01*
X0098096Y0171525D01*
X0098071Y0171662D01*
X0098049Y0171801D01*
X0098031Y0171940D01*
X0098018Y0172080D01*
X0098008Y0172220D01*
X0098002Y0172360D01*
X0098000Y0172500D01*
X0132000Y0171000D02*
X0132000Y0154000D01*
X0132002Y0153940D01*
X0132007Y0153879D01*
X0132016Y0153820D01*
X0132029Y0153761D01*
X0132045Y0153702D01*
X0132065Y0153645D01*
X0132088Y0153590D01*
X0132115Y0153535D01*
X0132144Y0153483D01*
X0132177Y0153432D01*
X0132213Y0153383D01*
X0132251Y0153337D01*
X0132293Y0153293D01*
X0132337Y0153251D01*
X0132383Y0153213D01*
X0132432Y0153177D01*
X0132483Y0153144D01*
X0132535Y0153115D01*
X0132590Y0153088D01*
X0132645Y0153065D01*
X0132702Y0153045D01*
X0132761Y0153029D01*
X0132820Y0153016D01*
X0132879Y0153007D01*
X0132940Y0153002D01*
X0133000Y0153000D01*
X0143000Y0153000D01*
X0143060Y0153002D01*
X0143121Y0153007D01*
X0143180Y0153016D01*
X0143239Y0153029D01*
X0143298Y0153045D01*
X0143355Y0153065D01*
X0143410Y0153088D01*
X0143465Y0153115D01*
X0143517Y0153144D01*
X0143568Y0153177D01*
X0143617Y0153213D01*
X0143663Y0153251D01*
X0143707Y0153293D01*
X0143749Y0153337D01*
X0143787Y0153383D01*
X0143823Y0153432D01*
X0143856Y0153483D01*
X0143885Y0153535D01*
X0143912Y0153590D01*
X0143935Y0153645D01*
X0143955Y0153702D01*
X0143971Y0153761D01*
X0143984Y0153820D01*
X0143993Y0153879D01*
X0143998Y0153940D01*
X0144000Y0154000D01*
X0144000Y0171000D01*
X0143998Y0171060D01*
X0143993Y0171121D01*
X0143984Y0171180D01*
X0143971Y0171239D01*
X0143955Y0171298D01*
X0143935Y0171355D01*
X0143912Y0171410D01*
X0143885Y0171465D01*
X0143856Y0171517D01*
X0143823Y0171568D01*
X0143787Y0171617D01*
X0143749Y0171663D01*
X0143707Y0171707D01*
X0143663Y0171749D01*
X0143617Y0171787D01*
X0143568Y0171823D01*
X0143517Y0171856D01*
X0143465Y0171885D01*
X0143410Y0171912D01*
X0143355Y0171935D01*
X0143298Y0171955D01*
X0143239Y0171971D01*
X0143180Y0171984D01*
X0143121Y0171993D01*
X0143060Y0171998D01*
X0143000Y0172000D01*
X0133000Y0172000D01*
X0132940Y0171998D01*
X0132879Y0171993D01*
X0132820Y0171984D01*
X0132761Y0171971D01*
X0132702Y0171955D01*
X0132645Y0171935D01*
X0132590Y0171912D01*
X0132535Y0171885D01*
X0132483Y0171856D01*
X0132432Y0171823D01*
X0132383Y0171787D01*
X0132337Y0171749D01*
X0132293Y0171707D01*
X0132251Y0171663D01*
X0132213Y0171617D01*
X0132177Y0171568D01*
X0132144Y0171517D01*
X0132115Y0171465D01*
X0132088Y0171410D01*
X0132065Y0171355D01*
X0132045Y0171298D01*
X0132029Y0171239D01*
X0132016Y0171180D01*
X0132007Y0171121D01*
X0132002Y0171060D01*
X0132000Y0171000D01*
X0138000Y0164000D02*
X0138000Y0163500D01*
X0138000Y0161500D02*
X0138000Y0161000D01*
X0146736Y0161713D02*
X0146736Y0163213D01*
X0146738Y0163273D01*
X0146743Y0163334D01*
X0146752Y0163393D01*
X0146765Y0163452D01*
X0146781Y0163511D01*
X0146801Y0163568D01*
X0146824Y0163623D01*
X0146851Y0163678D01*
X0146880Y0163730D01*
X0146913Y0163781D01*
X0146949Y0163830D01*
X0146987Y0163876D01*
X0147029Y0163920D01*
X0147073Y0163962D01*
X0147119Y0164000D01*
X0147168Y0164036D01*
X0147219Y0164069D01*
X0147271Y0164098D01*
X0147326Y0164125D01*
X0147381Y0164148D01*
X0147438Y0164168D01*
X0147497Y0164184D01*
X0147556Y0164197D01*
X0147615Y0164206D01*
X0147676Y0164211D01*
X0147736Y0164213D01*
X0154736Y0164213D01*
X0154796Y0164211D01*
X0154857Y0164206D01*
X0154916Y0164197D01*
X0154975Y0164184D01*
X0155034Y0164168D01*
X0155091Y0164148D01*
X0155146Y0164125D01*
X0155201Y0164098D01*
X0155253Y0164069D01*
X0155304Y0164036D01*
X0155353Y0164000D01*
X0155399Y0163962D01*
X0155443Y0163920D01*
X0155485Y0163876D01*
X0155523Y0163830D01*
X0155559Y0163781D01*
X0155592Y0163730D01*
X0155621Y0163678D01*
X0155648Y0163623D01*
X0155671Y0163568D01*
X0155691Y0163511D01*
X0155707Y0163452D01*
X0155720Y0163393D01*
X0155729Y0163334D01*
X0155734Y0163273D01*
X0155736Y0163213D01*
X0155736Y0161713D01*
X0155236Y0161213D01*
X0155236Y0142213D01*
X0155736Y0141713D01*
X0155736Y0140213D01*
X0155734Y0140153D01*
X0155729Y0140092D01*
X0155720Y0140033D01*
X0155707Y0139974D01*
X0155691Y0139915D01*
X0155671Y0139858D01*
X0155648Y0139803D01*
X0155621Y0139748D01*
X0155592Y0139696D01*
X0155559Y0139645D01*
X0155523Y0139596D01*
X0155485Y0139550D01*
X0155443Y0139506D01*
X0155399Y0139464D01*
X0155353Y0139426D01*
X0155304Y0139390D01*
X0155253Y0139357D01*
X0155201Y0139328D01*
X0155146Y0139301D01*
X0155091Y0139278D01*
X0155034Y0139258D01*
X0154975Y0139242D01*
X0154916Y0139229D01*
X0154857Y0139220D01*
X0154796Y0139215D01*
X0154736Y0139213D01*
X0147736Y0139213D01*
X0147676Y0139215D01*
X0147615Y0139220D01*
X0147556Y0139229D01*
X0147497Y0139242D01*
X0147438Y0139258D01*
X0147381Y0139278D01*
X0147326Y0139301D01*
X0147271Y0139328D01*
X0147219Y0139357D01*
X0147168Y0139390D01*
X0147119Y0139426D01*
X0147073Y0139464D01*
X0147029Y0139506D01*
X0146987Y0139550D01*
X0146949Y0139596D01*
X0146913Y0139645D01*
X0146880Y0139696D01*
X0146851Y0139748D01*
X0146824Y0139803D01*
X0146801Y0139858D01*
X0146781Y0139915D01*
X0146765Y0139974D01*
X0146752Y0140033D01*
X0146743Y0140092D01*
X0146738Y0140153D01*
X0146736Y0140213D01*
X0146736Y0141713D01*
X0147236Y0142213D01*
X0147236Y0161213D01*
X0146736Y0161713D01*
X0152882Y0190987D02*
X0152791Y0191112D01*
X0152697Y0191234D01*
X0152599Y0191353D01*
X0152499Y0191470D01*
X0152395Y0191584D01*
X0152289Y0191696D01*
X0152180Y0191804D01*
X0152068Y0191910D01*
X0151953Y0192013D01*
X0151836Y0192113D01*
X0151716Y0192211D01*
X0151594Y0192304D01*
X0151470Y0192395D01*
X0151343Y0192483D01*
X0151214Y0192567D01*
X0151082Y0192648D01*
X0150949Y0192725D01*
X0150814Y0192799D01*
X0150677Y0192870D01*
X0150538Y0192937D01*
X0150398Y0193000D01*
X0150255Y0193060D01*
X0150112Y0193116D01*
X0149967Y0193168D01*
X0149821Y0193217D01*
X0149673Y0193262D01*
X0149525Y0193303D01*
X0149375Y0193340D01*
X0149225Y0193374D01*
X0149073Y0193403D01*
X0148921Y0193429D01*
X0148769Y0193451D01*
X0148616Y0193468D01*
X0148462Y0193482D01*
X0148308Y0193492D01*
X0148154Y0193498D01*
X0148000Y0193500D01*
X0143264Y0183817D02*
X0143358Y0183698D01*
X0143456Y0183582D01*
X0143556Y0183468D01*
X0143660Y0183357D01*
X0143766Y0183249D01*
X0143874Y0183143D01*
X0143986Y0183041D01*
X0144100Y0182941D01*
X0144216Y0182843D01*
X0144335Y0182749D01*
X0144456Y0182658D01*
X0144580Y0182570D01*
X0144706Y0182485D01*
X0144833Y0182404D01*
X0144963Y0182325D01*
X0145095Y0182250D01*
X0145228Y0182179D01*
X0145364Y0182110D01*
X0145501Y0182045D01*
X0145639Y0181984D01*
X0145780Y0181926D01*
X0145921Y0181872D01*
X0146064Y0181821D01*
X0146208Y0181774D01*
X0146353Y0181730D01*
X0146500Y0181691D01*
X0146647Y0181655D01*
X0146795Y0181622D01*
X0146944Y0181594D01*
X0147094Y0181569D01*
X0147244Y0181548D01*
X0147394Y0181531D01*
X0147546Y0181517D01*
X0147697Y0181508D01*
X0147848Y0181502D01*
X0148000Y0181500D01*
X0143200Y0191100D02*
X0143292Y0191219D01*
X0143386Y0191336D01*
X0143484Y0191450D01*
X0143584Y0191562D01*
X0143688Y0191672D01*
X0143793Y0191778D01*
X0143902Y0191883D01*
X0144013Y0191984D01*
X0144127Y0192082D01*
X0144243Y0192178D01*
X0144361Y0192271D01*
X0144482Y0192360D01*
X0144605Y0192447D01*
X0144730Y0192530D01*
X0144857Y0192611D01*
X0144986Y0192688D01*
X0145117Y0192762D01*
X0145250Y0192833D01*
X0145384Y0192900D01*
X0145520Y0192964D01*
X0145658Y0193024D01*
X0145797Y0193081D01*
X0145938Y0193134D01*
X0146080Y0193184D01*
X0146223Y0193231D01*
X0146367Y0193273D01*
X0146512Y0193313D01*
X0146658Y0193348D01*
X0146805Y0193380D01*
X0146953Y0193408D01*
X0147101Y0193432D01*
X0147250Y0193453D01*
X0147400Y0193470D01*
X0147549Y0193483D01*
X0147699Y0193492D01*
X0147850Y0193498D01*
X0148000Y0193500D01*
X0152736Y0183817D02*
X0152642Y0183698D01*
X0152544Y0183582D01*
X0152444Y0183468D01*
X0152340Y0183357D01*
X0152234Y0183249D01*
X0152126Y0183143D01*
X0152014Y0183041D01*
X0151900Y0182941D01*
X0151784Y0182843D01*
X0151665Y0182749D01*
X0151544Y0182658D01*
X0151420Y0182570D01*
X0151294Y0182485D01*
X0151167Y0182404D01*
X0151037Y0182325D01*
X0150905Y0182250D01*
X0150772Y0182179D01*
X0150636Y0182110D01*
X0150499Y0182045D01*
X0150361Y0181984D01*
X0150220Y0181926D01*
X0150079Y0181872D01*
X0149936Y0181821D01*
X0149792Y0181774D01*
X0149647Y0181730D01*
X0149500Y0181691D01*
X0149353Y0181655D01*
X0149205Y0181622D01*
X0149056Y0181594D01*
X0148906Y0181569D01*
X0148756Y0181548D01*
X0148606Y0181531D01*
X0148454Y0181517D01*
X0148303Y0181508D01*
X0148152Y0181502D01*
X0148000Y0181500D01*
X0173500Y0164000D02*
X0173500Y0162500D01*
X0174000Y0162000D01*
X0174000Y0143000D01*
X0173500Y0142500D01*
X0173500Y0141000D01*
X0173502Y0140940D01*
X0173507Y0140879D01*
X0173516Y0140820D01*
X0173529Y0140761D01*
X0173545Y0140702D01*
X0173565Y0140645D01*
X0173588Y0140590D01*
X0173615Y0140535D01*
X0173644Y0140483D01*
X0173677Y0140432D01*
X0173713Y0140383D01*
X0173751Y0140337D01*
X0173793Y0140293D01*
X0173837Y0140251D01*
X0173883Y0140213D01*
X0173932Y0140177D01*
X0173983Y0140144D01*
X0174035Y0140115D01*
X0174090Y0140088D01*
X0174145Y0140065D01*
X0174202Y0140045D01*
X0174261Y0140029D01*
X0174320Y0140016D01*
X0174379Y0140007D01*
X0174440Y0140002D01*
X0174500Y0140000D01*
X0181500Y0140000D01*
X0181560Y0140002D01*
X0181621Y0140007D01*
X0181680Y0140016D01*
X0181739Y0140029D01*
X0181798Y0140045D01*
X0181855Y0140065D01*
X0181910Y0140088D01*
X0181965Y0140115D01*
X0182017Y0140144D01*
X0182068Y0140177D01*
X0182117Y0140213D01*
X0182163Y0140251D01*
X0182207Y0140293D01*
X0182249Y0140337D01*
X0182287Y0140383D01*
X0182323Y0140432D01*
X0182356Y0140483D01*
X0182385Y0140535D01*
X0182412Y0140590D01*
X0182435Y0140645D01*
X0182455Y0140702D01*
X0182471Y0140761D01*
X0182484Y0140820D01*
X0182493Y0140879D01*
X0182498Y0140940D01*
X0182500Y0141000D01*
X0182500Y0142500D01*
X0182000Y0143000D01*
X0182000Y0162000D01*
X0182500Y0162500D01*
X0182500Y0164000D01*
X0182498Y0164060D01*
X0182493Y0164121D01*
X0182484Y0164180D01*
X0182471Y0164239D01*
X0182455Y0164298D01*
X0182435Y0164355D01*
X0182412Y0164410D01*
X0182385Y0164465D01*
X0182356Y0164517D01*
X0182323Y0164568D01*
X0182287Y0164617D01*
X0182249Y0164663D01*
X0182207Y0164707D01*
X0182163Y0164749D01*
X0182117Y0164787D01*
X0182068Y0164823D01*
X0182017Y0164856D01*
X0181965Y0164885D01*
X0181910Y0164912D01*
X0181855Y0164935D01*
X0181798Y0164955D01*
X0181739Y0164971D01*
X0181680Y0164984D01*
X0181621Y0164993D01*
X0181560Y0164998D01*
X0181500Y0165000D01*
X0174500Y0165000D01*
X0174440Y0164998D01*
X0174379Y0164993D01*
X0174320Y0164984D01*
X0174261Y0164971D01*
X0174202Y0164955D01*
X0174145Y0164935D01*
X0174090Y0164912D01*
X0174035Y0164885D01*
X0173983Y0164856D01*
X0173932Y0164823D01*
X0173883Y0164787D01*
X0173837Y0164749D01*
X0173793Y0164707D01*
X0173751Y0164663D01*
X0173713Y0164617D01*
X0173677Y0164568D01*
X0173644Y0164517D01*
X0173615Y0164465D01*
X0173588Y0164410D01*
X0173565Y0164355D01*
X0173545Y0164298D01*
X0173529Y0164239D01*
X0173516Y0164180D01*
X0173507Y0164121D01*
X0173502Y0164060D01*
X0173500Y0164000D01*
X0146500Y0093500D02*
X0129500Y0093500D01*
X0129440Y0093498D01*
X0129379Y0093493D01*
X0129320Y0093484D01*
X0129261Y0093471D01*
X0129202Y0093455D01*
X0129145Y0093435D01*
X0129090Y0093412D01*
X0129035Y0093385D01*
X0128983Y0093356D01*
X0128932Y0093323D01*
X0128883Y0093287D01*
X0128837Y0093249D01*
X0128793Y0093207D01*
X0128751Y0093163D01*
X0128713Y0093117D01*
X0128677Y0093068D01*
X0128644Y0093017D01*
X0128615Y0092965D01*
X0128588Y0092910D01*
X0128565Y0092855D01*
X0128545Y0092798D01*
X0128529Y0092739D01*
X0128516Y0092680D01*
X0128507Y0092621D01*
X0128502Y0092560D01*
X0128500Y0092500D01*
X0128500Y0082500D01*
X0128502Y0082440D01*
X0128507Y0082379D01*
X0128516Y0082320D01*
X0128529Y0082261D01*
X0128545Y0082202D01*
X0128565Y0082145D01*
X0128588Y0082090D01*
X0128615Y0082035D01*
X0128644Y0081983D01*
X0128677Y0081932D01*
X0128713Y0081883D01*
X0128751Y0081837D01*
X0128793Y0081793D01*
X0128837Y0081751D01*
X0128883Y0081713D01*
X0128932Y0081677D01*
X0128983Y0081644D01*
X0129035Y0081615D01*
X0129090Y0081588D01*
X0129145Y0081565D01*
X0129202Y0081545D01*
X0129261Y0081529D01*
X0129320Y0081516D01*
X0129379Y0081507D01*
X0129440Y0081502D01*
X0129500Y0081500D01*
X0146500Y0081500D01*
X0146560Y0081502D01*
X0146621Y0081507D01*
X0146680Y0081516D01*
X0146739Y0081529D01*
X0146798Y0081545D01*
X0146855Y0081565D01*
X0146910Y0081588D01*
X0146965Y0081615D01*
X0147017Y0081644D01*
X0147068Y0081677D01*
X0147117Y0081713D01*
X0147163Y0081751D01*
X0147207Y0081793D01*
X0147249Y0081837D01*
X0147287Y0081883D01*
X0147323Y0081932D01*
X0147356Y0081983D01*
X0147385Y0082035D01*
X0147412Y0082090D01*
X0147435Y0082145D01*
X0147455Y0082202D01*
X0147471Y0082261D01*
X0147484Y0082320D01*
X0147493Y0082379D01*
X0147498Y0082440D01*
X0147500Y0082500D01*
X0147500Y0092500D01*
X0147498Y0092560D01*
X0147493Y0092621D01*
X0147484Y0092680D01*
X0147471Y0092739D01*
X0147455Y0092798D01*
X0147435Y0092855D01*
X0147412Y0092910D01*
X0147385Y0092965D01*
X0147356Y0093017D01*
X0147323Y0093068D01*
X0147287Y0093117D01*
X0147249Y0093163D01*
X0147207Y0093207D01*
X0147163Y0093249D01*
X0147117Y0093287D01*
X0147068Y0093323D01*
X0147017Y0093356D01*
X0146965Y0093385D01*
X0146910Y0093412D01*
X0146855Y0093435D01*
X0146798Y0093455D01*
X0146739Y0093471D01*
X0146680Y0093484D01*
X0146621Y0093493D01*
X0146560Y0093498D01*
X0146500Y0093500D01*
X0139500Y0087500D02*
X0139000Y0087500D01*
X0137000Y0087500D02*
X0136500Y0087500D01*
X0074000Y0051000D02*
X0074000Y0034000D01*
X0073998Y0033940D01*
X0073993Y0033879D01*
X0073984Y0033820D01*
X0073971Y0033761D01*
X0073955Y0033702D01*
X0073935Y0033645D01*
X0073912Y0033590D01*
X0073885Y0033535D01*
X0073856Y0033483D01*
X0073823Y0033432D01*
X0073787Y0033383D01*
X0073749Y0033337D01*
X0073707Y0033293D01*
X0073663Y0033251D01*
X0073617Y0033213D01*
X0073568Y0033177D01*
X0073517Y0033144D01*
X0073465Y0033115D01*
X0073410Y0033088D01*
X0073355Y0033065D01*
X0073298Y0033045D01*
X0073239Y0033029D01*
X0073180Y0033016D01*
X0073121Y0033007D01*
X0073060Y0033002D01*
X0073000Y0033000D01*
X0063000Y0033000D01*
X0062940Y0033002D01*
X0062879Y0033007D01*
X0062820Y0033016D01*
X0062761Y0033029D01*
X0062702Y0033045D01*
X0062645Y0033065D01*
X0062590Y0033088D01*
X0062535Y0033115D01*
X0062483Y0033144D01*
X0062432Y0033177D01*
X0062383Y0033213D01*
X0062337Y0033251D01*
X0062293Y0033293D01*
X0062251Y0033337D01*
X0062213Y0033383D01*
X0062177Y0033432D01*
X0062144Y0033483D01*
X0062115Y0033535D01*
X0062088Y0033590D01*
X0062065Y0033645D01*
X0062045Y0033702D01*
X0062029Y0033761D01*
X0062016Y0033820D01*
X0062007Y0033879D01*
X0062002Y0033940D01*
X0062000Y0034000D01*
X0062000Y0051000D01*
X0062002Y0051060D01*
X0062007Y0051121D01*
X0062016Y0051180D01*
X0062029Y0051239D01*
X0062045Y0051298D01*
X0062065Y0051355D01*
X0062088Y0051410D01*
X0062115Y0051465D01*
X0062144Y0051517D01*
X0062177Y0051568D01*
X0062213Y0051617D01*
X0062251Y0051663D01*
X0062293Y0051707D01*
X0062337Y0051749D01*
X0062383Y0051787D01*
X0062432Y0051823D01*
X0062483Y0051856D01*
X0062535Y0051885D01*
X0062590Y0051912D01*
X0062645Y0051935D01*
X0062702Y0051955D01*
X0062761Y0051971D01*
X0062820Y0051984D01*
X0062879Y0051993D01*
X0062940Y0051998D01*
X0063000Y0052000D01*
X0073000Y0052000D01*
X0073060Y0051998D01*
X0073121Y0051993D01*
X0073180Y0051984D01*
X0073239Y0051971D01*
X0073298Y0051955D01*
X0073355Y0051935D01*
X0073410Y0051912D01*
X0073465Y0051885D01*
X0073517Y0051856D01*
X0073568Y0051823D01*
X0073617Y0051787D01*
X0073663Y0051749D01*
X0073707Y0051707D01*
X0073749Y0051663D01*
X0073787Y0051617D01*
X0073823Y0051568D01*
X0073856Y0051517D01*
X0073885Y0051465D01*
X0073912Y0051410D01*
X0073935Y0051355D01*
X0073955Y0051298D01*
X0073971Y0051239D01*
X0073984Y0051180D01*
X0073993Y0051121D01*
X0073998Y0051060D01*
X0074000Y0051000D01*
X0068000Y0044000D02*
X0068000Y0043500D01*
X0068000Y0041500D02*
X0068000Y0041000D01*
D12*
X0068000Y0041500D02*
X0065000Y0041500D01*
X0065000Y0043500D02*
X0068000Y0043500D01*
X0071000Y0043500D01*
X0071000Y0041500D02*
X0068000Y0041500D01*
X0137000Y0084500D02*
X0137000Y0087500D01*
X0137000Y0090500D01*
X0139000Y0090500D02*
X0139000Y0087500D01*
X0139000Y0084500D01*
X0138000Y0161500D02*
X0135000Y0161500D01*
X0135000Y0163500D02*
X0138000Y0163500D01*
X0141000Y0163500D01*
X0141000Y0161500D02*
X0138000Y0161500D01*
X0148000Y0179500D02*
X0147805Y0179502D01*
X0147609Y0179510D01*
X0147414Y0179522D01*
X0147219Y0179538D01*
X0147024Y0179560D01*
X0146830Y0179586D01*
X0146637Y0179617D01*
X0146445Y0179653D01*
X0146253Y0179693D01*
X0146063Y0179738D01*
X0145874Y0179788D01*
X0145686Y0179842D01*
X0145499Y0179901D01*
X0145314Y0179964D01*
X0145131Y0180032D01*
X0144949Y0180105D01*
X0144769Y0180181D01*
X0144591Y0180263D01*
X0144415Y0180348D01*
X0144241Y0180438D01*
X0144070Y0180532D01*
X0143900Y0180630D01*
X0143734Y0180733D01*
X0143569Y0180839D01*
X0143408Y0180949D01*
X0143249Y0181063D01*
X0143093Y0181182D01*
X0142940Y0181303D01*
X0142790Y0181429D01*
X0142643Y0181558D01*
X0142499Y0181691D01*
X0142359Y0181827D01*
X0142222Y0181967D01*
X0142088Y0182110D01*
X0141958Y0182256D01*
X0141832Y0182405D01*
X0141709Y0182558D01*
X0141590Y0182713D01*
X0141475Y0182871D01*
X0141364Y0183032D01*
X0141257Y0183196D01*
X0141153Y0183362D01*
X0141054Y0183531D01*
X0148000Y0195500D02*
X0148195Y0195498D01*
X0148389Y0195491D01*
X0148583Y0195479D01*
X0148777Y0195462D01*
X0148971Y0195441D01*
X0149164Y0195415D01*
X0149356Y0195384D01*
X0149548Y0195349D01*
X0149738Y0195309D01*
X0149928Y0195264D01*
X0150116Y0195215D01*
X0150303Y0195161D01*
X0150489Y0195103D01*
X0150673Y0195040D01*
X0150856Y0194973D01*
X0151037Y0194901D01*
X0151216Y0194825D01*
X0151393Y0194745D01*
X0151568Y0194660D01*
X0151742Y0194571D01*
X0151912Y0194478D01*
X0152081Y0194381D01*
X0152247Y0194279D01*
X0152411Y0194174D01*
X0152572Y0194065D01*
X0152731Y0193952D01*
X0152886Y0193835D01*
X0153039Y0193714D01*
X0153188Y0193589D01*
X0153335Y0193461D01*
X0153479Y0193330D01*
X0153619Y0193195D01*
X0153756Y0193056D01*
X0153889Y0192915D01*
X0154019Y0192770D01*
X0154146Y0192622D01*
X0148000Y0195500D02*
X0147808Y0195498D01*
X0147616Y0195491D01*
X0147424Y0195479D01*
X0147232Y0195463D01*
X0147041Y0195442D01*
X0146851Y0195417D01*
X0146661Y0195387D01*
X0146472Y0195353D01*
X0146284Y0195314D01*
X0146097Y0195270D01*
X0145911Y0195222D01*
X0145726Y0195170D01*
X0145542Y0195113D01*
X0145360Y0195052D01*
X0145180Y0194986D01*
X0145001Y0194916D01*
X0144823Y0194842D01*
X0144648Y0194764D01*
X0144474Y0194681D01*
X0144303Y0194594D01*
X0144134Y0194504D01*
X0143967Y0194409D01*
X0143802Y0194310D01*
X0143639Y0194207D01*
X0143480Y0194100D01*
X0143322Y0193990D01*
X0143168Y0193876D01*
X0143016Y0193758D01*
X0142867Y0193636D01*
X0142721Y0193511D01*
X0142579Y0193383D01*
X0142439Y0193251D01*
X0142302Y0193116D01*
X0142169Y0192977D01*
X0142039Y0192836D01*
X0141913Y0192691D01*
X0141790Y0192543D01*
X0141671Y0192393D01*
X0141555Y0192239D01*
X0141443Y0192083D01*
X0141335Y0191924D01*
X0141230Y0191763D01*
X0141130Y0191599D01*
X0141034Y0191433D01*
X0140941Y0191265D01*
X0148000Y0179500D02*
X0148193Y0179502D01*
X0148386Y0179509D01*
X0148578Y0179521D01*
X0148771Y0179537D01*
X0148963Y0179558D01*
X0149154Y0179584D01*
X0149344Y0179614D01*
X0149534Y0179649D01*
X0149723Y0179688D01*
X0149911Y0179732D01*
X0150098Y0179780D01*
X0150284Y0179833D01*
X0150468Y0179890D01*
X0150651Y0179952D01*
X0150832Y0180018D01*
X0151012Y0180089D01*
X0151190Y0180163D01*
X0151366Y0180242D01*
X0151540Y0180326D01*
X0151712Y0180413D01*
X0151882Y0180505D01*
X0152049Y0180601D01*
X0152215Y0180700D01*
X0152378Y0180804D01*
X0152538Y0180911D01*
X0152695Y0181023D01*
X0152850Y0181138D01*
X0153002Y0181257D01*
X0153151Y0181379D01*
X0153298Y0181505D01*
X0153441Y0181635D01*
X0153581Y0181768D01*
X0153717Y0181904D01*
X0153851Y0182044D01*
X0153980Y0182186D01*
X0154107Y0182332D01*
X0064946Y0186469D02*
X0064847Y0186638D01*
X0064743Y0186804D01*
X0064636Y0186968D01*
X0064525Y0187129D01*
X0064410Y0187287D01*
X0064291Y0187442D01*
X0064168Y0187595D01*
X0064042Y0187744D01*
X0063912Y0187890D01*
X0063778Y0188033D01*
X0063641Y0188173D01*
X0063501Y0188309D01*
X0063357Y0188442D01*
X0063210Y0188571D01*
X0063060Y0188697D01*
X0062907Y0188818D01*
X0062751Y0188937D01*
X0062592Y0189051D01*
X0062431Y0189161D01*
X0062266Y0189267D01*
X0062100Y0189370D01*
X0061930Y0189468D01*
X0061759Y0189562D01*
X0061585Y0189652D01*
X0061409Y0189737D01*
X0061231Y0189819D01*
X0061051Y0189895D01*
X0060869Y0189968D01*
X0060686Y0190036D01*
X0060501Y0190099D01*
X0060314Y0190158D01*
X0060126Y0190212D01*
X0059937Y0190262D01*
X0059747Y0190307D01*
X0059555Y0190347D01*
X0059363Y0190383D01*
X0059170Y0190414D01*
X0058976Y0190440D01*
X0058781Y0190462D01*
X0058586Y0190478D01*
X0058391Y0190490D01*
X0058195Y0190498D01*
X0058000Y0190500D01*
X0065059Y0178735D02*
X0064966Y0178567D01*
X0064870Y0178401D01*
X0064770Y0178237D01*
X0064665Y0178076D01*
X0064557Y0177917D01*
X0064445Y0177761D01*
X0064329Y0177607D01*
X0064210Y0177457D01*
X0064087Y0177309D01*
X0063961Y0177164D01*
X0063831Y0177023D01*
X0063698Y0176884D01*
X0063561Y0176749D01*
X0063421Y0176617D01*
X0063279Y0176489D01*
X0063133Y0176364D01*
X0062984Y0176242D01*
X0062832Y0176124D01*
X0062678Y0176010D01*
X0062520Y0175900D01*
X0062361Y0175793D01*
X0062198Y0175690D01*
X0062033Y0175591D01*
X0061866Y0175496D01*
X0061697Y0175406D01*
X0061526Y0175319D01*
X0061352Y0175236D01*
X0061177Y0175158D01*
X0060999Y0175084D01*
X0060820Y0175014D01*
X0060640Y0174948D01*
X0060458Y0174887D01*
X0060274Y0174830D01*
X0060089Y0174778D01*
X0059903Y0174730D01*
X0059716Y0174686D01*
X0059528Y0174647D01*
X0059339Y0174613D01*
X0059149Y0174583D01*
X0058959Y0174558D01*
X0058768Y0174537D01*
X0058576Y0174521D01*
X0058384Y0174509D01*
X0058192Y0174502D01*
X0058000Y0174500D01*
X0051893Y0187668D02*
X0052020Y0187814D01*
X0052149Y0187956D01*
X0052283Y0188096D01*
X0052419Y0188232D01*
X0052559Y0188365D01*
X0052702Y0188495D01*
X0052849Y0188621D01*
X0052998Y0188743D01*
X0053150Y0188862D01*
X0053305Y0188977D01*
X0053462Y0189089D01*
X0053622Y0189196D01*
X0053785Y0189300D01*
X0053951Y0189399D01*
X0054118Y0189495D01*
X0054288Y0189587D01*
X0054460Y0189674D01*
X0054634Y0189758D01*
X0054810Y0189837D01*
X0054988Y0189911D01*
X0055168Y0189982D01*
X0055349Y0190048D01*
X0055532Y0190110D01*
X0055716Y0190167D01*
X0055902Y0190220D01*
X0056089Y0190268D01*
X0056277Y0190312D01*
X0056466Y0190351D01*
X0056656Y0190386D01*
X0056846Y0190416D01*
X0057037Y0190442D01*
X0057229Y0190463D01*
X0057422Y0190479D01*
X0057614Y0190491D01*
X0057807Y0190498D01*
X0058000Y0190500D01*
X0051854Y0177378D02*
X0051981Y0177230D01*
X0052111Y0177085D01*
X0052244Y0176944D01*
X0052381Y0176805D01*
X0052521Y0176670D01*
X0052665Y0176539D01*
X0052812Y0176411D01*
X0052961Y0176286D01*
X0053114Y0176165D01*
X0053269Y0176048D01*
X0053428Y0175935D01*
X0053589Y0175826D01*
X0053753Y0175721D01*
X0053919Y0175619D01*
X0054088Y0175522D01*
X0054258Y0175429D01*
X0054432Y0175340D01*
X0054607Y0175255D01*
X0054784Y0175175D01*
X0054963Y0175099D01*
X0055144Y0175027D01*
X0055327Y0174960D01*
X0055511Y0174897D01*
X0055697Y0174839D01*
X0055884Y0174785D01*
X0056072Y0174736D01*
X0056262Y0174691D01*
X0056452Y0174651D01*
X0056644Y0174616D01*
X0056836Y0174585D01*
X0057029Y0174559D01*
X0057223Y0174538D01*
X0057417Y0174521D01*
X0057611Y0174509D01*
X0057805Y0174502D01*
X0058000Y0174500D01*
D13*
X0058150Y0165913D03*
X0038000Y0166700D03*
X0038000Y0138300D03*
X0058150Y0137513D03*
X0151236Y0137513D03*
X0178000Y0138300D03*
X0151236Y0165913D03*
X0178000Y0166700D03*
D14*
X0006000Y0013000D02*
X0006000Y0008000D01*
X0008500Y0005500D01*
X0013500Y0005500D01*
X0016000Y0008000D01*
X0016000Y0013000D01*
X0013500Y0015500D01*
X0016000Y0018000D01*
X0016000Y0023000D01*
X0013500Y0025500D01*
X0016000Y0028000D01*
X0016000Y0033000D01*
X0013500Y0035500D01*
X0008500Y0035500D01*
X0006000Y0033000D01*
X0006000Y0028000D01*
X0008500Y0025500D01*
X0006000Y0023000D01*
X0006000Y0018000D01*
X0008500Y0015500D01*
X0006000Y0013000D01*
X0027000Y0013000D02*
X0027000Y0008000D01*
X0029500Y0005500D01*
X0034500Y0005500D01*
X0037000Y0008000D01*
X0037000Y0013000D01*
X0034500Y0015500D01*
X0037000Y0018000D01*
X0037000Y0023000D01*
X0034500Y0025500D01*
X0037000Y0028000D01*
X0037000Y0033000D01*
X0034500Y0035500D01*
X0037000Y0038000D01*
X0037000Y0043000D01*
X0034500Y0045500D01*
X0029500Y0045500D01*
X0027000Y0043000D01*
X0027000Y0038000D01*
X0029500Y0035500D01*
X0027000Y0033000D01*
X0027000Y0028000D01*
X0029500Y0025500D01*
X0027000Y0023000D01*
X0027000Y0018000D01*
X0029500Y0015500D01*
X0027000Y0013000D01*
X0048000Y0010000D02*
X0048000Y0025000D01*
X0050500Y0027500D01*
X0055500Y0027500D01*
X0058000Y0025000D01*
X0058000Y0010000D01*
X0060500Y0007500D01*
X0065500Y0007500D01*
X0068000Y0010000D01*
X0068000Y0025000D01*
X0070500Y0027500D01*
X0075500Y0027500D01*
X0078000Y0025000D01*
X0078000Y0010000D01*
X0075500Y0007500D01*
X0070500Y0007500D01*
X0068000Y0010000D01*
X0058000Y0010000D02*
X0055500Y0007500D01*
X0050500Y0007500D01*
X0048000Y0010000D01*
X0050500Y0006181D02*
X0055500Y0006181D01*
X0058000Y0025000D02*
X0060500Y0027500D01*
X0065500Y0027500D01*
X0068000Y0025000D01*
X0083000Y0025000D02*
X0083000Y0020000D01*
X0085500Y0017500D01*
X0083000Y0015000D01*
X0083000Y0010000D01*
X0085500Y0007500D01*
X0090500Y0007500D01*
X0093000Y0010000D01*
X0093000Y0015000D01*
X0090500Y0017500D01*
X0093000Y0020000D01*
X0093000Y0025000D01*
X0090500Y0027500D01*
X0085500Y0027500D01*
X0083000Y0025000D01*
X0098000Y0015000D02*
X0100500Y0017500D01*
X0105500Y0017500D01*
X0108000Y0015000D01*
X0110500Y0017500D01*
X0115500Y0017500D01*
X0118000Y0015000D01*
X0120500Y0017500D01*
X0125500Y0017500D01*
X0128000Y0015000D01*
X0130500Y0017500D01*
X0135500Y0017500D01*
X0138000Y0015000D01*
X0140500Y0017500D01*
X0145500Y0017500D01*
X0148000Y0015000D01*
X0150500Y0017500D01*
X0155500Y0017500D01*
X0158000Y0015000D01*
X0158000Y0010000D01*
X0155500Y0007500D01*
X0150500Y0007500D01*
X0148000Y0010000D01*
X0145500Y0007500D01*
X0140500Y0007500D01*
X0138000Y0010000D01*
X0135500Y0007500D01*
X0130500Y0007500D01*
X0128000Y0010000D01*
X0125500Y0007500D01*
X0120500Y0007500D01*
X0118000Y0010000D01*
X0115500Y0007500D01*
X0110500Y0007500D01*
X0108000Y0010000D01*
X0105500Y0007500D01*
X0100500Y0007500D01*
X0098000Y0010000D01*
X0098000Y0015000D01*
X0130500Y0052500D02*
X0135500Y0052500D01*
X0138000Y0055000D01*
X0138000Y0060000D01*
X0135500Y0062500D01*
X0138000Y0065000D01*
X0138000Y0070000D01*
X0135500Y0072500D01*
X0130500Y0072500D01*
X0128000Y0070000D01*
X0128000Y0065000D01*
X0130500Y0062500D01*
X0128000Y0060000D01*
X0128000Y0055000D01*
X0130500Y0052500D01*
X0183000Y0055000D02*
X0183000Y0060000D01*
X0185500Y0062500D01*
X0183000Y0065000D01*
X0183000Y0070000D01*
X0185500Y0072500D01*
X0183000Y0075000D01*
X0183000Y0080000D01*
X0185500Y0082500D01*
X0183000Y0085000D01*
X0183000Y0090000D01*
X0185500Y0092500D01*
X0183000Y0095000D01*
X0183000Y0100000D01*
X0185500Y0102500D01*
X0183000Y0105000D01*
X0183000Y0110000D01*
X0185500Y0112500D01*
X0183000Y0115000D01*
X0183000Y0120000D01*
X0185500Y0122500D01*
X0183000Y0125000D01*
X0183000Y0130000D01*
X0185500Y0132500D01*
X0183000Y0135000D01*
X0183000Y0140000D01*
X0185500Y0142500D01*
X0183000Y0145000D01*
X0183000Y0150000D01*
X0185500Y0152500D01*
X0190500Y0152500D01*
X0193000Y0150000D01*
X0193000Y0145000D01*
X0190500Y0142500D01*
X0193000Y0140000D01*
X0193000Y0135000D01*
X0190500Y0132500D01*
X0193000Y0130000D01*
X0193000Y0125000D01*
X0190500Y0122500D01*
X0193000Y0120000D01*
X0193000Y0115000D01*
X0190500Y0112500D01*
X0193000Y0110000D01*
X0193000Y0105000D01*
X0190500Y0102500D01*
X0193000Y0100000D01*
X0193000Y0095000D01*
X0190500Y0092500D01*
X0193000Y0090000D01*
X0193000Y0085000D01*
X0190500Y0082500D01*
X0193000Y0080000D01*
X0193000Y0075000D01*
X0190500Y0072500D01*
X0193000Y0070000D01*
X0193000Y0065000D01*
X0190500Y0062500D01*
X0193000Y0060000D01*
X0193000Y0055000D01*
X0190500Y0052500D01*
X0185500Y0052500D01*
X0183000Y0055000D01*
X0185500Y0047500D02*
X0183000Y0045000D01*
X0183000Y0040000D01*
X0185500Y0037500D01*
X0183000Y0035000D01*
X0183000Y0030000D01*
X0185500Y0027500D01*
X0183000Y0025000D01*
X0183000Y0020000D01*
X0185500Y0017500D01*
X0183000Y0015000D01*
X0183000Y0010000D01*
X0185500Y0007500D01*
X0190500Y0007500D01*
X0193000Y0010000D01*
X0193000Y0015000D01*
X0190500Y0017500D01*
X0193000Y0020000D01*
X0193000Y0025000D01*
X0190500Y0027500D01*
X0193000Y0030000D01*
X0193000Y0035000D01*
X0190500Y0037500D01*
X0193000Y0040000D01*
X0193000Y0045000D01*
X0190500Y0047500D01*
X0185500Y0047500D01*
X0185500Y0182500D02*
X0183000Y0185000D01*
X0180500Y0182500D01*
X0175500Y0182500D01*
X0173000Y0185000D01*
X0170500Y0182500D01*
X0165500Y0182500D01*
X0163000Y0185000D01*
X0163000Y0190000D01*
X0165500Y0192500D01*
X0170500Y0192500D01*
X0173000Y0190000D01*
X0175500Y0192500D01*
X0180500Y0192500D01*
X0183000Y0190000D01*
X0185500Y0192500D01*
X0190500Y0192500D01*
X0193000Y0190000D01*
X0193000Y0185000D01*
X0190500Y0182500D01*
X0185500Y0182500D01*
X0133000Y0185000D02*
X0133000Y0190000D01*
X0130500Y0192500D01*
X0125500Y0192500D01*
X0123000Y0190000D01*
X0120500Y0192500D01*
X0115500Y0192500D01*
X0113000Y0190000D01*
X0110500Y0192500D01*
X0105500Y0192500D01*
X0103000Y0190000D01*
X0100500Y0192500D01*
X0095500Y0192500D01*
X0093000Y0190000D01*
X0090500Y0192500D01*
X0088000Y0192500D01*
X0085500Y0192500D01*
X0083000Y0190000D01*
X0083000Y0185000D01*
X0085500Y0182500D01*
X0090500Y0182500D01*
X0093000Y0185000D01*
X0095500Y0182500D01*
X0100500Y0182500D01*
X0103000Y0185000D01*
X0105500Y0182500D01*
X0110500Y0182500D01*
X0113000Y0185000D01*
X0115500Y0182500D01*
X0120500Y0182500D01*
X0123000Y0185000D01*
X0125500Y0182500D01*
X0130500Y0182500D01*
X0133000Y0185000D01*
X0038000Y0185000D02*
X0038000Y0190000D01*
X0035500Y0192500D01*
X0030500Y0192500D01*
X0028000Y0190000D01*
X0025500Y0192500D01*
X0020500Y0192500D01*
X0018000Y0190000D01*
X0015500Y0192500D01*
X0010500Y0192500D01*
X0008000Y0190000D01*
X0008000Y0185000D01*
X0010500Y0182500D01*
X0015500Y0182500D01*
X0018000Y0185000D01*
X0020500Y0182500D01*
X0025500Y0182500D01*
X0028000Y0185000D01*
X0030500Y0182500D01*
X0035500Y0182500D01*
X0038000Y0185000D01*
X0015500Y0152500D02*
X0010500Y0152500D01*
X0008000Y0150000D01*
X0008000Y0145000D01*
X0010500Y0142500D01*
X0008000Y0140000D01*
X0008000Y0135000D01*
X0010500Y0132500D01*
X0008000Y0130000D01*
X0008000Y0125000D01*
X0010500Y0122500D01*
X0008000Y0120000D01*
X0008000Y0115000D01*
X0010500Y0112500D01*
X0008000Y0110000D01*
X0008000Y0105000D01*
X0010500Y0102500D01*
X0008000Y0100000D01*
X0008000Y0095000D01*
X0010500Y0092500D01*
X0008000Y0090000D01*
X0008000Y0085000D01*
X0010500Y0082500D01*
X0008000Y0080000D01*
X0008000Y0075000D01*
X0010500Y0072500D01*
X0008000Y0070000D01*
X0008000Y0065000D01*
X0010500Y0062500D01*
X0008000Y0060000D01*
X0008000Y0055000D01*
X0010500Y0052500D01*
X0015500Y0052500D01*
X0018000Y0055000D01*
X0018000Y0060000D01*
X0015500Y0062500D01*
X0018000Y0065000D01*
X0018000Y0070000D01*
X0015500Y0072500D01*
X0018000Y0075000D01*
X0018000Y0080000D01*
X0015500Y0082500D01*
X0018000Y0085000D01*
X0018000Y0090000D01*
X0015500Y0092500D01*
X0018000Y0095000D01*
X0018000Y0100000D01*
X0015500Y0102500D01*
X0018000Y0105000D01*
X0018000Y0110000D01*
X0015500Y0112500D01*
X0018000Y0115000D01*
X0018000Y0120000D01*
X0015500Y0122500D01*
X0018000Y0125000D01*
X0018000Y0130000D01*
X0015500Y0132500D01*
X0018000Y0135000D01*
X0018000Y0140000D01*
X0015500Y0142500D01*
X0018000Y0145000D01*
X0018000Y0150000D01*
X0015500Y0152500D01*
D15*
X0083000Y0197500D02*
X0093000Y0197500D01*
X0088000Y0192500D01*
X0083000Y0197500D01*
M02*
