%
M48
M72
T01C0.02165
T02C0.03200
T03C0.04000
%
T01
X38000Y67500
X48000Y82500
X78000Y72500
X138000Y27500
X158000Y47500
X148000Y77500
X158000Y87500
T02
X143000Y87500
X133000Y87500
X118000Y87500
X118000Y77500
X118000Y67500
X118000Y57500
X118000Y47500
X118000Y37500
X88000Y37500
X88000Y47500
X88000Y57500
X88000Y67500
X88000Y77500
X88000Y87500
X88000Y97500
X88000Y107500
X88000Y117500
X88000Y127500
X88000Y137500
X88000Y147500
X88000Y157500
X88000Y167500
X63000Y182500
X53000Y182500
X58150Y171713
X38000Y172500
X38000Y132500
X58150Y131713
X118000Y127500
X118000Y117500
X118000Y107500
X118000Y97500
X151236Y131713
X178000Y132500
X178000Y172500
X153000Y187500
X143000Y187500
X151236Y171713
X138000Y167500
X138000Y157500
X118000Y157500
X118000Y147500
X118000Y137500
X118000Y167500
X68000Y47500
X68000Y37500
T03
X11000Y10500
X11000Y20500
X11000Y30500
X32000Y30500
X32000Y20500
X32000Y10500
X53000Y12500
X53000Y22500
X63000Y22500
X63000Y12500
X73000Y12500
X73000Y22500
X88000Y22500
X88000Y12500
X103000Y12500
X113000Y12500
X123000Y12500
X133000Y12500
X143000Y12500
X153000Y12500
X188000Y12500
X188000Y22500
X188000Y32500
X188000Y42500
X188000Y57500
X188000Y67500
X188000Y77500
X188000Y87500
X188000Y97500
X188000Y107500
X188000Y117500
X188000Y127500
X188000Y137500
X188000Y147500
X188000Y187500
X168000Y187500
X128000Y187500
X118000Y187500
X108000Y187500
X98000Y187500
X88000Y187500
X33000Y187500
X13000Y187500
X13000Y147500
X13000Y137500
X13000Y127500
X13000Y117500
X13000Y107500
X13000Y97500
X13000Y87500
X13000Y77500
X13000Y67500
X13000Y57500
X32000Y40500
X133000Y57500
X133000Y67500
M30
