G75*
%MOIN*%
%OFA0B0*%
%FSLAX25Y25*%
%IPPOS*%
%LPD*%
%AMOC8*
5,1,8,0,0,1.08239X$1,22.5*
%
%ADD10C,0.00000*%
%ADD11OC8,0.05600*%
%ADD12C,0.05600*%
%ADD13C,0.07400*%
%ADD14C,0.01600*%
%ADD15C,0.04165*%
D10*
X0003000Y0002500D02*
X0003000Y0199350D01*
X0199850Y0199350D01*
X0199850Y0002500D01*
X0003000Y0002500D01*
D11*
X0068000Y0037500D03*
X0068000Y0047500D03*
X0133000Y0087500D03*
X0143000Y0087500D03*
X0151236Y0131713D03*
X0178000Y0132500D03*
X0178000Y0172500D03*
X0153000Y0187500D03*
X0143000Y0187500D03*
X0151236Y0171713D03*
X0138000Y0167500D03*
X0138000Y0157500D03*
X0063000Y0182500D03*
X0053000Y0182500D03*
X0058150Y0171713D03*
X0038000Y0172500D03*
X0038000Y0132500D03*
X0058150Y0131713D03*
D12*
X0085200Y0127500D02*
X0090800Y0127500D01*
X0090800Y0117500D02*
X0085200Y0117500D01*
X0085200Y0107500D02*
X0090800Y0107500D01*
X0090800Y0097500D02*
X0085200Y0097500D01*
X0085200Y0087500D02*
X0090800Y0087500D01*
X0090800Y0077500D02*
X0085200Y0077500D01*
X0085200Y0067500D02*
X0090800Y0067500D01*
X0090800Y0057500D02*
X0085200Y0057500D01*
X0085200Y0047500D02*
X0090800Y0047500D01*
X0090800Y0037500D02*
X0085200Y0037500D01*
X0115200Y0037500D02*
X0120800Y0037500D01*
X0120800Y0047500D02*
X0115200Y0047500D01*
X0115200Y0057500D02*
X0120800Y0057500D01*
X0120800Y0067500D02*
X0115200Y0067500D01*
X0115200Y0077500D02*
X0120800Y0077500D01*
X0120800Y0087500D02*
X0115200Y0087500D01*
X0115200Y0097500D02*
X0120800Y0097500D01*
X0120800Y0107500D02*
X0115200Y0107500D01*
X0115200Y0117500D02*
X0120800Y0117500D01*
X0120800Y0127500D02*
X0115200Y0127500D01*
X0115200Y0137500D02*
X0120800Y0137500D01*
X0120800Y0147500D02*
X0115200Y0147500D01*
X0115200Y0157500D02*
X0120800Y0157500D01*
X0120800Y0167500D02*
X0115200Y0167500D01*
X0090800Y0167500D02*
X0085200Y0167500D01*
X0085200Y0157500D02*
X0090800Y0157500D01*
X0090800Y0147500D02*
X0085200Y0147500D01*
X0085200Y0137500D02*
X0090800Y0137500D01*
D13*
X0088000Y0187500D03*
X0098000Y0187500D03*
X0108000Y0187500D03*
X0118000Y0187500D03*
X0128000Y0187500D03*
X0168000Y0187500D03*
X0188000Y0187500D03*
X0188000Y0147500D03*
X0188000Y0137500D03*
X0188000Y0127500D03*
X0188000Y0117500D03*
X0188000Y0107500D03*
X0188000Y0097500D03*
X0188000Y0087500D03*
X0188000Y0077500D03*
X0188000Y0067500D03*
X0188000Y0057500D03*
X0188000Y0042500D03*
X0188000Y0032500D03*
X0188000Y0022500D03*
X0188000Y0012500D03*
X0153000Y0012500D03*
X0143000Y0012500D03*
X0133000Y0012500D03*
X0123000Y0012500D03*
X0113000Y0012500D03*
X0103000Y0012500D03*
X0088000Y0012500D03*
X0088000Y0022500D03*
X0073000Y0022500D03*
X0073000Y0012500D03*
X0063000Y0012500D03*
X0063000Y0022500D03*
X0053000Y0022500D03*
X0053000Y0012500D03*
X0032000Y0010500D03*
X0032000Y0020500D03*
X0032000Y0030500D03*
X0032000Y0040500D03*
X0013000Y0057500D03*
X0013000Y0067500D03*
X0013000Y0077500D03*
X0013000Y0087500D03*
X0013000Y0097500D03*
X0013000Y0107500D03*
X0013000Y0117500D03*
X0013000Y0127500D03*
X0013000Y0137500D03*
X0013000Y0147500D03*
X0013000Y0187500D03*
X0033000Y0187500D03*
X0133000Y0067500D03*
X0133000Y0057500D03*
X0011000Y0030500D03*
X0011000Y0020500D03*
X0011000Y0010500D03*
D14*
X0021000Y0010500D02*
X0011000Y0020500D01*
X0021000Y0010500D02*
X0023000Y0010500D01*
X0023000Y0047500D01*
X0033000Y0057500D01*
X0058000Y0057500D01*
X0068000Y0047500D01*
X0088000Y0047500D01*
X0098000Y0042500D02*
X0098000Y0077500D01*
X0088000Y0087500D01*
X0088000Y0077500D02*
X0063000Y0077500D01*
X0023000Y0117500D01*
X0013000Y0117500D01*
X0013000Y0107500D02*
X0023000Y0107500D01*
X0048000Y0082500D01*
X0048000Y0072500D02*
X0078000Y0072500D01*
X0088000Y0067500D02*
X0038000Y0067500D01*
X0033000Y0067500D02*
X0023000Y0077500D01*
X0013000Y0077500D01*
X0013000Y0097500D02*
X0023000Y0097500D01*
X0048000Y0072500D01*
X0033000Y0067500D02*
X0033000Y0057500D01*
X0063000Y0032500D02*
X0103000Y0032500D01*
X0123000Y0012500D01*
X0123000Y0022500D02*
X0118000Y0022500D01*
X0098000Y0042500D01*
X0103000Y0042500D02*
X0103000Y0097500D01*
X0093000Y0107500D01*
X0088000Y0107500D01*
X0088000Y0117500D02*
X0038000Y0117500D01*
X0028000Y0127500D01*
X0013000Y0127500D01*
X0013000Y0137500D02*
X0023000Y0147500D01*
X0088000Y0147500D01*
X0088000Y0157500D02*
X0023000Y0157500D01*
X0013000Y0147500D01*
X0038000Y0172500D02*
X0043000Y0177500D01*
X0093000Y0177500D01*
X0098000Y0182500D01*
X0098000Y0187500D01*
X0118000Y0167500D01*
X0138000Y0167500D01*
X0138000Y0182500D01*
X0143000Y0187500D01*
X0153000Y0187500D02*
X0153000Y0173476D01*
X0151236Y0171713D01*
X0168000Y0172500D02*
X0168000Y0157500D01*
X0163000Y0152500D01*
X0103000Y0152500D01*
X0088000Y0167500D01*
X0118000Y0147500D02*
X0188000Y0147500D01*
X0188000Y0137500D02*
X0118000Y0137500D01*
X0118000Y0127500D02*
X0123000Y0122500D01*
X0183000Y0122500D01*
X0188000Y0127500D01*
X0188000Y0117500D02*
X0118000Y0117500D01*
X0118000Y0107500D02*
X0188000Y0107500D01*
X0188000Y0097500D02*
X0118000Y0097500D01*
X0118000Y0087500D02*
X0133000Y0087500D01*
X0148000Y0077500D02*
X0188000Y0077500D01*
X0188000Y0067500D02*
X0198100Y0057400D01*
X0198100Y0035388D01*
X0198000Y0035288D01*
X0198000Y0022500D01*
X0188000Y0022500D01*
X0183000Y0027500D01*
X0138000Y0027500D01*
X0138000Y0022500D02*
X0133000Y0022500D01*
X0128000Y0027500D01*
X0118000Y0027500D01*
X0103000Y0042500D01*
X0118000Y0047500D02*
X0158000Y0047500D01*
X0158000Y0057500D02*
X0133000Y0057500D01*
X0118000Y0057500D01*
X0118000Y0067500D02*
X0133000Y0067500D01*
X0158000Y0067500D01*
X0183000Y0042500D01*
X0188000Y0042500D01*
X0188000Y0032500D02*
X0183000Y0032500D01*
X0158000Y0057500D01*
X0158000Y0087500D02*
X0188000Y0087500D01*
X0138000Y0022500D02*
X0143000Y0017500D01*
X0143000Y0012500D01*
X0133000Y0012500D02*
X0123000Y0022500D01*
X0088000Y0022500D02*
X0073000Y0022500D01*
X0073000Y0012500D01*
X0063000Y0012500D02*
X0063000Y0022500D01*
X0053000Y0022500D02*
X0053000Y0012500D01*
X0053000Y0022500D02*
X0063000Y0032500D01*
X0032000Y0010500D02*
X0023000Y0010500D01*
X0168000Y0172500D02*
X0178000Y0172500D01*
X0168000Y0182500D01*
X0168000Y0187500D01*
D15*
X0158000Y0087500D03*
X0148000Y0077500D03*
X0158000Y0047500D03*
X0138000Y0027500D03*
X0078000Y0072500D03*
X0048000Y0082500D03*
X0038000Y0067500D03*
M02*
